  0
SECTION
  2
HEADER
  9
$ACADVER
  1
AC1014
  9
$HANDSEED
  5
FFFF
  9
$MEASUREMENT
 70
     1
  0
ENDSEC
  0
SECTION
  2
TABLES
  0
TABLE
  2
VPORT
  5
8
330
0
100
AcDbSymbolTable
 70
     4
  0
VPORT
  5
2E
330
8
100
AcDbSymbolTableRecord
100
AcDbViewportTableRecord
  2
*ACTIVE
 70
     0
 10
0.0
 20
0.0
 11
1.0
 21
1.0
 12
210.0
 22
148.5
 13
0.0
 23
0.0
 14
10.0
 24
10.0
 15
10.0
 25
10.0
 16
0.0
 26
0.0
 36
1.0
 17
0.0
 27
0.0
 37
0.0
 40
341.0
 41
1.24
 42
50.0
 43
0.0
 44
0.0
 50
0.0
 51
0.0
 71
     0
 72
   100
 73
     1
 74
     3
 75
     0
 76
     0
 77
     0
 78
     0
  0
ENDTAB
  0
TABLE
  2
LTYPE
  5
5
330
0
100
AcDbSymbolTable
 70
     1
  0
LTYPE
  5
14
330
5
100
AcDbSymbolTableRecord
100
AcDbLinetypeTableRecord
  2
BYBLOCK
 70
     0
  3

 72
    65
 73
     0
 40
0.0
  0
LTYPE
  5
15
330
5
100
AcDbSymbolTableRecord
100
AcDbLinetypeTableRecord
  2
BYLAYER
 70
     0
  3

 72
    65
 73
     0
 40
0.0
  0
LTYPE
  5
16
330
5
100
AcDbSymbolTableRecord
100
AcDbLinetypeTableRecord
  2
CONTINUOUS
 70
     0
  3
Solid line
 72
    65
 73
     0
 40
0.0
  0
ENDTAB
  0
TABLE
  2
LAYER
  5
2
100
AcDbSymbolTable
 70
2
  0
LAYER
  5
50
100
AcDbSymbolTableRecord
100
AcDbLayerTableRecord
  2
0
 70
0
  6
CONTINUOUS
  0
LAYER
  5
51
100
AcDbSymbolTableRecord
100
AcDbLayerTableRecord
  2
Capa_1
 70
0
  6
CONTINUOUS
  0
ENDTAB
  0
TABLE
  2
STYLE
  5
3
330
0
100
AcDbSymbolTable
 70
     1
  0
STYLE
  5
11
330
3
100
AcDbSymbolTableRecord
100
AcDbTextStyleTableRecord
  2
STANDARD
 70
     0
 40
0.0
 41
1.0
 50
0.0
 71
     0
 42
2.5
  3
txt
  4

  0
ENDTAB
  0
TABLE
  2
VIEW
  5
6
330
0
100
AcDbSymbolTable
 70
     0
  0
ENDTAB
  0
TABLE
  2
UCS
  5
7
330
0
100
AcDbSymbolTable
 70
     0
  0
ENDTAB
  0
TABLE
  2
APPID
  5
9
330
0
100
AcDbSymbolTable
 70
     2
  0
APPID
  5
12
330
9
100
AcDbSymbolTableRecord
100
AcDbRegAppTableRecord
  2
ACAD
 70
     0
  0
ENDTAB
  0
TABLE
  2
DIMSTYLE
  5
A
330
0
100
AcDbSymbolTable
 70
     1
  0
DIMSTYLE
105
27
330
A
100
AcDbSymbolTableRecord
100
AcDbDimStyleTableRecord
  2
ISO-25
 70
     0
  3

  4

  5

  6

  7

 40
1.0
 41
2.5
 42
0.625
 43
3.75
 44
1.25
 45
0.0
 46
0.0
 47
0.0
 48
0.0
140
2.5
141
2.5
142
0.0
143
0.03937007874016
144
1.0
145
0.0
146
1.0
147
0.625
 71
     0
 72
     0
 73
     0
 74
     0
 75
     0
 76
     0
 77
     1
 78
     8
170
     0
171
     3
172
     1
173
     0
174
     0
175
     0
176
     0
177
     0
178
     0
270
     2
271
     2
272
     2
273
     2
274
     3
340
11
275
     0
280
     0
281
     0
282
     0
283
     0
284
     8
285
     0
286
     0
287
     3
288
     0
  0
ENDTAB
  0
TABLE
  2
BLOCK_RECORD
  5
1
330
0
100
AcDbSymbolTable
 70
     1
  0
BLOCK_RECORD
  5
1F
330
1
100
AcDbSymbolTableRecord
100
AcDbBlockTableRecord
  2
*MODEL_SPACE
  0
BLOCK_RECORD
  5
1B
330
1
100
AcDbSymbolTableRecord
100
AcDbBlockTableRecord
  2
*PAPER_SPACE
  0
ENDTAB
  0
ENDSEC
  0
SECTION
  2
BLOCKS
  0
BLOCK
  5
20
330
1F
100
AcDbEntity
  8
0
100
AcDbBlockBegin
  2
*MODEL_SPACE
 70
     0
 10
0.0
 20
0.0
 30
0.0
  3
*MODEL_SPACE
  1

  0
ENDBLK
  5
21
330
1F
100
AcDbEntity
  8
0
100
AcDbBlockEnd
  0
BLOCK
  5
1C
330
1B
100
AcDbEntity
 67
     1
  8
0
100
AcDbBlockBegin
  2
*PAPER_SPACE
  1

  0
ENDBLK
  5
1D
330
1B
100
AcDbEntity
 67
     1
  8
0
100
AcDbBlockEnd
  0
ENDSEC
  0
SECTION
  2
ENTITIES
  0
SPLINE
  5
100
100
AcDbEntity
  8
Capa_1
 62
1
100
AcDbSpline
 70
8
 71
3
 72
8
 73
4
 74
0
 40
0
 40
0
 40
0
 40
0
 40
1
 40
1
 40
1
 40
1
 10
43.181448
 20
79.365301
 30
0.0
 10
43.181448
 20
52.952537
 30
0.0
 10
43.181448
 20
26.539771
 30
0.0
 10
43.181448
 20
0.127005
 30
0.0
  0
SPLINE
  5
101
100
AcDbEntity
  8
Capa_1
 62
1
100
AcDbSpline
 70
8
 71
3
 72
8
 73
4
 74
0
 40
0
 40
0
 40
0
 40
0
 40
1
 40
1
 40
1
 40
1
 10
43.181448
 20
0.127005
 30
0.0
 10
56.261051
 20
0.127005
 30
0.0
 10
69.340654
 20
0.127005
 30
0.0
 10
82.420257
 20
0.127005
 30
0.0
  0
SPLINE
  5
102
100
AcDbEntity
  8
Capa_1
 62
1
100
AcDbSpline
 70
8
 71
3
 72
8
 73
4
 74
0
 40
0
 40
0
 40
0
 40
0
 40
1
 40
1
 40
1
 40
1
 10
82.420257
 20
0.127005
 30
0.0
 10
82.420257
 20
19.364971
 30
0.0
 10
82.420257
 20
38.602934
 30
0.0
 10
82.420257
 20
57.840899
 30
0.0
  0
SPLINE
  5
103
100
AcDbEntity
  8
Capa_1
 62
1
100
AcDbSpline
 70
8
 71
3
 72
8
 73
4
 74
0
 40
0
 40
0
 40
0
 40
0
 40
1
 40
1
 40
1
 40
1
 10
82.420257
 20
57.840899
 30
0.0
 10
74.364796
 20
57.840899
 30
0.0
 10
66.309339
 20
57.840899
 30
0.0
 10
58.253878
 20
57.840899
 30
0.0
  0
SPLINE
  5
104
100
AcDbEntity
  8
Capa_1
 62
1
100
AcDbSpline
 70
8
 71
3
 72
8
 73
4
 74
0
 40
0
 40
0
 40
0
 40
0
 40
1
 40
1
 40
1
 40
1
 10
58.253878
 20
57.840899
 30
0.0
 10
58.253878
 20
61.079473
 30
0.0
 10
58.253878
 20
64.318044
 30
0.0
 10
58.253878
 20
67.556616
 30
0.0
  0
SPLINE
  5
105
100
AcDbEntity
  8
Capa_1
 62
1
100
AcDbSpline
 70
8
 71
3
 72
8
 73
4
 74
0
 40
0
 40
0
 40
0
 40
0
 40
1
 40
1
 40
1
 40
1
 10
58.253878
 20
67.556616
 30
0.0
 10
66.309339
 20
67.556616
 30
0.0
 10
74.364796
 20
67.556616
 30
0.0
 10
82.420257
 20
67.556616
 30
0.0
  0
SPLINE
  5
106
100
AcDbEntity
  8
Capa_1
 62
1
100
AcDbSpline
 70
8
 71
3
 72
8
 73
4
 74
0
 40
0
 40
0
 40
0
 40
0
 40
1
 40
1
 40
1
 40
1
 10
82.420257
 20
67.556616
 30
0.0
 10
82.420257
 20
71.492844
 30
0.0
 10
82.420257
 20
75.429073
 30
0.0
 10
82.420257
 20
79.365301
 30
0.0
  0
SPLINE
  5
107
100
AcDbEntity
  8
Capa_1
 62
1
100
AcDbSpline
 70
8
 71
3
 72
8
 73
4
 74
0
 40
0
 40
0
 40
0
 40
0
 40
1
 40
1
 40
1
 40
1
 10
82.420257
 20
79.365301
 30
0.0
 10
69.340654
 20
79.365301
 30
0.0
 10
56.261051
 20
79.365301
 30
0.0
 10
43.181448
 20
79.365301
 30
0.0
  0
SPLINE
  5
108
100
AcDbEntity
  8
Capa_1
 62
7
100
AcDbSpline
 70
8
 71
3
 72
8
 73
4
 74
0
 40
0
 40
0
 40
0
 40
0
 40
1
 40
1
 40
1
 40
1
 10
48.140719
 20
10.091307
 30
0.0
 10
49.621765
 20
10.093282
 30
0.0
 10
51.102813
 20
10.095455
 30
0.0
 10
52.583859
 20
10.097516
 30
0.0
  0
SPLINE
  5
109
100
AcDbEntity
  8
Capa_1
 62
7
100
AcDbSpline
 70
8
 71
3
 72
8
 73
4
 74
0
 40
0
 40
0
 40
0
 40
0
 40
1
 40
1
 40
1
 40
1
 10
52.583859
 20
10.097516
 30
0.0
 10
52.583859
 20
9.982792
 30
0.0
 10
52.583859
 20
9.868072
 30
0.0
 10
52.583859
 20
9.753348
 30
0.0
  0
SPLINE
  5
10a
100
AcDbEntity
  8
Capa_1
 62
7
100
AcDbSpline
 70
8
 71
3
 72
8
 73
4
 74
0
 40
0
 40
0
 40
0
 40
0
 40
1
 40
1
 40
1
 40
1
 10
52.583859
 20
9.753348
 30
0.0
 10
51.563767
 20
9.753348
 30
0.0
 10
50.543672
 20
9.753348
 30
0.0
 10
49.523580
 20
9.753348
 30
0.0
  0
SPLINE
  5
10b
100
AcDbEntity
  8
Capa_1
 62
7
100
AcDbSpline
 70
8
 71
3
 72
8
 73
4
 74
0
 40
0
 40
0
 40
0
 40
0
 40
1
 40
1
 40
1
 40
1
 10
49.523580
 20
9.753348
 30
0.0
 10
50.543672
 20
9.189042
 30
0.0
 10
51.563767
 20
8.624736
 30
0.0
 10
52.583859
 20
8.060430
 30
0.0
  0
SPLINE
  5
10c
100
AcDbEntity
  8
Capa_1
 62
7
100
AcDbSpline
 70
8
 71
3
 72
8
 73
4
 74
0
 40
0
 40
0
 40
0
 40
0
 40
1
 40
1
 40
1
 40
1
 10
52.583859
 20
8.060430
 30
0.0
 10
51.574102
 20
7.501291
 30
0.0
 10
50.564342
 20
6.942150
 30
0.0
 10
49.554584
 20
6.383011
 30
0.0
  0
SPLINE
  5
10d
100
AcDbEntity
  8
Capa_1
 62
7
100
AcDbSpline
 70
8
 71
3
 72
8
 73
4
 74
0
 40
0
 40
0
 40
0
 40
0
 40
1
 40
1
 40
1
 40
1
 10
49.554584
 20
6.383011
 30
0.0
 10
50.564342
 20
6.383011
 30
0.0
 10
51.574102
 20
6.383011
 30
0.0
 10
52.583859
 20
6.383011
 30
0.0
  0
SPLINE
  5
10e
100
AcDbEntity
  8
Capa_1
 62
7
100
AcDbSpline
 70
8
 71
3
 72
8
 73
4
 74
0
 40
0
 40
0
 40
0
 40
0
 40
1
 40
1
 40
1
 40
1
 10
52.583859
 20
6.383011
 30
0.0
 10
52.583859
 20
6.270356
 30
0.0
 10
52.583859
 20
6.157702
 30
0.0
 10
52.583859
 20
6.045047
 30
0.0
  0
SPLINE
  5
10f
100
AcDbEntity
  8
Capa_1
 62
7
100
AcDbSpline
 70
8
 71
3
 72
8
 73
4
 74
0
 40
0
 40
0
 40
0
 40
0
 40
1
 40
1
 40
1
 40
1
 10
52.583859
 20
6.045047
 30
0.0
 10
51.099712
 20
6.045047
 30
0.0
 10
49.615564
 20
6.045047
 30
0.0
 10
48.131417
 20
6.045047
 30
0.0
  0
SPLINE
  5
110
100
AcDbEntity
  8
Capa_1
 62
7
100
AcDbSpline
 70
8
 71
3
 72
8
 73
4
 74
0
 40
0
 40
0
 40
0
 40
0
 40
1
 40
1
 40
1
 40
1
 10
48.131417
 20
6.045047
 30
0.0
 10
49.346846
 20
6.723044
 30
0.0
 10
50.562276
 20
7.401037
 30
0.0
 10
51.777705
 20
8.079034
 30
0.0
  0
SPLINE
  5
111
100
AcDbEntity
  8
Capa_1
 62
7
100
AcDbSpline
 70
8
 71
3
 72
8
 73
4
 74
0
 40
0
 40
0
 40
0
 40
0
 40
1
 40
1
 40
1
 40
1
 10
51.777705
 20
8.079034
 30
0.0
 10
50.565377
 20
8.749789
 30
0.0
 10
49.353038
 20
9.420566
 30
0.0
 10
48.140719
 20
10.091307
 30
0.0
  0
LWPOLYLINE
  5
112
100
AcDbEntity
  8
Capa_1
 62
1
100
AcDbPolyline
 90
2
 70
1
 10
43.181448
 20
79.365301
 30
0.0
 10
43.181448
 20
79.365301
 30
0.0
  0
SPLINE
  5
113
100
AcDbEntity
  8
Capa_1
 62
7
100
AcDbSpline
 70
8
 71
3
 72
8
 73
4
 74
0
 40
0
 40
0
 40
0
 40
0
 40
1
 40
1
 40
1
 40
1
 10
50.317330
 20
14.503442
 30
0.0
 10
51.021361
 20
14.507760
 30
0.0
 10
51.721659
 20
14.194600
 30
0.0
 10
52.169847
 20
13.648390
 30
0.0
  0
SPLINE
  5
114
100
AcDbEntity
  8
Capa_1
 62
7
100
AcDbSpline
 70
8
 71
3
 72
8
 73
4
 74
0
 40
0
 40
0
 40
0
 40
0
 40
1
 40
1
 40
1
 40
1
 10
52.169847
 20
13.648390
 30
0.0
 10
52.715987
 20
13.020466
 30
0.0
 10
52.736203
 20
12.010195
 30
0.0
 10
52.216440
 20
11.360610
 30
0.0
  0
SPLINE
  5
115
100
AcDbEntity
  8
Capa_1
 62
7
100
AcDbSpline
 70
8
 71
3
 72
8
 73
4
 74
0
 40
0
 40
0
 40
0
 40
0
 40
1
 40
1
 40
1
 40
1
 10
52.216440
 20
11.360610
 30
0.0
 10
51.781735
 20
10.794974
 30
0.0
 10
51.081717
 20
10.456073
 30
0.0
 10
50.369961
 20
10.449026
 30
0.0
  0
SPLINE
  5
116
100
AcDbEntity
  8
Capa_1
 62
7
100
AcDbSpline
 70
8
 71
3
 72
8
 73
4
 74
0
 40
0
 40
0
 40
0
 40
0
 40
1
 40
1
 40
1
 40
1
 10
50.369961
 20
10.449026
 30
0.0
 10
49.624838
 20
10.446486
 30
0.0
 10
48.879661
 20
10.448744
 30
0.0
 10
48.134518
 20
10.447897
 30
0.0
  0
SPLINE
  5
117
100
AcDbEntity
  8
Capa_1
 62
7
100
AcDbSpline
 70
8
 71
3
 72
8
 73
4
 74
0
 40
0
 40
0
 40
0
 40
0
 40
1
 40
1
 40
1
 40
1
 10
48.134518
 20
10.447897
 30
0.0
 10
48.134518
 20
10.552283
 30
0.0
 10
48.134518
 20
10.656671
 30
0.0
 10
48.134518
 20
10.761057
 30
0.0
  0
SPLINE
  5
118
100
AcDbEntity
  8
Capa_1
 62
7
100
AcDbSpline
 70
8
 71
3
 72
8
 73
4
 74
0
 40
0
 40
0
 40
0
 40
0
 40
1
 40
1
 40
1
 40
1
 10
48.134518
 20
10.761057
 30
0.0
 10
48.901212
 20
10.763879
 30
0.0
 10
49.668142
 20
10.755356
 30
0.0
 10
50.434683
 20
10.765516
 30
0.0
  0
SPLINE
  5
119
100
AcDbEntity
  8
Capa_1
 62
7
100
AcDbSpline
 70
8
 71
3
 72
8
 73
4
 74
0
 40
0
 40
0
 40
0
 40
0
 40
1
 40
1
 40
1
 40
1
 10
50.434683
 20
10.765516
 30
0.0
 10
51.185166
 20
10.797892
 30
0.0
 10
51.937804
 20
11.282143
 30
0.0
 10
52.173011
 20
12.012890
 30
0.0
  0
SPLINE
  5
11a
100
AcDbEntity
  8
Capa_1
 62
7
100
AcDbSpline
 70
8
 71
3
 72
8
 73
4
 74
0
 40
0
 40
0
 40
0
 40
0
 40
1
 40
1
 40
1
 40
1
 10
52.173011
 20
12.012890
 30
0.0
 10
52.347890
 20
12.572271
 30
0.0
 10
52.179164
 20
13.217889
 30
0.0
 10
51.746446
 20
13.615147
 30
0.0
  0
SPLINE
  5
11b
100
AcDbEntity
  8
Capa_1
 62
7
100
AcDbSpline
 70
8
 71
3
 72
8
 73
4
 74
0
 40
0
 40
0
 40
0
 40
0
 40
1
 40
1
 40
1
 40
1
 10
51.746446
 20
13.615147
 30
0.0
 10
51.337758
 20
14.029286
 30
0.0
 10
50.746177
 20
14.215609
 30
0.0
 10
50.172677
 20
14.190319
 30
0.0
  0
SPLINE
  5
11c
100
AcDbEntity
  8
Capa_1
 62
7
100
AcDbSpline
 70
8
 71
3
 72
8
 73
4
 74
0
 40
0
 40
0
 40
0
 40
0
 40
1
 40
1
 40
1
 40
1
 10
50.172677
 20
14.190319
 30
0.0
 10
49.493291
 20
14.190319
 30
0.0
 10
48.813904
 20
14.190319
 30
0.0
 10
48.134518
 20
14.190319
 30
0.0
  0
SPLINE
  5
11d
100
AcDbEntity
  8
Capa_1
 62
7
100
AcDbSpline
 70
8
 71
3
 72
8
 73
4
 74
0
 40
0
 40
0
 40
0
 40
0
 40
1
 40
1
 40
1
 40
1
 10
48.134518
 20
14.190319
 30
0.0
 10
48.134518
 20
14.294705
 30
0.0
 10
48.134518
 20
14.399093
 30
0.0
 10
48.134518
 20
14.503479
 30
0.0
  0
SPLINE
  5
11e
100
AcDbEntity
  8
Capa_1
 62
7
100
AcDbSpline
 70
8
 71
3
 72
8
 73
4
 74
0
 40
0
 40
0
 40
0
 40
0
 40
1
 40
1
 40
1
 40
1
 10
48.134518
 20
14.503479
 30
0.0
 10
48.862121
 20
14.503479
 30
0.0
 10
49.589727
 20
14.503479
 30
0.0
 10
50.317330
 20
14.503479
 30
0.0
  0
LWPOLYLINE
  5
11f
100
AcDbEntity
  8
Capa_1
 62
7
100
AcDbPolyline
 90
2
 70
1
 10
48.140719
 20
10.091307
 30
0.0
 10
48.140719
 20
10.091307
 30
0.0
  0
SPLINE
  5
120
100
AcDbEntity
  8
Capa_1
 62
7
100
AcDbSpline
 70
8
 71
3
 72
8
 73
4
 74
0
 40
0
 40
0
 40
0
 40
0
 40
1
 40
1
 40
1
 40
1
 10
48.140719
 20
18.896970
 30
0.0
 10
49.621765
 20
18.898946
 30
0.0
 10
51.102813
 20
18.901119
 30
0.0
 10
52.583859
 20
18.903179
 30
0.0
  0
SPLINE
  5
121
100
AcDbEntity
  8
Capa_1
 62
7
100
AcDbSpline
 70
8
 71
3
 72
8
 73
4
 74
0
 40
0
 40
0
 40
0
 40
0
 40
1
 40
1
 40
1
 40
1
 10
52.583859
 20
18.903179
 30
0.0
 10
52.583859
 20
18.788459
 30
0.0
 10
52.583859
 20
18.673735
 30
0.0
 10
52.583859
 20
18.559015
 30
0.0
  0
SPLINE
  5
122
100
AcDbEntity
  8
Capa_1
 62
7
100
AcDbSpline
 70
8
 71
3
 72
8
 73
4
 74
0
 40
0
 40
0
 40
0
 40
0
 40
1
 40
1
 40
1
 40
1
 10
52.583859
 20
18.559015
 30
0.0
 10
51.563767
 20
18.559015
 30
0.0
 10
50.543672
 20
18.559015
 30
0.0
 10
49.523580
 20
18.559015
 30
0.0
  0
SPLINE
  5
123
100
AcDbEntity
  8
Capa_1
 62
7
100
AcDbSpline
 70
8
 71
3
 72
8
 73
4
 74
0
 40
0
 40
0
 40
0
 40
0
 40
1
 40
1
 40
1
 40
1
 10
49.523580
 20
18.559015
 30
0.0
 10
50.543672
 20
17.994709
 30
0.0
 10
51.563767
 20
17.430400
 30
0.0
 10
52.583859
 20
16.866093
 30
0.0
  0
SPLINE
  5
124
100
AcDbEntity
  8
Capa_1
 62
7
100
AcDbSpline
 70
8
 71
3
 72
8
 73
4
 74
0
 40
0
 40
0
 40
0
 40
0
 40
1
 40
1
 40
1
 40
1
 10
52.583859
 20
16.866093
 30
0.0
 10
51.574102
 20
16.306955
 30
0.0
 10
50.564342
 20
15.747816
 30
0.0
 10
49.554584
 20
15.188677
 30
0.0
  0
SPLINE
  5
125
100
AcDbEntity
  8
Capa_1
 62
7
100
AcDbSpline
 70
8
 71
3
 72
8
 73
4
 74
0
 40
0
 40
0
 40
0
 40
0
 40
1
 40
1
 40
1
 40
1
 10
49.554584
 20
15.188677
 30
0.0
 10
50.564342
 20
15.188677
 30
0.0
 10
51.574102
 20
15.188677
 30
0.0
 10
52.583859
 20
15.188677
 30
0.0
  0
SPLINE
  5
126
100
AcDbEntity
  8
Capa_1
 62
7
100
AcDbSpline
 70
8
 71
3
 72
8
 73
4
 74
0
 40
0
 40
0
 40
0
 40
0
 40
1
 40
1
 40
1
 40
1
 10
52.583859
 20
15.188677
 30
0.0
 10
52.583859
 20
15.076023
 30
0.0
 10
52.583859
 20
14.963368
 30
0.0
 10
52.583859
 20
14.850714
 30
0.0
  0
SPLINE
  5
127
100
AcDbEntity
  8
Capa_1
 62
7
100
AcDbSpline
 70
8
 71
3
 72
8
 73
4
 74
0
 40
0
 40
0
 40
0
 40
0
 40
1
 40
1
 40
1
 40
1
 10
52.583859
 20
14.850714
 30
0.0
 10
51.099712
 20
14.850714
 30
0.0
 10
49.615564
 20
14.850714
 30
0.0
 10
48.131417
 20
14.850714
 30
0.0
  0
SPLINE
  5
128
100
AcDbEntity
  8
Capa_1
 62
7
100
AcDbSpline
 70
8
 71
3
 72
8
 73
4
 74
0
 40
0
 40
0
 40
0
 40
0
 40
1
 40
1
 40
1
 40
1
 10
48.131417
 20
14.850714
 30
0.0
 10
49.346846
 20
15.528707
 30
0.0
 10
50.562276
 20
16.206704
 30
0.0
 10
51.777705
 20
16.884698
 30
0.0
  0
SPLINE
  5
129
100
AcDbEntity
  8
Capa_1
 62
7
100
AcDbSpline
 70
8
 71
3
 72
8
 73
4
 74
0
 40
0
 40
0
 40
0
 40
0
 40
1
 40
1
 40
1
 40
1
 10
51.777705
 20
16.884698
 30
0.0
 10
50.565377
 20
17.555452
 30
0.0
 10
49.353038
 20
18.226230
 30
0.0
 10
48.140719
 20
18.896970
 30
0.0
  0
LWPOLYLINE
  5
12a
100
AcDbEntity
  8
Capa_1
 62
7
100
AcDbPolyline
 90
2
 70
1
 10
50.317330
 20
14.503479
 30
0.0
 10
50.317330
 20
14.503442
 30
0.0
  0
SPLINE
  5
12b
100
AcDbEntity
  8
Capa_1
 62
7
100
AcDbSpline
 70
8
 71
3
 72
8
 73
4
 74
0
 40
0
 40
0
 40
0
 40
0
 40
1
 40
1
 40
1
 40
1
 10
52.590059
 20
23.761790
 30
0.0
 10
52.590059
 20
23.630531
 30
0.0
 10
52.590059
 20
23.499275
 30
0.0
 10
52.590059
 20
23.368017
 30
0.0
  0
SPLINE
  5
12c
100
AcDbEntity
  8
Capa_1
 62
7
100
AcDbSpline
 70
8
 71
3
 72
8
 73
4
 74
0
 40
0
 40
0
 40
0
 40
0
 40
1
 40
1
 40
1
 40
1
 10
52.590059
 20
23.368017
 30
0.0
 10
51.362226
 20
22.719995
 30
0.0
 10
50.134396
 20
22.071970
 30
0.0
 10
48.906563
 20
21.423948
 30
0.0
  0
SPLINE
  5
12d
100
AcDbEntity
  8
Capa_1
 62
7
100
AcDbSpline
 70
8
 71
3
 72
8
 73
4
 74
0
 40
0
 40
0
 40
0
 40
0
 40
1
 40
1
 40
1
 40
1
 10
48.906563
 20
21.423948
 30
0.0
 10
50.134396
 20
20.780061
 30
0.0
 10
51.362226
 20
20.136171
 30
0.0
 10
52.590059
 20
19.492284
 30
0.0
  0
SPLINE
  5
12e
100
AcDbEntity
  8
Capa_1
 62
7
100
AcDbSpline
 70
8
 71
3
 72
8
 73
4
 74
0
 40
0
 40
0
 40
0
 40
0
 40
1
 40
1
 40
1
 40
1
 10
52.590059
 20
19.492284
 30
0.0
 10
52.590059
 20
19.354825
 30
0.0
 10
52.590059
 20
19.217366
 30
0.0
 10
52.590059
 20
19.079907
 30
0.0
  0
SPLINE
  5
12f
100
AcDbEntity
  8
Capa_1
 62
7
100
AcDbSpline
 70
8
 71
3
 72
8
 73
4
 74
0
 40
0
 40
0
 40
0
 40
0
 40
1
 40
1
 40
1
 40
1
 10
52.590059
 20
19.079907
 30
0.0
 10
51.105379
 20
19.862102
 30
0.0
 10
49.616371
 20
20.637663
 30
0.0
 10
48.134516
 20
21.423948
 30
0.0
  0
SPLINE
  5
130
100
AcDbEntity
  8
Capa_1
 62
7
100
AcDbSpline
 70
8
 71
3
 72
8
 73
4
 74
0
 40
0
 40
0
 40
0
 40
0
 40
1
 40
1
 40
1
 40
1
 10
48.134516
 20
21.423948
 30
0.0
 10
49.617571
 20
22.207245
 30
0.0
 10
51.105178
 20
22.981953
 30
0.0
 10
52.590059
 20
23.761790
 30
0.0
  0
LWPOLYLINE
  5
131
100
AcDbEntity
  8
Capa_1
 62
7
100
AcDbPolyline
 90
2
 70
1
 10
48.140719
 20
18.896970
 30
0.0
 10
48.140719
 20
18.896970
 30
0.0
  0
SPLINE
  5
132
100
AcDbEntity
  8
Capa_1
 62
7
100
AcDbSpline
 70
8
 71
3
 72
8
 73
4
 74
0
 40
0
 40
0
 40
0
 40
0
 40
1
 40
1
 40
1
 40
1
 10
52.599361
 20
24.366406
 30
0.0
 10
52.599361
 20
24.257886
 30
0.0
 10
52.599361
 20
24.149363
 30
0.0
 10
52.599361
 20
24.040843
 30
0.0
  0
SPLINE
  5
133
100
AcDbEntity
  8
Capa_1
 62
7
100
AcDbSpline
 70
8
 71
3
 72
8
 73
4
 74
0
 40
0
 40
0
 40
0
 40
0
 40
1
 40
1
 40
1
 40
1
 10
52.599361
 20
24.040843
 30
0.0
 10
51.113148
 20
24.040843
 30
0.0
 10
49.626932
 20
24.040843
 30
0.0
 10
48.140719
 20
24.040843
 30
0.0
  0
SPLINE
  5
134
100
AcDbEntity
  8
Capa_1
 62
7
100
AcDbSpline
 70
8
 71
3
 72
8
 73
4
 74
0
 40
0
 40
0
 40
0
 40
0
 40
1
 40
1
 40
1
 40
1
 10
48.140719
 20
24.040843
 30
0.0
 10
48.140719
 20
24.149363
 30
0.0
 10
48.140719
 20
24.257886
 30
0.0
 10
48.140719
 20
24.366406
 30
0.0
  0
SPLINE
  5
135
100
AcDbEntity
  8
Capa_1
 62
7
100
AcDbSpline
 70
8
 71
3
 72
8
 73
4
 74
0
 40
0
 40
0
 40
0
 40
0
 40
1
 40
1
 40
1
 40
1
 10
48.140719
 20
24.366406
 30
0.0
 10
49.626932
 20
24.366406
 30
0.0
 10
51.113148
 20
24.366406
 30
0.0
 10
52.599361
 20
24.366406
 30
0.0
  0
LWPOLYLINE
  5
136
100
AcDbEntity
  8
Capa_1
 62
7
100
AcDbPolyline
 90
2
 70
1
 10
52.590059
 20
23.761790
 30
0.0
 10
52.590059
 20
23.761790
 30
0.0
  0
SPLINE
  5
137
100
AcDbEntity
  8
Capa_1
 62
7
100
AcDbSpline
 70
8
 71
3
 72
8
 73
4
 74
0
 40
0
 40
0
 40
0
 40
0
 40
1
 40
1
 40
1
 40
1
 10
50.971555
 20
25.358592
 30
0.0
 10
51.944104
 20
26.331144
 30
0.0
 10
52.916655
 20
27.303693
 30
0.0
 10
53.889205
 20
28.276245
 30
0.0
  0
SPLINE
  5
138
100
AcDbEntity
  8
Capa_1
 62
7
100
AcDbSpline
 70
8
 71
3
 72
8
 73
4
 74
0
 40
0
 40
0
 40
0
 40
0
 40
1
 40
1
 40
1
 40
1
 10
53.889205
 20
28.276245
 30
0.0
 10
53.889205
 20
28.123283
 30
0.0
 10
53.889205
 20
27.970319
 30
0.0
 10
53.889205
 20
27.817357
 30
0.0
  0
SPLINE
  5
139
100
AcDbEntity
  8
Capa_1
 62
7
100
AcDbSpline
 70
8
 71
3
 72
8
 73
4
 74
0
 40
0
 40
0
 40
0
 40
0
 40
1
 40
1
 40
1
 40
1
 10
53.889205
 20
27.817357
 30
0.0
 10
52.916655
 20
26.844808
 30
0.0
 10
51.944104
 20
25.872256
 30
0.0
 10
50.971555
 20
24.899707
 30
0.0
  0
SPLINE
  5
13a
100
AcDbEntity
  8
Capa_1
 62
7
100
AcDbSpline
 70
8
 71
3
 72
8
 73
4
 74
0
 40
0
 40
0
 40
0
 40
0
 40
1
 40
1
 40
1
 40
1
 10
50.971555
 20
24.899707
 30
0.0
 10
50.023807
 20
25.850553
 30
0.0
 10
49.076063
 20
26.801399
 30
0.0
 10
48.128315
 20
27.752246
 30
0.0
  0
SPLINE
  5
13b
100
AcDbEntity
  8
Capa_1
 62
7
100
AcDbSpline
 70
8
 71
3
 72
8
 73
4
 74
0
 40
0
 40
0
 40
0
 40
0
 40
1
 40
1
 40
1
 40
1
 10
48.128315
 20
27.752246
 30
0.0
 10
48.128315
 20
27.906240
 30
0.0
 10
48.128315
 20
28.060238
 30
0.0
 10
48.128315
 20
28.214232
 30
0.0
  0
SPLINE
  5
13c
100
AcDbEntity
  8
Capa_1
 62
7
100
AcDbSpline
 70
8
 71
3
 72
8
 73
4
 74
0
 40
0
 40
0
 40
0
 40
0
 40
1
 40
1
 40
1
 40
1
 10
48.128315
 20
28.214232
 30
0.0
 10
49.076063
 20
27.262353
 30
0.0
 10
50.023807
 20
26.310471
 30
0.0
 10
50.971555
 20
25.358592
 30
0.0
  0
LWPOLYLINE
  5
13d
100
AcDbEntity
  8
Capa_1
 62
7
100
AcDbPolyline
 90
2
 70
1
 10
52.599361
 20
24.366406
 30
0.0
 10
52.599361
 20
24.366406
 30
0.0
  0
SPLINE
  5
13e
100
AcDbEntity
  8
Capa_1
 62
7
100
AcDbSpline
 70
8
 71
3
 72
8
 73
4
 74
0
 40
0
 40
0
 40
0
 40
0
 40
1
 40
1
 40
1
 40
1
 10
51.318820
 20
31.829516
 30
0.0
 10
51.318820
 20
30.984088
 30
0.0
 10
51.318820
 20
30.138663
 30
0.0
 10
51.318820
 20
29.293235
 30
0.0
  0
SPLINE
  5
13f
100
AcDbEntity
  8
Capa_1
 62
7
100
AcDbSpline
 70
8
 71
3
 72
8
 73
4
 74
0
 40
0
 40
0
 40
0
 40
0
 40
1
 40
1
 40
1
 40
1
 10
51.318820
 20
29.293235
 30
0.0
 10
51.210300
 20
29.293235
 30
0.0
 10
51.101777
 20
29.293235
 30
0.0
 10
50.993257
 20
29.293235
 30
0.0
  0
SPLINE
  5
140
100
AcDbEntity
  8
Capa_1
 62
7
100
AcDbSpline
 70
8
 71
3
 72
8
 73
4
 74
0
 40
0
 40
0
 40
0
 40
0
 40
1
 40
1
 40
1
 40
1
 10
50.993257
 20
29.293235
 30
0.0
 10
50.993257
 20
30.138663
 30
0.0
 10
50.993257
 20
30.984088
 30
0.0
 10
50.993257
 20
31.829516
 30
0.0
  0
SPLINE
  5
141
100
AcDbEntity
  8
Capa_1
 62
7
100
AcDbSpline
 70
8
 71
3
 72
8
 73
4
 74
0
 40
0
 40
0
 40
0
 40
0
 40
1
 40
1
 40
1
 40
1
 10
50.993257
 20
31.829516
 30
0.0
 10
51.101777
 20
31.829516
 30
0.0
 10
51.210300
 20
31.829516
 30
0.0
 10
51.318820
 20
31.829516
 30
0.0
  0
LWPOLYLINE
  5
142
100
AcDbEntity
  8
Capa_1
 62
7
100
AcDbPolyline
 90
2
 70
1
 10
50.971555
 20
25.358592
 30
0.0
 10
50.971555
 20
25.358592
 30
0.0
  0
SPLINE
  5
143
100
AcDbEntity
  8
Capa_1
 62
7
100
AcDbSpline
 70
8
 71
3
 72
8
 73
4
 74
0
 40
0
 40
0
 40
0
 40
0
 40
1
 40
1
 40
1
 40
1
 10
48.466279
 20
31.841905
 30
0.0
 10
48.466279
 20
30.821813
 30
0.0
 10
48.466279
 20
29.801721
 30
0.0
 10
48.466279
 20
28.781629
 30
0.0
  0
SPLINE
  5
144
100
AcDbEntity
  8
Capa_1
 62
7
100
AcDbSpline
 70
8
 71
3
 72
8
 73
4
 74
0
 40
0
 40
0
 40
0
 40
0
 40
1
 40
1
 40
1
 40
1
 10
48.466279
 20
28.781629
 30
0.0
 10
49.729252
 20
28.781629
 30
0.0
 10
50.992224
 20
28.781629
 30
0.0
 10
52.255197
 20
28.781629
 30
0.0
  0
SPLINE
  5
145
100
AcDbEntity
  8
Capa_1
 62
7
100
AcDbSpline
 70
8
 71
3
 72
8
 73
4
 74
0
 40
0
 40
0
 40
0
 40
0
 40
1
 40
1
 40
1
 40
1
 10
52.255197
 20
28.781629
 30
0.0
 10
52.255197
 20
29.801721
 30
0.0
 10
52.255197
 20
30.821813
 30
0.0
 10
52.255197
 20
31.841905
 30
0.0
  0
SPLINE
  5
146
100
AcDbEntity
  8
Capa_1
 62
7
100
AcDbSpline
 70
8
 71
3
 72
8
 73
4
 74
0
 40
0
 40
0
 40
0
 40
0
 40
1
 40
1
 40
1
 40
1
 10
52.255197
 20
31.841905
 30
0.0
 10
52.364750
 20
31.841905
 30
0.0
 10
52.474306
 20
31.841905
 30
0.0
 10
52.583859
 20
31.841905
 30
0.0
  0
SPLINE
  5
147
100
AcDbEntity
  8
Capa_1
 62
7
100
AcDbSpline
 70
8
 71
3
 72
8
 73
4
 74
0
 40
0
 40
0
 40
0
 40
0
 40
1
 40
1
 40
1
 40
1
 10
52.583859
 20
31.841905
 30
0.0
 10
52.583859
 20
30.709158
 30
0.0
 10
52.583859
 20
29.576412
 30
0.0
 10
52.583859
 20
28.443665
 30
0.0
  0
SPLINE
  5
148
100
AcDbEntity
  8
Capa_1
 62
7
100
AcDbSpline
 70
8
 71
3
 72
8
 73
4
 74
0
 40
0
 40
0
 40
0
 40
0
 40
1
 40
1
 40
1
 40
1
 10
52.583859
 20
28.443665
 30
0.0
 10
51.100745
 20
28.443665
 30
0.0
 10
49.617633
 20
28.443665
 30
0.0
 10
48.134518
 20
28.443665
 30
0.0
  0
SPLINE
  5
149
100
AcDbEntity
  8
Capa_1
 62
7
100
AcDbSpline
 70
8
 71
3
 72
8
 73
4
 74
0
 40
0
 40
0
 40
0
 40
0
 40
1
 40
1
 40
1
 40
1
 10
48.134518
 20
28.443665
 30
0.0
 10
48.134518
 20
29.576412
 30
0.0
 10
48.134518
 20
30.709158
 30
0.0
 10
48.134518
 20
31.841905
 30
0.0
  0
SPLINE
  5
14a
100
AcDbEntity
  8
Capa_1
 62
7
100
AcDbSpline
 70
8
 71
3
 72
8
 73
4
 74
0
 40
0
 40
0
 40
0
 40
0
 40
1
 40
1
 40
1
 40
1
 10
48.134518
 20
31.841905
 30
0.0
 10
48.245104
 20
31.841905
 30
0.0
 10
48.355693
 20
31.841905
 30
0.0
 10
48.466279
 20
31.841905
 30
0.0
  0
LWPOLYLINE
  5
14b
100
AcDbEntity
  8
Capa_1
 62
7
100
AcDbPolyline
 90
2
 70
1
 10
51.318820
 20
31.829516
 30
0.0
 10
51.318820
 20
31.829516
 30
0.0
  0
SPLINE
  5
14c
100
AcDbEntity
  8
Capa_1
 62
7
100
AcDbSpline
 70
8
 71
3
 72
8
 73
4
 74
0
 40
0
 40
0
 40
0
 40
0
 40
1
 40
1
 40
1
 40
1
 10
49.749922
 20
35.277368
 30
0.0
 10
50.634508
 20
35.411285
 30
0.0
 10
51.194880
 20
34.476867
 30
0.0
 10
51.414900
 20
33.897920
 30
0.0
  0
SPLINE
  5
14d
100
AcDbEntity
  8
Capa_1
 62
7
100
AcDbSpline
 70
8
 71
3
 72
8
 73
4
 74
0
 40
0
 40
0
 40
0
 40
0
 40
1
 40
1
 40
1
 40
1
 10
51.414900
 20
33.897920
 30
0.0
 10
51.812972
 20
34.112758
 30
0.0
 10
52.055152
 20
34.544344
 30
0.0
 10
52.399195
 20
34.845331
 30
0.0
  0
SPLINE
  5
14e
100
AcDbEntity
  8
Capa_1
 62
7
100
AcDbSpline
 70
8
 71
3
 72
8
 73
4
 74
0
 40
0
 40
0
 40
0
 40
0
 40
1
 40
1
 40
1
 40
1
 10
52.399195
 20
34.845331
 30
0.0
 10
52.809318
 20
35.317255
 30
0.0
 10
52.523932
 20
34.247387
 30
0.0
 10
52.212994
 20
34.164504
 30
0.0
  0
SPLINE
  5
14f
100
AcDbEntity
  8
Capa_1
 62
7
100
AcDbSpline
 70
8
 71
3
 72
8
 73
4
 74
0
 40
0
 40
0
 40
0
 40
0
 40
1
 40
1
 40
1
 40
1
 10
52.212994
 20
34.164504
 30
0.0
 10
51.813325
 20
33.770996
 30
0.0
 10
51.431461
 20
33.359725
 30
0.0
 10
51.033564
 20
32.964345
 30
0.0
  0
SPLINE
  5
150
100
AcDbEntity
  8
Capa_1
 62
7
100
AcDbSpline
 70
8
 71
3
 72
8
 73
4
 74
0
 40
0
 40
0
 40
0
 40
0
 40
1
 40
1
 40
1
 40
1
 10
51.033564
 20
32.964345
 30
0.0
 10
51.155846
 20
33.777888
 30
0.0
 10
50.870835
 20
34.913059
 30
0.0
 10
49.876428
 20
34.950978
 30
0.0
  0
SPLINE
  5
151
100
AcDbEntity
  8
Capa_1
 62
7
100
AcDbSpline
 70
8
 71
3
 72
8
 73
4
 74
0
 40
0
 40
0
 40
0
 40
0
 40
1
 40
1
 40
1
 40
1
 10
49.876428
 20
34.950978
 30
0.0
 10
48.998412
 20
35.058505
 30
0.0
 10
48.393720
 20
34.239550
 30
0.0
 10
48.461727
 20
33.427941
 30
0.0
  0
SPLINE
  5
152
100
AcDbEntity
  8
Capa_1
 62
7
100
AcDbSpline
 70
8
 71
3
 72
8
 73
4
 74
0
 40
0
 40
0
 40
0
 40
0
 40
1
 40
1
 40
1
 40
1
 10
48.461727
 20
33.427941
 30
0.0
 10
48.324177
 20
33.007661
 30
0.0
 10
48.468698
 20
32.372235
 30
0.0
 10
49.015715
 20
32.514760
 30
0.0
  0
SPLINE
  5
153
100
AcDbEntity
  8
Capa_1
 62
7
100
AcDbSpline
 70
8
 71
3
 72
8
 73
4
 74
0
 40
0
 40
0
 40
0
 40
0
 40
1
 40
1
 40
1
 40
1
 10
49.015715
 20
32.514760
 30
0.0
 10
50.205093
 20
32.514760
 30
0.0
 10
51.394467
 20
32.514760
 30
0.0
 10
52.583842
 20
32.514760
 30
0.0
  0
SPLINE
  5
154
100
AcDbEntity
  8
Capa_1
 62
7
100
AcDbSpline
 70
8
 71
3
 72
8
 73
4
 74
0
 40
0
 40
0
 40
0
 40
0
 40
1
 40
1
 40
1
 40
1
 10
52.583842
 20
32.514760
 30
0.0
 10
52.615502
 20
31.943375
 30
0.0
 10
51.816121
 20
32.258536
 30
0.0
 10
51.426093
 20
32.189197
 30
0.0
  0
SPLINE
  5
155
100
AcDbEntity
  8
Capa_1
 62
7
100
AcDbSpline
 70
8
 71
3
 72
8
 73
4
 74
0
 40
0
 40
0
 40
0
 40
0
 40
1
 40
1
 40
1
 40
1
 10
51.426093
 20
32.189197
 30
0.0
 10
50.331997
 20
32.189197
 30
0.0
 10
49.237900
 20
32.189197
 30
0.0
 10
48.143804
 20
32.189197
 30
0.0
  0
SPLINE
  5
156
100
AcDbEntity
  8
Capa_1
 62
7
100
AcDbSpline
 70
8
 71
3
 72
8
 73
4
 74
0
 40
0
 40
0
 40
0
 40
0
 40
1
 40
1
 40
1
 40
1
 10
48.143804
 20
32.189197
 30
0.0
 10
48.186888
 20
33.086240
 30
0.0
 10
47.941817
 20
34.154609
 30
0.0
 10
48.648214
 20
34.864689
 30
0.0
  0
SPLINE
  5
157
100
AcDbEntity
  8
Capa_1
 62
7
100
AcDbSpline
 70
8
 71
3
 72
8
 73
4
 74
0
 40
0
 40
0
 40
0
 40
0
 40
1
 40
1
 40
1
 40
1
 10
48.648214
 20
34.864689
 30
0.0
 10
48.937040
 20
35.146536
 30
0.0
 10
49.346129
 20
35.304230
 30
0.0
 10
49.749922
 20
35.277368
 30
0.0
  0
LWPOLYLINE
  5
158
100
AcDbEntity
  8
Capa_1
 62
7
100
AcDbPolyline
 90
2
 70
1
 10
48.466279
 20
31.841905
 30
0.0
 10
48.466279
 20
31.841905
 30
0.0
  0
SPLINE
  5
159
100
AcDbEntity
  8
Capa_1
 62
7
100
AcDbSpline
 70
8
 71
3
 72
8
 73
4
 74
0
 40
0
 40
0
 40
0
 40
0
 40
1
 40
1
 40
1
 40
1
 10
52.072261
 20
35.906786
 30
0.0
 10
52.072261
 20
35.983268
 30
0.0
 10
52.100166
 20
36.048380
 30
0.0
 10
52.155976
 20
36.102123
 30
0.0
  0
SPLINE
  5
15a
100
AcDbEntity
  8
Capa_1
 62
7
100
AcDbSpline
 70
8
 71
3
 72
8
 73
4
 74
0
 40
0
 40
0
 40
0
 40
0
 40
1
 40
1
 40
1
 40
1
 10
52.155976
 20
36.102123
 30
0.0
 10
52.209721
 20
36.157933
 30
0.0
 10
52.275867
 20
36.185839
 30
0.0
 10
52.354415
 20
36.185839
 30
0.0
  0
SPLINE
  5
15b
100
AcDbEntity
  8
Capa_1
 62
7
100
AcDbSpline
 70
8
 71
3
 72
8
 73
4
 74
0
 40
0
 40
0
 40
0
 40
0
 40
1
 40
1
 40
1
 40
1
 10
52.354415
 20
36.185839
 30
0.0
 10
52.430896
 20
36.185839
 30
0.0
 10
52.497041
 20
36.157933
 30
0.0
 10
52.552851
 20
36.102123
 30
0.0
  0
SPLINE
  5
15c
100
AcDbEntity
  8
Capa_1
 62
7
100
AcDbSpline
 70
8
 71
3
 72
8
 73
4
 74
0
 40
0
 40
0
 40
0
 40
0
 40
1
 40
1
 40
1
 40
1
 10
52.552851
 20
36.102123
 30
0.0
 10
52.606596
 20
36.048380
 30
0.0
 10
52.633468
 20
35.983268
 30
0.0
 10
52.633468
 20
35.906786
 30
0.0
  0
SPLINE
  5
15d
100
AcDbEntity
  8
Capa_1
 62
7
100
AcDbSpline
 70
8
 71
3
 72
8
 73
4
 74
0
 40
0
 40
0
 40
0
 40
0
 40
1
 40
1
 40
1
 40
1
 10
52.633468
 20
35.906786
 30
0.0
 10
52.633468
 20
35.828238
 30
0.0
 10
52.606596
 20
35.761058
 30
0.0
 10
52.552851
 20
35.705248
 30
0.0
  0
SPLINE
  5
15e
100
AcDbEntity
  8
Capa_1
 62
7
100
AcDbSpline
 70
8
 71
3
 72
8
 73
4
 74
0
 40
0
 40
0
 40
0
 40
0
 40
1
 40
1
 40
1
 40
1
 10
52.552851
 20
35.705248
 30
0.0
 10
52.497041
 20
35.651505
 30
0.0
 10
52.430896
 20
35.624634
 30
0.0
 10
52.354415
 20
35.624634
 30
0.0
  0
SPLINE
  5
15f
100
AcDbEntity
  8
Capa_1
 62
7
100
AcDbSpline
 70
8
 71
3
 72
8
 73
4
 74
0
 40
0
 40
0
 40
0
 40
0
 40
1
 40
1
 40
1
 40
1
 10
52.354415
 20
35.624634
 30
0.0
 10
52.275867
 20
35.624634
 30
0.0
 10
52.209721
 20
35.651505
 30
0.0
 10
52.155976
 20
35.705248
 30
0.0
  0
SPLINE
  5
160
100
AcDbEntity
  8
Capa_1
 62
7
100
AcDbSpline
 70
8
 71
3
 72
8
 73
4
 74
0
 40
0
 40
0
 40
0
 40
0
 40
1
 40
1
 40
1
 40
1
 10
52.155976
 20
35.705248
 30
0.0
 10
52.100166
 20
35.761058
 30
0.0
 10
52.072261
 20
35.828238
 30
0.0
 10
52.072261
 20
35.906786
 30
0.0
  0
LWPOLYLINE
  5
161
100
AcDbEntity
  8
Capa_1
 62
7
100
AcDbPolyline
 90
2
 70
1
 10
49.749922
 20
35.277368
 30
0.0
 10
49.749922
 20
35.277368
 30
0.0
  0
SPLINE
  5
162
100
AcDbEntity
  8
Capa_1
 62
7
100
AcDbSpline
 70
8
 71
3
 72
8
 73
4
 74
0
 40
0
 40
0
 40
0
 40
0
 40
1
 40
1
 40
1
 40
1
 10
48.140719
 20
40.548362
 30
0.0
 10
49.621765
 20
40.548362
 30
0.0
 10
51.102813
 20
40.548362
 30
0.0
 10
52.583859
 20
40.548362
 30
0.0
  0
SPLINE
  5
163
100
AcDbEntity
  8
Capa_1
 62
7
100
AcDbSpline
 70
8
 71
3
 72
8
 73
4
 74
0
 40
0
 40
0
 40
0
 40
0
 40
1
 40
1
 40
1
 40
1
 10
52.583859
 20
40.548362
 30
0.0
 10
51.367826
 20
39.313936
 30
0.0
 10
50.144141
 20
38.087079
 30
0.0
 10
48.925167
 20
36.855560
 30
0.0
  0
SPLINE
  5
164
100
AcDbEntity
  8
Capa_1
 62
7
100
AcDbSpline
 70
8
 71
3
 72
8
 73
4
 74
0
 40
0
 40
0
 40
0
 40
0
 40
1
 40
1
 40
1
 40
1
 10
48.925167
 20
36.855560
 30
0.0
 10
50.144731
 20
36.855560
 30
0.0
 10
51.364295
 20
36.855560
 30
0.0
 10
52.583859
 20
36.855560
 30
0.0
  0
SPLINE
  5
165
100
AcDbEntity
  8
Capa_1
 62
7
100
AcDbSpline
 70
8
 71
3
 72
8
 73
4
 74
0
 40
0
 40
0
 40
0
 40
0
 40
1
 40
1
 40
1
 40
1
 10
52.583859
 20
36.855560
 30
0.0
 10
52.583859
 20
36.747040
 30
0.0
 10
52.583859
 20
36.638517
 30
0.0
 10
52.583859
 20
36.529997
 30
0.0
  0
SPLINE
  5
166
100
AcDbEntity
  8
Capa_1
 62
7
100
AcDbSpline
 70
8
 71
3
 72
8
 73
4
 74
0
 40
0
 40
0
 40
0
 40
0
 40
1
 40
1
 40
1
 40
1
 10
52.583859
 20
36.529997
 30
0.0
 10
51.102813
 20
36.529997
 30
0.0
 10
49.621765
 20
36.529997
 30
0.0
 10
48.140719
 20
36.529997
 30
0.0
  0
SPLINE
  5
167
100
AcDbEntity
  8
Capa_1
 62
7
100
AcDbSpline
 70
8
 71
3
 72
8
 73
4
 74
0
 40
0
 40
0
 40
0
 40
0
 40
1
 40
1
 40
1
 40
1
 10
48.140719
 20
36.529997
 30
0.0
 10
49.364945
 20
37.758353
 30
0.0
 10
50.583617
 20
38.992225
 30
0.0
 10
51.805611
 20
40.222796
 30
0.0
  0
SPLINE
  5
168
100
AcDbEntity
  8
Capa_1
 62
7
100
AcDbSpline
 70
8
 71
3
 72
8
 73
4
 74
0
 40
0
 40
0
 40
0
 40
0
 40
1
 40
1
 40
1
 40
1
 10
51.805611
 20
40.222796
 30
0.0
 10
50.583982
 20
40.222796
 30
0.0
 10
49.362349
 20
40.222796
 30
0.0
 10
48.140719
 20
40.222796
 30
0.0
  0
SPLINE
  5
169
100
AcDbEntity
  8
Capa_1
 62
7
100
AcDbSpline
 70
8
 71
3
 72
8
 73
4
 74
0
 40
0
 40
0
 40
0
 40
0
 40
1
 40
1
 40
1
 40
1
 10
48.140719
 20
40.222796
 30
0.0
 10
48.140719
 20
40.331319
 30
0.0
 10
48.140719
 20
40.439839
 30
0.0
 10
48.140719
 20
40.548362
 30
0.0
  0
LWPOLYLINE
  5
16a
100
AcDbEntity
  8
Capa_1
 62
7
100
AcDbPolyline
 90
2
 70
1
 10
52.072261
 20
35.906786
 30
0.0
 10
52.072261
 20
35.906786
 30
0.0
  0
SPLINE
  5
16b
100
AcDbEntity
  8
Capa_1
 62
7
100
AcDbSpline
 70
8
 71
3
 72
8
 73
4
 74
0
 40
0
 40
0
 40
0
 40
0
 40
1
 40
1
 40
1
 40
1
 10
51.318820
 20
44.442698
 30
0.0
 10
51.318820
 20
43.597274
 30
0.0
 10
51.318820
 20
42.751846
 30
0.0
 10
51.318820
 20
41.906421
 30
0.0
  0
SPLINE
  5
16c
100
AcDbEntity
  8
Capa_1
 62
7
100
AcDbSpline
 70
8
 71
3
 72
8
 73
4
 74
0
 40
0
 40
0
 40
0
 40
0
 40
1
 40
1
 40
1
 40
1
 10
51.318820
 20
41.906421
 30
0.0
 10
51.210300
 20
41.906421
 30
0.0
 10
51.101777
 20
41.906421
 30
0.0
 10
50.993257
 20
41.906421
 30
0.0
  0
SPLINE
  5
16d
100
AcDbEntity
  8
Capa_1
 62
7
100
AcDbSpline
 70
8
 71
3
 72
8
 73
4
 74
0
 40
0
 40
0
 40
0
 40
0
 40
1
 40
1
 40
1
 40
1
 10
50.993257
 20
41.906421
 30
0.0
 10
50.993257
 20
42.751846
 30
0.0
 10
50.993257
 20
43.597274
 30
0.0
 10
50.993257
 20
44.442698
 30
0.0
  0
SPLINE
  5
16e
100
AcDbEntity
  8
Capa_1
 62
7
100
AcDbSpline
 70
8
 71
3
 72
8
 73
4
 74
0
 40
0
 40
0
 40
0
 40
0
 40
1
 40
1
 40
1
 40
1
 10
50.993257
 20
44.442698
 30
0.0
 10
51.101777
 20
44.442698
 30
0.0
 10
51.210300
 20
44.442698
 30
0.0
 10
51.318820
 20
44.442698
 30
0.0
  0
LWPOLYLINE
  5
16f
100
AcDbEntity
  8
Capa_1
 62
7
100
AcDbPolyline
 90
2
 70
1
 10
48.140719
 20
40.548362
 30
0.0
 10
48.140719
 20
40.548362
 30
0.0
  0
SPLINE
  5
170
100
AcDbEntity
  8
Capa_1
 62
7
100
AcDbSpline
 70
8
 71
3
 72
8
 73
4
 74
0
 40
0
 40
0
 40
0
 40
0
 40
1
 40
1
 40
1
 40
1
 10
48.466279
 20
44.455088
 30
0.0
 10
48.466279
 20
43.434996
 30
0.0
 10
48.466279
 20
42.414901
 30
0.0
 10
48.466279
 20
41.394809
 30
0.0
  0
SPLINE
  5
171
100
AcDbEntity
  8
Capa_1
 62
7
100
AcDbSpline
 70
8
 71
3
 72
8
 73
4
 74
0
 40
0
 40
0
 40
0
 40
0
 40
1
 40
1
 40
1
 40
1
 10
48.466279
 20
41.394809
 30
0.0
 10
49.729252
 20
41.394809
 30
0.0
 10
50.992224
 20
41.394809
 30
0.0
 10
52.255197
 20
41.394809
 30
0.0
  0
SPLINE
  5
172
100
AcDbEntity
  8
Capa_1
 62
7
100
AcDbSpline
 70
8
 71
3
 72
8
 73
4
 74
0
 40
0
 40
0
 40
0
 40
0
 40
1
 40
1
 40
1
 40
1
 10
52.255197
 20
41.394809
 30
0.0
 10
52.255197
 20
42.414901
 30
0.0
 10
52.255197
 20
43.434996
 30
0.0
 10
52.255197
 20
44.455088
 30
0.0
  0
SPLINE
  5
173
100
AcDbEntity
  8
Capa_1
 62
7
100
AcDbSpline
 70
8
 71
3
 72
8
 73
4
 74
0
 40
0
 40
0
 40
0
 40
0
 40
1
 40
1
 40
1
 40
1
 10
52.255197
 20
44.455088
 30
0.0
 10
52.364750
 20
44.455088
 30
0.0
 10
52.474306
 20
44.455088
 30
0.0
 10
52.583859
 20
44.455088
 30
0.0
  0
SPLINE
  5
174
100
AcDbEntity
  8
Capa_1
 62
7
100
AcDbSpline
 70
8
 71
3
 72
8
 73
4
 74
0
 40
0
 40
0
 40
0
 40
0
 40
1
 40
1
 40
1
 40
1
 10
52.583859
 20
44.455088
 30
0.0
 10
52.583859
 20
43.322341
 30
0.0
 10
52.583859
 20
42.189591
 30
0.0
 10
52.583859
 20
41.056845
 30
0.0
  0
SPLINE
  5
175
100
AcDbEntity
  8
Capa_1
 62
7
100
AcDbSpline
 70
8
 71
3
 72
8
 73
4
 74
0
 40
0
 40
0
 40
0
 40
0
 40
1
 40
1
 40
1
 40
1
 10
52.583859
 20
41.056845
 30
0.0
 10
51.100745
 20
41.056845
 30
0.0
 10
49.617633
 20
41.056845
 30
0.0
 10
48.134518
 20
41.056845
 30
0.0
  0
SPLINE
  5
176
100
AcDbEntity
  8
Capa_1
 62
7
100
AcDbSpline
 70
8
 71
3
 72
8
 73
4
 74
0
 40
0
 40
0
 40
0
 40
0
 40
1
 40
1
 40
1
 40
1
 10
48.134518
 20
41.056845
 30
0.0
 10
48.134518
 20
42.189591
 30
0.0
 10
48.134518
 20
43.322341
 30
0.0
 10
48.134518
 20
44.455088
 30
0.0
  0
SPLINE
  5
177
100
AcDbEntity
  8
Capa_1
 62
7
100
AcDbSpline
 70
8
 71
3
 72
8
 73
4
 74
0
 40
0
 40
0
 40
0
 40
0
 40
1
 40
1
 40
1
 40
1
 10
48.134518
 20
44.455088
 30
0.0
 10
48.245104
 20
44.455088
 30
0.0
 10
48.355693
 20
44.455088
 30
0.0
 10
48.466279
 20
44.455088
 30
0.0
  0
LWPOLYLINE
  5
178
100
AcDbEntity
  8
Capa_1
 62
7
100
AcDbPolyline
 90
2
 70
1
 10
51.318820
 20
44.442698
 30
0.0
 10
51.318820
 20
44.442698
 30
0.0
  0
SPLINE
  5
179
100
AcDbEntity
  8
Capa_1
 62
7
100
AcDbSpline
 70
8
 71
3
 72
8
 73
4
 74
0
 40
0
 40
0
 40
0
 40
0
 40
1
 40
1
 40
1
 40
1
 10
48.469381
 20
47.974267
 30
0.0
 10
48.469381
 20
47.469904
 30
0.0
 10
48.469381
 20
46.965542
 30
0.0
 10
48.469381
 20
46.461180
 30
0.0
  0
SPLINE
  5
17a
100
AcDbEntity
  8
Capa_1
 62
7
100
AcDbSpline
 70
8
 71
3
 72
8
 73
4
 74
0
 40
0
 40
0
 40
0
 40
0
 40
1
 40
1
 40
1
 40
1
 10
48.469381
 20
46.461180
 30
0.0
 10
49.840874
 20
46.461180
 30
0.0
 10
51.212366
 20
46.461180
 30
0.0
 10
52.583859
 20
46.461180
 30
0.0
  0
SPLINE
  5
17b
100
AcDbEntity
  8
Capa_1
 62
7
100
AcDbSpline
 70
8
 71
3
 72
8
 73
4
 74
0
 40
0
 40
0
 40
0
 40
0
 40
1
 40
1
 40
1
 40
1
 10
52.583859
 20
46.461180
 30
0.0
 10
52.550647
 20
46.356222
 30
0.0
 10
52.665277
 20
46.103421
 30
0.0
 10
52.494908
 20
46.135620
 30
0.0
  0
SPLINE
  5
17c
100
AcDbEntity
  8
Capa_1
 62
7
100
AcDbSpline
 70
8
 71
3
 72
8
 73
4
 74
0
 40
0
 40
0
 40
0
 40
0
 40
1
 40
1
 40
1
 40
1
 10
52.494908
 20
46.135620
 30
0.0
 10
51.153066
 20
46.135620
 30
0.0
 10
49.811223
 20
46.135620
 30
0.0
 10
48.469381
 20
46.135620
 30
0.0
  0
SPLINE
  5
17d
100
AcDbEntity
  8
Capa_1
 62
7
100
AcDbSpline
 70
8
 71
3
 72
8
 73
4
 74
0
 40
0
 40
0
 40
0
 40
0
 40
1
 40
1
 40
1
 40
1
 10
48.469381
 20
46.135620
 30
0.0
 10
48.469381
 20
45.633323
 30
0.0
 10
48.469381
 20
45.131030
 30
0.0
 10
48.469381
 20
44.628734
 30
0.0
  0
SPLINE
  5
17e
100
AcDbEntity
  8
Capa_1
 62
7
100
AcDbSpline
 70
8
 71
3
 72
8
 73
4
 74
0
 40
0
 40
0
 40
0
 40
0
 40
1
 40
1
 40
1
 40
1
 10
48.469381
 20
44.628734
 30
0.0
 10
48.364422
 20
44.661946
 30
0.0
 10
48.111622
 20
44.547315
 30
0.0
 10
48.143820
 20
44.717685
 30
0.0
  0
SPLINE
  5
17f
100
AcDbEntity
  8
Capa_1
 62
7
100
AcDbSpline
 70
8
 71
3
 72
8
 73
4
 74
0
 40
0
 40
0
 40
0
 40
0
 40
1
 40
1
 40
1
 40
1
 10
48.143820
 20
44.717685
 30
0.0
 10
48.143820
 20
45.803210
 30
0.0
 10
48.143820
 20
46.888738
 30
0.0
 10
48.143820
 20
47.974267
 30
0.0
  0
SPLINE
  5
180
100
AcDbEntity
  8
Capa_1
 62
7
100
AcDbSpline
 70
8
 71
3
 72
8
 73
4
 74
0
 40
0
 40
0
 40
0
 40
0
 40
1
 40
1
 40
1
 40
1
 10
48.143820
 20
47.974267
 30
0.0
 10
48.252341
 20
47.974267
 30
0.0
 10
48.360861
 20
47.974267
 30
0.0
 10
48.469381
 20
47.974267
 30
0.0
  0
LWPOLYLINE
  5
181
100
AcDbEntity
  8
Capa_1
 62
7
100
AcDbPolyline
 90
2
 70
1
 10
48.466279
 20
44.455088
 30
0.0
 10
48.466279
 20
44.455088
 30
0.0
  0
SPLINE
  5
182
100
AcDbEntity
  8
Capa_1
 62
1
100
AcDbSpline
 70
8
 71
3
 72
8
 73
4
 74
0
 40
0
 40
0
 40
0
 40
0
 40
1
 40
1
 40
1
 40
1
 10
0.127000
 20
79.365302
 30
0.0
 10
0.127000
 20
52.952535
 30
0.0
 10
0.127000
 20
26.539770
 30
0.0
 10
0.127000
 20
0.127004
 30
0.0
  0
SPLINE
  5
183
100
AcDbEntity
  8
Capa_1
 62
1
100
AcDbSpline
 70
8
 71
3
 72
8
 73
4
 74
0
 40
0
 40
0
 40
0
 40
0
 40
1
 40
1
 40
1
 40
1
 10
0.127000
 20
0.127004
 30
0.0
 10
13.206603
 20
0.127004
 30
0.0
 10
26.286207
 20
0.127004
 30
0.0
 10
39.365810
 20
0.127004
 30
0.0
  0
SPLINE
  5
184
100
AcDbEntity
  8
Capa_1
 62
1
100
AcDbSpline
 70
8
 71
3
 72
8
 73
4
 74
0
 40
0
 40
0
 40
0
 40
0
 40
1
 40
1
 40
1
 40
1
 10
39.365810
 20
0.127004
 30
0.0
 10
39.365810
 20
19.364969
 30
0.0
 10
39.365810
 20
38.602932
 30
0.0
 10
39.365810
 20
57.840898
 30
0.0
  0
SPLINE
  5
185
100
AcDbEntity
  8
Capa_1
 62
1
100
AcDbSpline
 70
8
 71
3
 72
8
 73
4
 74
0
 40
0
 40
0
 40
0
 40
0
 40
1
 40
1
 40
1
 40
1
 10
39.365810
 20
57.840898
 30
0.0
 10
31.310349
 20
57.840898
 30
0.0
 10
23.254892
 20
57.840898
 30
0.0
 10
15.199431
 20
57.840898
 30
0.0
  0
SPLINE
  5
186
100
AcDbEntity
  8
Capa_1
 62
1
100
AcDbSpline
 70
8
 71
3
 72
8
 73
4
 74
0
 40
0
 40
0
 40
0
 40
0
 40
1
 40
1
 40
1
 40
1
 10
15.199431
 20
57.840898
 30
0.0
 10
15.199431
 20
61.079471
 30
0.0
 10
15.199431
 20
64.318044
 30
0.0
 10
15.199431
 20
67.556617
 30
0.0
  0
SPLINE
  5
187
100
AcDbEntity
  8
Capa_1
 62
1
100
AcDbSpline
 70
8
 71
3
 72
8
 73
4
 74
0
 40
0
 40
0
 40
0
 40
0
 40
1
 40
1
 40
1
 40
1
 10
15.199431
 20
67.556617
 30
0.0
 10
23.254892
 20
67.556617
 30
0.0
 10
31.310349
 20
67.556617
 30
0.0
 10
39.365810
 20
67.556617
 30
0.0
  0
SPLINE
  5
188
100
AcDbEntity
  8
Capa_1
 62
1
100
AcDbSpline
 70
8
 71
3
 72
8
 73
4
 74
0
 40
0
 40
0
 40
0
 40
0
 40
1
 40
1
 40
1
 40
1
 10
39.365810
 20
67.556617
 30
0.0
 10
39.365810
 20
71.492846
 30
0.0
 10
39.365810
 20
75.429074
 30
0.0
 10
39.365810
 20
79.365302
 30
0.0
  0
SPLINE
  5
189
100
AcDbEntity
  8
Capa_1
 62
1
100
AcDbSpline
 70
8
 71
3
 72
8
 73
4
 74
0
 40
0
 40
0
 40
0
 40
0
 40
1
 40
1
 40
1
 40
1
 10
39.365810
 20
79.365302
 30
0.0
 10
26.286207
 20
79.365302
 30
0.0
 10
13.206603
 20
79.365302
 30
0.0
 10
0.127000
 20
79.365302
 30
0.0
  0
LWPOLYLINE
  5
18a
100
AcDbEntity
  8
Capa_1
 62
7
100
AcDbPolyline
 90
2
 70
1
 10
48.469381
 20
47.974267
 30
0.0
 10
48.469381
 20
47.974267
 30
0.0
  0
SPLINE
  5
18b
100
AcDbEntity
  8
Capa_1
 62
5
100
AcDbSpline
 70
8
 71
3
 72
8
 73
4
 74
0
 40
0
 40
0
 40
0
 40
0
 40
1
 40
1
 40
1
 40
1
 10
10.570821
 20
13.774704
 30
0.0
 10
12.495192
 20
12.088588
 30
0.0
 10
13.252388
 20
11.680983
 30
0.0
 10
14.859422
 20
11.318839
 30
0.0
  0
SPLINE
  5
18c
100
AcDbEntity
  8
Capa_1
 62
5
100
AcDbSpline
 70
8
 71
3
 72
8
 73
4
 74
0
 40
0
 40
0
 40
0
 40
0
 40
1
 40
1
 40
1
 40
1
 10
14.859422
 20
11.318839
 30
0.0
 10
16.180401
 20
11.021156
 30
0.0
 10
17.672017
 20
11.081252
 30
0.0
 10
18.909771
 20
11.630403
 30
0.0
  0
SPLINE
  5
18d
100
AcDbEntity
  8
Capa_1
 62
5
100
AcDbSpline
 70
8
 71
3
 72
8
 73
4
 74
0
 40
0
 40
0
 40
0
 40
0
 40
1
 40
1
 40
1
 40
1
 10
18.909771
 20
11.630403
 30
0.0
 10
20.078990
 20
12.149146
 30
0.0
 10
21.150156
 20
13.112506
 30
0.0
 10
21.695529
 20
14.269543
 30
0.0
  0
SPLINE
  5
18e
100
AcDbEntity
  8
Capa_1
 62
5
100
AcDbSpline
 70
8
 71
3
 72
8
 73
4
 74
0
 40
0
 40
0
 40
0
 40
0
 40
1
 40
1
 40
1
 40
1
 10
21.695529
 20
14.269543
 30
0.0
 10
22.494446
 20
15.964482
 30
0.0
 10
22.080405
 20
19.877717
 30
0.0
 10
22.080405
 20
19.877717
 30
0.0
  0
SPLINE
  5
18f
100
AcDbEntity
  8
Capa_1
 62
5
100
AcDbSpline
 70
8
 71
3
 72
8
 73
4
 74
0
 40
0
 40
0
 40
0
 40
0
 40
1
 40
1
 40
1
 40
1
 10
10.662456
 20
13.701396
 30
0.0
 10
10.662456
 20
13.701396
 30
0.0
 10
15.207981
 20
11.918257
 30
0.0
 10
17.205326
 20
12.840009
 30
0.0
  0
SPLINE
  5
190
100
AcDbEntity
  8
Capa_1
 62
5
100
AcDbSpline
 70
8
 71
3
 72
8
 73
4
 74
0
 40
0
 40
0
 40
0
 40
0
 40
1
 40
1
 40
1
 40
1
 10
17.205326
 20
12.840009
 30
0.0
 10
18.163856
 20
13.282359
 30
0.0
 10
18.749491
 20
14.457018
 30
0.0
 10
18.928098
 20
15.497477
 30
0.0
  0
SPLINE
  5
191
100
AcDbEntity
  8
Capa_1
 62
5
100
AcDbSpline
 70
8
 71
3
 72
8
 73
4
 74
0
 40
0
 40
0
 40
0
 40
0
 40
1
 40
1
 40
1
 40
1
 10
18.928098
 20
15.497477
 30
0.0
 10
19.132164
 20
16.686234
 30
0.0
 10
19.060038
 20
18.306286
 30
0.0
 10
18.085039
 20
19.016332
 30
0.0
  0
SPLINE
  5
192
100
AcDbEntity
  8
Capa_1
 62
5
100
AcDbSpline
 70
8
 71
3
 72
8
 73
4
 74
0
 40
0
 40
0
 40
0
 40
0
 40
1
 40
1
 40
1
 40
1
 10
18.085039
 20
19.016332
 30
0.0
 10
17.247990
 20
19.625914
 30
0.0
 10
14.987714
 20
18.778076
 30
0.0
 10
14.987714
 20
18.778076
 30
0.0
  0
LWPOLYLINE
  5
193
100
AcDbEntity
  8
Capa_1
 62
1
100
AcDbPolyline
 90
2
 70
1
 10
0.127000
 20
79.365302
 30
0.0
 10
0.127000
 20
79.365302
 30
0.0
  0
SPLINE
  5
194
100
AcDbEntity
  8
Capa_1
 62
5
100
AcDbSpline
 70
8
 71
3
 72
8
 73
4
 74
0
 40
0
 40
0
 40
0
 40
0
 40
1
 40
1
 40
1
 40
1
 10
10.534166
 20
13.701396
 30
0.0
 10
10.534166
 20
13.701396
 30
0.0
 10
6.812004
 20
10.688984
 30
0.0
 10
5.640759
 20
8.661371
 30
0.0
  0
SPLINE
  5
195
100
AcDbEntity
  8
Capa_1
 62
5
100
AcDbSpline
 70
8
 71
3
 72
8
 73
4
 74
0
 40
0
 40
0
 40
0
 40
0
 40
1
 40
1
 40
1
 40
1
 10
5.640759
 20
8.661371
 30
0.0
 10
5.316720
 20
8.100409
 30
0.0
 10
5.017628
 20
6.773651
 30
0.0
 10
5.017628
 20
6.773651
 30
0.0
  0
SPLINE
  5
196
100
AcDbEntity
  8
Capa_1
 62
5
100
AcDbSpline
 70
8
 71
3
 72
8
 73
4
 74
0
 40
0
 40
0
 40
0
 40
0
 40
1
 40
1
 40
1
 40
1
 10
5.925898
 20
6.828633
 30
0.0
 10
5.925898
 20
6.828633
 30
0.0
 10
5.041454
 20
8.379646
 30
0.0
 10
4.807929
 20
9.247846
 30
0.0
  0
SPLINE
  5
197
100
AcDbEntity
  8
Capa_1
 62
5
100
AcDbSpline
 70
8
 71
3
 72
8
 73
4
 74
0
 40
0
 40
0
 40
0
 40
0
 40
1
 40
1
 40
1
 40
1
 10
4.807929
 20
9.247846
 30
0.0
 10
4.616852
 20
9.958232
 30
0.0
 10
4.371628
 20
10.756379
 30
0.0
 10
4.624655
 20
11.447130
 30
0.0
  0
SPLINE
  5
198
100
AcDbEntity
  8
Capa_1
 62
5
100
AcDbSpline
 70
8
 71
3
 72
8
 73
4
 74
0
 40
0
 40
0
 40
0
 40
0
 40
1
 40
1
 40
1
 40
1
 10
4.624655
 20
11.447130
 30
0.0
 10
4.996112
 20
12.461187
 30
0.0
 10
5.919493
 20
13.320784
 30
0.0
 10
6.915576
 20
13.738051
 30
0.0
  0
SPLINE
  5
199
100
AcDbEntity
  8
Capa_1
 62
5
100
AcDbSpline
 70
8
 71
3
 72
8
 73
4
 74
0
 40
0
 40
0
 40
0
 40
0
 40
1
 40
1
 40
1
 40
1
 10
6.915576
 20
13.738051
 30
0.0
 10
8.324295
 20
14.328173
 30
0.0
 10
11.497416
 20
13.774704
 30
0.0
 10
11.497416
 20
13.774704
 30
0.0
  0
SPLINE
  5
19a
100
AcDbEntity
  8
Capa_1
 62
5
100
AcDbSpline
 70
8
 71
3
 72
8
 73
4
 74
0
 40
0
 40
0
 40
0
 40
0
 40
1
 40
1
 40
1
 40
1
 10
11.497416
 20
13.774704
 30
0.0
 10
11.497416
 20
13.774704
 30
0.0
 10
14.187218
 20
16.164692
 30
0.0
 10
14.924634
 20
17.751743
 30
0.0
  0
SPLINE
  5
19b
100
AcDbEntity
  8
Capa_1
 62
5
100
AcDbSpline
 70
8
 71
3
 72
8
 73
4
 74
0
 40
0
 40
0
 40
0
 40
0
 40
1
 40
1
 40
1
 40
1
 10
14.924634
 20
17.751743
 30
0.0
 10
15.446034
 20
18.873890
 30
0.0
 10
15.361403
 20
20.188941
 30
0.0
 10
15.511110
 20
21.417216
 30
0.0
  0
SPLINE
  5
19c
100
AcDbEntity
  8
Capa_1
 62
5
100
AcDbSpline
 70
8
 71
3
 72
8
 73
4
 74
0
 40
0
 40
0
 40
0
 40
0
 40
1
 40
1
 40
1
 40
1
 10
15.511110
 20
21.417216
 30
0.0
 10
15.828575
 20
24.021878
 30
0.0
 10
15.226002
 20
26.813425
 30
0.0
 10
16.170895
 20
29.261327
 30
0.0
  0
SPLINE
  5
19d
100
AcDbEntity
  8
Capa_1
 62
5
100
AcDbSpline
 70
8
 71
3
 72
8
 73
4
 74
0
 40
0
 40
0
 40
0
 40
0
 40
1
 40
1
 40
1
 40
1
 10
16.170895
 20
29.261327
 30
0.0
 10
16.830022
 20
30.968904
 30
0.0
 10
17.922840
 20
32.705437
 30
0.0
 10
19.506475
 20
33.623240
 30
0.0
  0
SPLINE
  5
19e
100
AcDbEntity
  8
Capa_1
 62
5
100
AcDbSpline
 70
8
 71
3
 72
8
 73
4
 74
0
 40
0
 40
0
 40
0
 40
0
 40
1
 40
1
 40
1
 40
1
 10
19.506475
 20
33.623240
 30
0.0
 10
20.626274
 20
34.272226
 30
0.0
 10
22.089935
 20
34.408771
 30
0.0
 10
23.355221
 20
34.136407
 30
0.0
  0
SPLINE
  5
19f
100
AcDbEntity
  8
Capa_1
 62
5
100
AcDbSpline
 70
8
 71
3
 72
8
 73
4
 74
0
 40
0
 40
0
 40
0
 40
0
 40
1
 40
1
 40
1
 40
1
 10
23.355221
 20
34.136407
 30
0.0
 10
24.621354
 20
33.863860
 30
0.0
 10
25.497370
 20
32.666184
 30
0.0
 10
26.654148
 20
32.083743
 30
0.0
  0
SPLINE
  5
1a0
100
AcDbEntity
  8
Capa_1
 62
5
100
AcDbSpline
 70
8
 71
3
 72
8
 73
4
 74
0
 40
0
 40
0
 40
0
 40
0
 40
1
 40
1
 40
1
 40
1
 10
26.654148
 20
32.083743
 30
0.0
 10
29.059614
 20
30.872581
 30
0.0
 10
32.236972
 20
30.991647
 30
0.0
 10
34.168368
 20
29.114709
 30
0.0
  0
SPLINE
  5
1a1
100
AcDbEntity
  8
Capa_1
 62
5
100
AcDbSpline
 70
8
 71
3
 72
8
 73
4
 74
0
 40
0
 40
0
 40
0
 40
0
 40
1
 40
1
 40
1
 40
1
 10
34.168368
 20
29.114709
 30
0.0
 10
34.635487
 20
28.660761
 30
0.0
 10
34.859683
 20
27.965247
 30
0.0
 10
34.938116
 20
27.318627
 30
0.0
  0
SPLINE
  5
1a2
100
AcDbEntity
  8
Capa_1
 62
5
100
AcDbSpline
 70
8
 71
3
 72
8
 73
4
 74
0
 40
0
 40
0
 40
0
 40
0
 40
1
 40
1
 40
1
 40
1
 10
34.938116
 20
27.318627
 30
0.0
 10
35.082756
 20
26.126183
 30
0.0
 10
34.812151
 20
24.872521
 30
0.0
 10
34.351641
 20
23.763118
 30
0.0
  0
SPLINE
  5
1a3
100
AcDbEntity
  8
Capa_1
 62
5
100
AcDbSpline
 70
8
 71
3
 72
8
 73
4
 74
0
 40
0
 40
0
 40
0
 40
0
 40
1
 40
1
 40
1
 40
1
 10
34.351641
 20
23.763118
 30
0.0
 10
33.838145
 20
22.526072
 30
0.0
 10
32.005739
 20
20.500848
 30
0.0
 10
32.005739
 20
20.500848
 30
0.0
  0
SPLINE
  5
1a4
100
AcDbEntity
  8
Capa_1
 62
5
100
AcDbSpline
 70
8
 71
3
 72
8
 73
4
 74
0
 40
0
 40
0
 40
0
 40
0
 40
1
 40
1
 40
1
 40
1
 10
32.005739
 20
20.500848
 30
0.0
 10
32.005739
 20
20.500848
 30
0.0
 10
28.815376
 20
22.390893
 30
0.0
 10
27.057349
 20
22.333584
 30
0.0
  0
SPLINE
  5
1a5
100
AcDbEntity
  8
Capa_1
 62
5
100
AcDbSpline
 70
8
 71
3
 72
8
 73
4
 74
0
 40
0
 40
0
 40
0
 40
0
 40
1
 40
1
 40
1
 40
1
 10
27.057349
 20
22.333584
 30
0.0
 10
25.559530
 20
22.284757
 30
0.0
 10
24.399558
 20
20.888772
 30
0.0
 10
22.952020
 20
20.500848
 30
0.0
  0
SPLINE
  5
1a6
100
AcDbEntity
  8
Capa_1
 62
5
100
AcDbSpline
 70
8
 71
3
 72
8
 73
4
 74
0
 40
0
 40
0
 40
0
 40
0
 40
1
 40
1
 40
1
 40
1
 10
22.952020
 20
20.500848
 30
0.0
 10
22.382469
 20
20.348215
 30
0.0
 10
21.782117
 20
20.305437
 30
0.0
 10
21.192592
 20
20.317574
 30
0.0
  0
SPLINE
  5
1a7
100
AcDbEntity
  8
Capa_1
 62
5
100
AcDbSpline
 70
8
 71
3
 72
8
 73
4
 74
0
 40
0
 40
0
 40
0
 40
0
 40
1
 40
1
 40
1
 40
1
 10
21.192592
 20
20.317574
 30
0.0
 10
19.501309
 20
20.352392
 30
0.0
 10
16.170895
 20
21.050668
 30
0.0
 10
16.170895
 20
21.050668
 30
0.0
  0
SPLINE
  5
1a8
100
AcDbEntity
  8
Capa_1
 62
5
100
AcDbSpline
 70
8
 71
3
 72
8
 73
4
 74
0
 40
0
 40
0
 40
0
 40
0
 40
1
 40
1
 40
1
 40
1
 10
11.622781
 20
9.485720
 30
0.0
 10
11.612743
 20
9.073467
 30
0.0
 10
11.604050
 20
8.658950
 30
0.0
 10
11.650542
 20
8.248562
 30
0.0
  0
SPLINE
  5
1a9
100
AcDbEntity
  8
Capa_1
 62
5
100
AcDbSpline
 70
8
 71
3
 72
8
 73
4
 74
0
 40
0
 40
0
 40
0
 40
0
 40
1
 40
1
 40
1
 40
1
 10
11.650542
 20
8.248562
 30
0.0
 10
11.689021
 20
7.950805
 30
0.0
 10
11.867216
 20
7.675241
 30
0.0
 10
12.100025
 20
7.501095
 30
0.0
  0
SPLINE
  5
1aa
100
AcDbEntity
  8
Capa_1
 62
5
100
AcDbSpline
 70
8
 71
3
 72
8
 73
4
 74
0
 40
0
 40
0
 40
0
 40
0
 40
1
 40
1
 40
1
 40
1
 10
12.100025
 20
7.501095
 30
0.0
 10
12.291714
 20
7.357708
 30
0.0
 10
12.553299
 20
7.303611
 30
0.0
 10
12.794942
 20
7.319894
 30
0.0
  0
SPLINE
  5
1ab
100
AcDbEntity
  8
Capa_1
 62
5
100
AcDbSpline
 70
8
 71
3
 72
8
 73
4
 74
0
 40
0
 40
0
 40
0
 40
0
 40
1
 40
1
 40
1
 40
1
 10
12.794942
 20
7.319894
 30
0.0
 10
13.012522
 20
7.341888
 30
0.0
 10
13.200023
 20
7.474051
 30
0.0
 10
13.352469
 20
7.620016
 30
0.0
  0
SPLINE
  5
1ac
100
AcDbEntity
  8
Capa_1
 62
5
100
AcDbSpline
 70
8
 71
3
 72
8
 73
4
 74
0
 40
0
 40
0
 40
0
 40
0
 40
1
 40
1
 40
1
 40
1
 10
13.352469
 20
7.620016
 30
0.0
 10
13.488059
 20
7.749841
 30
0.0
 10
13.582210
 20
7.925457
 30
0.0
 10
13.640686
 20
8.103837
 30
0.0
  0
SPLINE
  5
1ad
100
AcDbEntity
  8
Capa_1
 62
5
100
AcDbSpline
 70
8
 71
3
 72
8
 73
4
 74
0
 40
0
 40
0
 40
0
 40
0
 40
1
 40
1
 40
1
 40
1
 10
13.640686
 20
8.103837
 30
0.0
 10
13.700280
 20
8.285627
 30
0.0
 10
13.685486
 20
8.484662
 30
0.0
 10
13.695869
 20
8.675106
 30
0.0
  0
SPLINE
  5
1ae
100
AcDbEntity
  8
Capa_1
 62
5
100
AcDbSpline
 70
8
 71
3
 72
8
 73
4
 74
0
 40
0
 40
0
 40
0
 40
0
 40
1
 40
1
 40
1
 40
1
 10
13.695869
 20
8.675106
 30
0.0
 10
13.697894
 20
8.952261
 30
0.0
 10
13.697640
 20
9.229430
 30
0.0
 10
13.696028
 20
9.506586
 30
0.0
  0
LWPOLYLINE
  5
1af
100
AcDbEntity
  8
Capa_1
 62
5
100
AcDbPolyline
 90
3
 70
0
 10
14.987714
 20
18.778076
 30
0.0
 10
14.987714
 20
18.778076
 30
0.0
 10
15.006042
 20
18.778076
 30
0.0
  0
LWPOLYLINE
  5
1b0
100
AcDbEntity
  8
Capa_1
 62
5
100
AcDbPolyline
 90
5
 70
0
 10
9.232666
 20
7.278797
 30
0.0
 10
9.258815
 20
9.213808
 30
0.0
 10
10.226321
 20
7.487987
 30
0.0
 10
11.259198
 20
9.305329
 30
0.0
 10
11.259198
 20
7.304947
 30
0.0
  0
LWPOLYLINE
  5
1b1
100
AcDbEntity
  8
Capa_1
 62
5
100
AcDbPolyline
 90
5
 70
0
 10
14.070193
 20
7.239575
 30
0.0
 10
14.096342
 20
9.174585
 30
0.0
 10
15.063848
 20
7.448765
 30
0.0
 10
16.096726
 20
9.266107
 30
0.0
 10
16.096726
 20
7.265724
 30
0.0
  0
LWPOLYLINE
  5
1b2
100
AcDbEntity
  8
Capa_1
 62
5
100
AcDbPolyline
 90
3
 70
0
 10
16.410510
 20
7.265723
 30
0.0
 10
17.587206
 20
9.462222
 30
0.0
 10
18.776975
 20
7.226500
 30
0.0
  0
LWPOLYLINE
  5
1b3
100
AcDbEntity
  8
Capa_1
 62
5
100
AcDbPolyline
 90
4
 70
0
 10
19.103835
 20
9.671412
 30
0.0
 10
19.103835
 20
7.226500
 30
0.0
 10
19.143058
 20
7.226500
 30
0.0
 10
19.103835
 20
7.226500
 30
0.0
  0
LWPOLYLINE
  5
1b4
100
AcDbEntity
  8
Capa_1
 62
5
100
AcDbPolyline
 90
3
 70
0
 10
21.195739
 20
9.658339
 30
0.0
 10
19.626812
 20
8.115559
 30
0.0
 10
21.221887
 20
6.507408
 30
0.0
  0
LWPOLYLINE
  5
1b5
100
AcDbEntity
  8
Capa_1
 62
5
100
AcDbPolyline
 90
4
 70
0
 10
23.300717
 20
9.579892
 30
0.0
 10
21.548747
 20
9.592962
 30
0.0
 10
21.548747
 20
7.291868
 30
0.0
 10
23.300717
 20
7.291868
 30
0.0
  0
LWPOLYLINE
  5
1b6
100
AcDbEntity
  8
Capa_1
 62
5
100
AcDbPolyline
 90
2
 70
0
 10
21.927906
 20
8.010964
 30
0.0
 10
23.313792
 20
8.024034
 30
0.0
  0
SPLINE
  5
1b7
100
AcDbEntity
  8
Capa_1
 62
5
100
AcDbSpline
 70
8
 71
3
 72
8
 73
4
 74
0
 40
0
 40
0
 40
0
 40
0
 40
1
 40
1
 40
1
 40
1
 10
23.614502
 20
9.579892
 30
0.0
 10
23.614502
 20
9.579892
 30
0.0
 10
24.149950
 20
9.611560
 30
0.0
 10
24.412041
 20
9.566821
 30
0.0
  0
SPLINE
  5
1b8
100
AcDbEntity
  8
Capa_1
 62
5
100
AcDbSpline
 70
8
 71
3
 72
8
 73
4
 74
0
 40
0
 40
0
 40
0
 40
0
 40
1
 40
1
 40
1
 40
1
 10
24.412041
 20
9.566821
 30
0.0
 10
24.520721
 20
9.548270
 30
0.0
 10
24.613479
 20
9.529809
 30
0.0
 10
24.725826
 20
9.462226
 30
0.0
  0
SPLINE
  5
1b9
100
AcDbEntity
  8
Capa_1
 62
5
100
AcDbSpline
 70
8
 71
3
 72
8
 73
4
 74
0
 40
0
 40
0
 40
0
 40
0
 40
1
 40
1
 40
1
 40
1
 10
24.725826
 20
9.462226
 30
0.0
 10
24.818287
 20
9.406605
 30
0.0
 10
24.944513
 20
9.329807
 30
0.0
 10
25.013462
 20
9.226887
 30
0.0
  0
SPLINE
  5
1ba
100
AcDbEntity
  8
Capa_1
 62
5
100
AcDbSpline
 70
8
 71
3
 72
8
 73
4
 74
0
 40
0
 40
0
 40
0
 40
0
 40
1
 40
1
 40
1
 40
1
 10
25.013462
 20
9.226887
 30
0.0
 10
25.071778
 20
9.139838
 30
0.0
 10
25.089563
 20
9.029811
 30
0.0
 10
25.104984
 20
8.926176
 30
0.0
  0
SPLINE
  5
1bb
100
AcDbEntity
  8
Capa_1
 62
5
100
AcDbSpline
 70
8
 71
3
 72
8
 73
4
 74
0
 40
0
 40
0
 40
0
 40
0
 40
1
 40
1
 40
1
 40
1
 10
25.104984
 20
8.926176
 30
0.0
 10
25.122304
 20
8.809788
 30
0.0
 10
25.125469
 20
8.689040
 30
0.0
 10
25.104984
 20
8.573167
 30
0.0
  0
SPLINE
  5
1bc
100
AcDbEntity
  8
Capa_1
 62
5
100
AcDbSpline
 70
8
 71
3
 72
8
 73
4
 74
0
 40
0
 40
0
 40
0
 40
0
 40
1
 40
1
 40
1
 40
1
 10
25.104984
 20
8.573167
 30
0.0
 10
25.086049
 20
8.466065
 30
0.0
 10
25.057195
 20
8.354536
 30
0.0
 10
24.993114
 20
8.266656
 30
0.0
  0
SPLINE
  5
1bd
100
AcDbEntity
  8
Capa_1
 62
5
100
AcDbSpline
 70
8
 71
3
 72
8
 73
4
 74
0
 40
0
 40
0
 40
0
 40
0
 40
1
 40
1
 40
1
 40
1
 10
24.993114
 20
8.266656
 30
0.0
 10
24.936388
 20
8.188863
 30
0.0
 10
24.851627
 20
8.131537
 30
0.0
 10
24.765050
 20
8.089415
 30
0.0
  0
SPLINE
  5
1be
100
AcDbEntity
  8
Capa_1
 62
5
100
AcDbSpline
 70
8
 71
3
 72
8
 73
4
 74
0
 40
0
 40
0
 40
0
 40
0
 40
1
 40
1
 40
1
 40
1
 10
24.765050
 20
8.089415
 30
0.0
 10
24.651943
 20
8.034385
 30
0.0
 10
24.398966
 20
7.997893
 30
0.0
 10
24.398966
 20
7.997893
 30
0.0
  0
LWPOLYLINE
  5
1bf
100
AcDbEntity
  8
Capa_1
 62
5
100
AcDbPolyline
 90
2
 70
0
 10
23.614502
 20
7.265723
 30
0.0
 10
23.614502
 20
9.579892
 30
0.0
  0
LWPOLYLINE
  5
1c0
100
AcDbEntity
  8
Capa_1
 62
5
100
AcDbPolyline
 90
3
 70
0
 10
24.398966
 20
7.997893
 30
0.0
 10
24.176701
 20
7.984809
 30
0.0
 10
24.921942
 20
7.252644
 30
0.0
  0
LWPOLYLINE
  5
1c1
100
AcDbEntity
  8
Capa_1
 62
5
100
AcDbPolyline
 90
4
 70
0
 10
30.243222
 20
9.592966
 30
0.0
 10
28.491253
 20
9.606037
 30
0.0
 10
28.491253
 20
7.304942
 30
0.0
 10
30.243222
 20
7.304942
 30
0.0
  0
LWPOLYLINE
  5
1c2
100
AcDbEntity
  8
Capa_1
 62
5
100
AcDbPolyline
 90
2
 70
0
 10
28.870411
 20
8.024038
 30
0.0
 10
30.256297
 20
8.037109
 30
0.0
  0
SPLINE
  5
1c3
100
AcDbEntity
  8
Capa_1
 62
5
100
AcDbSpline
 70
8
 71
3
 72
8
 73
4
 74
0
 40
0
 40
0
 40
0
 40
0
 40
1
 40
1
 40
1
 40
1
 10
31.264480
 20
9.632189
 30
0.0
 10
31.264480
 20
7.226500
 30
0.0
 10
31.264480
 20
7.226500
 30
0.0
 10
31.264480
 20
7.226500
 30
0.0
  0
LWPOLYLINE
  5
1c4
100
AcDbEntity
  8
Capa_1
 62
5
100
AcDbPolyline
 90
3
 70
0
 10
30.388243
 20
9.579892
 30
0.0
 10
32.114248
 20
9.579892
 30
0.0
 10
32.114248
 20
9.553288
 30
0.0
  0
LWPOLYLINE
  5
1c5
100
AcDbEntity
  8
Capa_1
 62
5
100
AcDbPolyline
 90
4
 70
0
 10
25.980968
 20
7.252649
 30
0.0
 10
26.007118
 20
9.422999
 30
0.0
 10
28.033648
 20
7.435690
 30
0.0
 10
28.020578
 20
9.645264
 30
0.0
  0
SPLINE
  5
1c6
100
AcDbEntity
  8
Capa_1
 62
1
100
AcDbSpline
 70
8
 71
3
 72
8
 73
4
 74
0
 40
0
 40
0
 40
0
 40
0
 40
1
 40
1
 40
1
 40
1
 10
86.235891
 20
79.365300
 30
0.0
 10
86.235891
 20
52.952537
 30
0.0
 10
86.235891
 20
26.539772
 30
0.0
 10
86.235891
 20
0.127006
 30
0.0
  0
SPLINE
  5
1c7
100
AcDbEntity
  8
Capa_1
 62
1
100
AcDbSpline
 70
8
 71
3
 72
8
 73
4
 74
0
 40
0
 40
0
 40
0
 40
0
 40
1
 40
1
 40
1
 40
1
 10
86.235891
 20
0.127006
 30
0.0
 10
99.315494
 20
0.127006
 30
0.0
 10
112.395097
 20
0.127006
 30
0.0
 10
125.474700
 20
0.127006
 30
0.0
  0
SPLINE
  5
1c8
100
AcDbEntity
  8
Capa_1
 62
1
100
AcDbSpline
 70
8
 71
3
 72
8
 73
4
 74
0
 40
0
 40
0
 40
0
 40
0
 40
1
 40
1
 40
1
 40
1
 10
125.474700
 20
0.127006
 30
0.0
 10
125.474700
 20
19.364972
 30
0.0
 10
125.474700
 20
38.602934
 30
0.0
 10
125.474700
 20
57.840900
 30
0.0
  0
SPLINE
  5
1c9
100
AcDbEntity
  8
Capa_1
 62
1
100
AcDbSpline
 70
8
 71
3
 72
8
 73
4
 74
0
 40
0
 40
0
 40
0
 40
0
 40
1
 40
1
 40
1
 40
1
 10
125.474700
 20
57.840900
 30
0.0
 10
117.419239
 20
57.840900
 30
0.0
 10
109.363781
 20
57.840900
 30
0.0
 10
101.308321
 20
57.840900
 30
0.0
  0
SPLINE
  5
1ca
100
AcDbEntity
  8
Capa_1
 62
1
100
AcDbSpline
 70
8
 71
3
 72
8
 73
4
 74
0
 40
0
 40
0
 40
0
 40
0
 40
1
 40
1
 40
1
 40
1
 10
101.308321
 20
57.840900
 30
0.0
 10
101.308321
 20
61.079473
 30
0.0
 10
101.308321
 20
64.318043
 30
0.0
 10
101.308321
 20
67.556615
 30
0.0
  0
SPLINE
  5
1cb
100
AcDbEntity
  8
Capa_1
 62
1
100
AcDbSpline
 70
8
 71
3
 72
8
 73
4
 74
0
 40
0
 40
0
 40
0
 40
0
 40
1
 40
1
 40
1
 40
1
 10
101.308321
 20
67.556615
 30
0.0
 10
109.363781
 20
67.556615
 30
0.0
 10
117.419239
 20
67.556615
 30
0.0
 10
125.474700
 20
67.556615
 30
0.0
  0
SPLINE
  5
1cc
100
AcDbEntity
  8
Capa_1
 62
1
100
AcDbSpline
 70
8
 71
3
 72
8
 73
4
 74
0
 40
0
 40
0
 40
0
 40
0
 40
1
 40
1
 40
1
 40
1
 10
125.474700
 20
67.556615
 30
0.0
 10
125.474700
 20
71.492843
 30
0.0
 10
125.474700
 20
75.429072
 30
0.0
 10
125.474700
 20
79.365300
 30
0.0
  0
SPLINE
  5
1cd
100
AcDbEntity
  8
Capa_1
 62
1
100
AcDbSpline
 70
8
 71
3
 72
8
 73
4
 74
0
 40
0
 40
0
 40
0
 40
0
 40
1
 40
1
 40
1
 40
1
 10
125.474700
 20
79.365300
 30
0.0
 10
112.395097
 20
79.365300
 30
0.0
 10
99.315494
 20
79.365300
 30
0.0
 10
86.235891
 20
79.365300
 30
0.0
  0
LWPOLYLINE
  5
1ce
100
AcDbEntity
  8
Capa_1
 62
7
100
AcDbPolyline
 90
2
 70
1
 10
25.562587
 20
7.370319
 30
0.0
 10
25.562587
 20
7.370319
 30
0.0
  0
SPLINE
  5
1cf
100
AcDbEntity
  8
Capa_1
 62
7
100
AcDbSpline
 70
8
 71
3
 72
8
 73
4
 74
0
 40
0
 40
0
 40
0
 40
0
 40
1
 40
1
 40
1
 40
1
 10
109.432273
 20
23.642299
 30
0.0
 10
109.466965
 20
23.642638
 30
0.0
 10
109.507749
 20
23.305635
 30
0.0
 10
109.544409
 20
22.700142
 30
0.0
  0
SPLINE
  5
1d0
100
AcDbEntity
  8
Capa_1
 62
7
100
AcDbSpline
 70
8
 71
3
 72
8
 73
4
 74
0
 40
0
 40
0
 40
0
 40
0
 40
1
 40
1
 40
1
 40
1
 10
109.544409
 20
22.700142
 30
0.0
 10
109.576928
 20
22.163022
 30
0.0
 10
109.622733
 20
21.149930
 30
0.0
 10
109.548615
 20
20.137805
 30
0.0
  0
LWPOLYLINE
  5
1d1
100
AcDbEntity
  8
Capa_1
 62
1
100
AcDbPolyline
 90
2
 70
1
 10
86.235891
 20
79.365300
 30
0.0
 10
86.235891
 20
79.365300
 30
0.0
  0
SPLINE
  5
1d2
100
AcDbEntity
  8
Capa_1
 62
7
100
AcDbSpline
 70
8
 71
3
 72
8
 73
4
 74
0
 40
0
 40
0
 40
0
 40
0
 40
1
 40
1
 40
1
 40
1
 10
109.548615
 20
20.137804
 30
0.0
 10
109.476180
 20
19.142821
 30
0.0
 10
109.263120
 20
17.886441
 30
0.0
 10
108.646952
 20
16.711602
 30
0.0
  0
SPLINE
  5
1d3
100
AcDbEntity
  8
Capa_1
 62
7
100
AcDbSpline
 70
8
 71
3
 72
8
 73
4
 74
0
 40
0
 40
0
 40
0
 40
0
 40
1
 40
1
 40
1
 40
1
 10
108.646952
 20
16.711602
 30
0.0
 10
108.173407
 20
15.882036
 30
0.0
 10
107.419874
 20
15.183888
 30
0.0
 10
106.492294
 20
14.707163
 30
0.0
  0
SPLINE
  5
1d4
100
AcDbEntity
  8
Capa_1
 62
7
100
AcDbSpline
 70
8
 71
3
 72
8
 73
4
 74
0
 40
0
 40
0
 40
0
 40
0
 40
1
 40
1
 40
1
 40
1
 10
106.492294
 20
14.707163
 30
0.0
 10
106.359177
 20
14.638634
 30
0.0
 10
106.223263
 20
14.574432
 30
0.0
 10
106.084763
 20
14.514581
 30
0.0
  0
SPLINE
  5
1d5
100
AcDbEntity
  8
Capa_1
 62
7
100
AcDbSpline
 70
8
 71
3
 72
8
 73
4
 74
0
 40
0
 40
0
 40
0
 40
0
 40
1
 40
1
 40
1
 40
1
 10
106.084763
 20
14.514581
 30
0.0
 10
105.292394
 20
14.172171
 30
0.0
 10
104.463780
 20
13.992860
 30
0.0
 10
103.668848
 20
13.932594
 30
0.0
  0
SPLINE
  5
1d6
100
AcDbEntity
  8
Capa_1
 62
7
100
AcDbSpline
 70
8
 71
3
 72
8
 73
4
 74
0
 40
0
 40
0
 40
0
 40
0
 40
1
 40
1
 40
1
 40
1
 10
103.668848
 20
13.932594
 30
0.0
 10
102.621943
 20
13.826215
 30
0.0
 10
101.626206
 20
13.998076
 30
0.0
 10
100.783370
 20
14.283539
 30
0.0
  0
SPLINE
  5
1d7
100
AcDbEntity
  8
Capa_1
 62
7
100
AcDbSpline
 70
8
 71
3
 72
8
 73
4
 74
0
 40
0
 40
0
 40
0
 40
0
 40
1
 40
1
 40
1
 40
1
 10
100.783370
 20
14.283539
 30
0.0
 10
99.724129
 20
14.641113
 30
0.0
 10
98.865040
 20
15.175639
 30
0.0
 10
98.243323
 20
15.650064
 30
0.0
  0
LWPOLYLINE
  5
1d8
100
AcDbEntity
  8
Capa_1
 62
7
100
AcDbPolyline
 90
2
 70
1
 10
109.548615
 20
20.137805
 30
0.0
 10
109.548615
 20
20.137804
 30
0.0
  0
SPLINE
  5
1d9
100
AcDbEntity
  8
Capa_1
 62
7
100
AcDbSpline
 70
8
 71
3
 72
8
 73
4
 74
0
 40
0
 40
0
 40
0
 40
0
 40
1
 40
1
 40
1
 40
1
 10
98.243323
 20
15.650064
 30
0.0
 10
97.139814
 20
16.433837
 30
0.0
 10
96.557951
 20
16.994762
 30
0.0
 10
96.575705
 20
17.019219
 30
0.0
  0
SPLINE
  5
1da
100
AcDbEntity
  8
Capa_1
 62
7
100
AcDbSpline
 70
8
 71
3
 72
8
 73
4
 74
0
 40
0
 40
0
 40
0
 40
0
 40
1
 40
1
 40
1
 40
1
 10
96.575705
 20
17.019219
 30
0.0
 10
96.623585
 20
17.085171
 30
0.0
 10
97.269969
 20
16.604280
 30
0.0
 10
98.411651
 20
15.893784
 30
0.0
  0
LWPOLYLINE
  5
1db
100
AcDbEntity
  8
Capa_1
 62
7
100
AcDbPolyline
 90
2
 70
1
 10
98.243323
 20
15.650064
 30
0.0
 10
98.243323
 20
15.650064
 30
0.0
  0
SPLINE
  5
1dc
100
AcDbEntity
  8
Capa_1
 62
7
100
AcDbSpline
 70
8
 71
3
 72
8
 73
4
 74
0
 40
0
 40
0
 40
0
 40
0
 40
1
 40
1
 40
1
 40
1
 10
98.411651
 20
15.893784
 30
0.0
 10
99.042634
 20
15.470887
 30
0.0
 10
99.894507
 20
14.989669
 30
0.0
 10
100.910648
 20
14.678619
 30
0.0
  0
SPLINE
  5
1dd
100
AcDbEntity
  8
Capa_1
 62
7
100
AcDbSpline
 70
8
 71
3
 72
8
 73
4
 74
0
 40
0
 40
0
 40
0
 40
0
 40
1
 40
1
 40
1
 40
1
 10
100.910648
 20
14.678619
 30
0.0
 10
101.717957
 20
14.432463
 30
0.0
 10
102.658281
 20
14.288798
 30
0.0
 10
103.624293
 20
14.400381
 30
0.0
  0
SPLINE
  5
1de
100
AcDbEntity
  8
Capa_1
 62
7
100
AcDbSpline
 70
8
 71
3
 72
8
 73
4
 74
0
 40
0
 40
0
 40
0
 40
0
 40
1
 40
1
 40
1
 40
1
 10
103.624293
 20
14.400381
 30
0.0
 10
104.375568
 20
14.467273
 30
0.0
 10
105.154584
 20
14.639507
 30
0.0
 10
105.892268
 20
14.957965
 30
0.0
  0
SPLINE
  5
1df
100
AcDbEntity
  8
Capa_1
 62
7
100
AcDbSpline
 70
8
 71
3
 72
8
 73
4
 74
0
 40
0
 40
0
 40
0
 40
0
 40
1
 40
1
 40
1
 40
1
 10
105.892268
 20
14.957965
 30
0.0
 10
106.021293
 20
15.013666
 30
0.0
 10
106.147725
 20
15.073271
 30
0.0
 10
106.271375
 20
15.136778
 30
0.0
  0
SPLINE
  5
1e0
100
AcDbEntity
  8
Capa_1
 62
7
100
AcDbSpline
 70
8
 71
3
 72
8
 73
4
 74
0
 40
0
 40
0
 40
0
 40
0
 40
1
 40
1
 40
1
 40
1
 10
106.271375
 20
15.136778
 30
0.0
 10
107.122655
 20
15.574789
 30
0.0
 10
107.815861
 20
16.197993
 30
0.0
 10
108.246718
 20
16.934529
 30
0.0
  0
SPLINE
  5
1e1
100
AcDbEntity
  8
Capa_1
 62
7
100
AcDbSpline
 70
8
 71
3
 72
8
 73
4
 74
0
 40
0
 40
0
 40
0
 40
0
 40
1
 40
1
 40
1
 40
1
 10
108.246718
 20
16.934529
 30
0.0
 10
108.839039
 20
18.010848
 30
0.0
 10
109.074955
 20
19.211616
 30
0.0
 10
109.186879
 20
20.171920
 30
0.0
  0
LWPOLYLINE
  5
1e2
100
AcDbEntity
  8
Capa_1
 62
7
100
AcDbPolyline
 90
2
 70
1
 10
98.411651
 20
15.893784
 30
0.0
 10
98.411651
 20
15.893784
 30
0.0
  0
SPLINE
  5
1e3
100
AcDbEntity
  8
Capa_1
 62
7
100
AcDbSpline
 70
8
 71
3
 72
8
 73
4
 74
0
 40
0
 40
0
 40
0
 40
0
 40
1
 40
1
 40
1
 40
1
 10
109.186879
 20
20.171921
 30
0.0
 10
109.294364
 20
21.098289
 30
0.0
 10
109.321661
 20
22.216697
 30
0.0
 10
109.341570
 20
22.698188
 30
0.0
  0
SPLINE
  5
1e4
100
AcDbEntity
  8
Capa_1
 62
7
100
AcDbSpline
 70
8
 71
3
 72
8
 73
4
 74
0
 40
0
 40
0
 40
0
 40
0
 40
1
 40
1
 40
1
 40
1
 10
109.341570
 20
22.698188
 30
0.0
 10
109.366608
 20
23.303715
 30
0.0
 10
109.394650
 20
23.641936
 30
0.0
 10
109.432272
 20
23.642299
 30
0.0
  0
LWPOLYLINE
  5
1e5
100
AcDbEntity
  8
Capa_1
 62
7
100
AcDbPolyline
 90
2
 70
1
 10
109.186879
 20
20.171920
 30
0.0
 10
109.186879
 20
20.171921
 30
0.0
  0
SPLINE
  5
1e6
100
AcDbEntity
  8
Capa_1
 62
7
100
AcDbSpline
 70
8
 71
3
 72
8
 73
4
 74
0
 40
0
 40
0
 40
0
 40
0
 40
1
 40
1
 40
1
 40
1
 10
101.506704
 20
22.426998
 30
0.0
 10
101.505505
 20
22.431113
 30
0.0
 10
102.038785
 20
22.758235
 30
0.0
 10
103.078785
 20
22.949002
 30
0.0
  0
SPLINE
  5
1e7
100
AcDbEntity
  8
Capa_1
 62
7
100
AcDbSpline
 70
8
 71
3
 72
8
 73
4
 74
0
 40
0
 40
0
 40
0
 40
0
 40
1
 40
1
 40
1
 40
1
 10
103.078785
 20
22.949002
 30
0.0
 10
103.537284
 20
23.031132
 30
0.0
 10
104.155234
 20
23.074285
 30
0.0
 10
104.790915
 20
22.894636
 30
0.0
  0
SPLINE
  5
1e8
100
AcDbEntity
  8
Capa_1
 62
7
100
AcDbSpline
 70
8
 71
3
 72
8
 73
4
 74
0
 40
0
 40
0
 40
0
 40
0
 40
1
 40
1
 40
1
 40
1
 10
104.790915
 20
22.894636
 30
0.0
 10
105.020145
 20
22.766496
 30
0.0
 10
105.233795
 20
22.589905
 30
0.0
 10
105.413405
 20
22.370185
 30
0.0
  0
SPLINE
  5
1e9
100
AcDbEntity
  8
Capa_1
 62
7
100
AcDbSpline
 70
8
 71
3
 72
8
 73
4
 74
0
 40
0
 40
0
 40
0
 40
0
 40
1
 40
1
 40
1
 40
1
 10
105.413405
 20
22.370185
 30
0.0
 10
105.571430
 20
22.170932
 30
0.0
 10
105.698127
 20
21.943883
 30
0.0
 10
105.795055
 20
21.698728
 30
0.0
  0
SPLINE
  5
1ea
100
AcDbEntity
  8
Capa_1
 62
7
100
AcDbSpline
 70
8
 71
3
 72
8
 73
4
 74
0
 40
0
 40
0
 40
0
 40
0
 40
1
 40
1
 40
1
 40
1
 10
105.795055
 20
21.698728
 30
0.0
 10
105.976907
 20
21.237100
 30
0.0
 10
106.061359
 20
20.737531
 30
0.0
 10
106.087930
 20
20.212612
 30
0.0
  0
SPLINE
  5
1eb
100
AcDbEntity
  8
Capa_1
 62
7
100
AcDbSpline
 70
8
 71
3
 72
8
 73
4
 74
0
 40
0
 40
0
 40
0
 40
0
 40
1
 40
1
 40
1
 40
1
 10
106.087930
 20
20.212612
 30
0.0
 10
106.116689
 20
19.502259
 30
0.0
 10
106.016309
 20
18.743845
 30
0.0
 10
105.738324
 20
18.012031
 30
0.0
  0
SPLINE
  5
1ec
100
AcDbEntity
  8
Capa_1
 62
7
100
AcDbSpline
 70
8
 71
3
 72
8
 73
4
 74
0
 40
0
 40
0
 40
0
 40
0
 40
1
 40
1
 40
1
 40
1
 10
105.738324
 20
18.012031
 30
0.0
 10
105.643358
 20
17.763441
 30
0.0
 10
105.526492
 20
17.518734
 30
0.0
 10
105.387085
 20
17.283669
 30
0.0
  0
SPLINE
  5
1ed
100
AcDbEntity
  8
Capa_1
 62
7
100
AcDbSpline
 70
8
 71
3
 72
8
 73
4
 74
0
 40
0
 40
0
 40
0
 40
0
 40
1
 40
1
 40
1
 40
1
 10
105.387085
 20
17.283669
 30
0.0
 10
105.133093
 20
16.855389
 30
0.0
 10
104.815294
 20
16.477580
 30
0.0
 10
104.443932
 20
16.170192
 30
0.0
  0
SPLINE
  5
1ee
100
AcDbEntity
  8
Capa_1
 62
7
100
AcDbSpline
 70
8
 71
3
 72
8
 73
4
 74
0
 40
0
 40
0
 40
0
 40
0
 40
1
 40
1
 40
1
 40
1
 10
104.443932
 20
16.170192
 30
0.0
 10
103.911796
 20
15.812337
 30
0.0
 10
103.301413
 20
15.651034
 30
0.0
 10
102.734910
 20
15.600770
 30
0.0
  0
SPLINE
  5
1ef
100
AcDbEntity
  8
Capa_1
 62
7
100
AcDbSpline
 70
8
 71
3
 72
8
 73
4
 74
0
 40
0
 40
0
 40
0
 40
0
 40
1
 40
1
 40
1
 40
1
 10
102.734910
 20
15.600770
 30
0.0
 10
102.123377
 20
15.547327
 30
0.0
 10
101.516207
 20
15.597845
 30
0.0
 10
100.995180
 20
15.650494
 30
0.0
  0
SPLINE
  5
1f0
100
AcDbEntity
  8
Capa_1
 62
7
100
AcDbSpline
 70
8
 71
3
 72
8
 73
4
 74
0
 40
0
 40
0
 40
0
 40
0
 40
1
 40
1
 40
1
 40
1
 10
100.995180
 20
15.650494
 30
0.0
 10
99.721947
 20
15.813405
 30
0.0
 10
98.622146
 20
16.131278
 30
0.0
 10
97.930428
 20
16.364759
 30
0.0
  0
SPLINE
  5
1f1
100
AcDbEntity
  8
Capa_1
 62
7
100
AcDbSpline
 70
8
 71
3
 72
8
 73
4
 74
0
 40
0
 40
0
 40
0
 40
0
 40
1
 40
1
 40
1
 40
1
 10
97.930428
 20
16.364759
 30
0.0
 10
97.211482
 20
16.607430
 30
0.0
 10
96.820030
 20
16.793800
 30
0.0
 10
96.832444
 20
16.831053
 30
0.0
  0
SPLINE
  5
1f2
100
AcDbEntity
  8
Capa_1
 62
7
100
AcDbSpline
 70
8
 71
3
 72
8
 73
4
 74
0
 40
0
 40
0
 40
0
 40
0
 40
1
 40
1
 40
1
 40
1
 10
96.832444
 20
16.831053
 30
0.0
 10
96.847435
 20
16.876037
 30
0.0
 10
97.264796
 20
16.767400
 30
0.0
 10
97.995374
 20
16.594566
 30
0.0
  0
SPLINE
  5
1f3
100
AcDbEntity
  8
Capa_1
 62
7
100
AcDbSpline
 70
8
 71
3
 72
8
 73
4
 74
0
 40
0
 40
0
 40
0
 40
0
 40
1
 40
1
 40
1
 40
1
 10
97.995374
 20
16.594566
 30
0.0
 10
98.686720
 20
16.431014
 30
0.0
 10
99.806886
 20
16.174864
 30
0.0
 10
101.034909
 20
16.059828
 30
0.0
  0
SPLINE
  5
1f4
100
AcDbEntity
  8
Capa_1
 62
7
100
AcDbSpline
 70
8
 71
3
 72
8
 73
4
 74
0
 40
0
 40
0
 40
0
 40
0
 40
1
 40
1
 40
1
 40
1
 10
101.034909
 20
16.059828
 30
0.0
 10
101.550435
 20
16.026300
 30
0.0
 10
102.135263
 20
15.991697
 30
0.0
 10
102.690093
 20
16.053650
 30
0.0
  0
SPLINE
  5
1f5
100
AcDbEntity
  8
Capa_1
 62
7
100
AcDbSpline
 70
8
 71
3
 72
8
 73
4
 74
0
 40
0
 40
0
 40
0
 40
0
 40
1
 40
1
 40
1
 40
1
 10
102.690093
 20
16.053650
 30
0.0
 10
103.196632
 20
16.109568
 30
0.0
 10
103.727119
 20
16.250044
 30
0.0
 10
104.156079
 20
16.551126
 30
0.0
  0
SPLINE
  5
1f6
100
AcDbEntity
  8
Capa_1
 62
7
100
AcDbSpline
 70
8
 71
3
 72
8
 73
4
 74
0
 40
0
 40
0
 40
0
 40
0
 40
1
 40
1
 40
1
 40
1
 10
104.156079
 20
16.551126
 30
0.0
 10
104.477100
 20
16.818929
 30
0.0
 10
104.753144
 20
17.153068
 30
0.0
 10
104.976466
 20
17.534315
 30
0.0
  0
SPLINE
  5
1f7
100
AcDbEntity
  8
Capa_1
 62
7
100
AcDbSpline
 70
8
 71
3
 72
8
 73
4
 74
0
 40
0
 40
0
 40
0
 40
0
 40
1
 40
1
 40
1
 40
1
 10
104.976466
 20
17.534315
 30
0.0
 10
105.099034
 20
17.743557
 30
0.0
 10
105.202867
 20
17.962154
 30
0.0
 10
105.288426
 20
18.184493
 30
0.0
  0
SPLINE
  5
1f8
100
AcDbEntity
  8
Capa_1
 62
7
100
AcDbSpline
 70
8
 71
3
 72
8
 73
4
 74
0
 40
0
 40
0
 40
0
 40
0
 40
1
 40
1
 40
1
 40
1
 10
105.288426
 20
18.184493
 30
0.0
 10
105.544534
 20
18.845962
 30
0.0
 10
105.644156
 20
19.540430
 30
0.0
 10
105.630234
 20
20.195185
 30
0.0
  0
SPLINE
  5
1f9
100
AcDbEntity
  8
Capa_1
 62
7
100
AcDbSpline
 70
8
 71
3
 72
8
 73
4
 74
0
 40
0
 40
0
 40
0
 40
0
 40
1
 40
1
 40
1
 40
1
 10
105.630234
 20
20.195185
 30
0.0
 10
105.611081
 20
20.688837
 30
0.0
 10
105.549075
 20
21.140096
 30
0.0
 10
105.398950
 20
21.547390
 30
0.0
  0
SPLINE
  5
1fa
100
AcDbEntity
  8
Capa_1
 62
7
100
AcDbSpline
 70
8
 71
3
 72
8
 73
4
 74
0
 40
0
 40
0
 40
0
 40
0
 40
1
 40
1
 40
1
 40
1
 10
105.398950
 20
21.547390
 30
0.0
 10
105.320065
 20
21.762407
 30
0.0
 10
105.220636
 20
21.957822
 30
0.0
 10
105.095925
 20
22.125654
 30
0.0
  0
SPLINE
  5
1fb
100
AcDbEntity
  8
Capa_1
 62
7
100
AcDbSpline
 70
8
 71
3
 72
8
 73
4
 74
0
 40
0
 40
0
 40
0
 40
0
 40
1
 40
1
 40
1
 40
1
 10
105.095925
 20
22.125654
 30
0.0
 10
104.969197
 20
22.303662
 30
0.0
 10
104.813102
 20
22.449875
 30
0.0
 10
104.642235
 20
22.556688
 30
0.0
  0
SPLINE
  5
1fc
100
AcDbEntity
  8
Capa_1
 62
7
100
AcDbSpline
 70
8
 71
3
 72
8
 73
4
 74
0
 40
0
 40
0
 40
0
 40
0
 40
1
 40
1
 40
1
 40
1
 10
104.642235
 20
22.556688
 30
0.0
 10
104.113772
 20
22.734460
 30
0.0
 10
103.549277
 20
22.720975
 30
0.0
 10
103.118374
 20
22.674692
 30
0.0
  0
SPLINE
  5
1fd
100
AcDbEntity
  8
Capa_1
 62
7
100
AcDbSpline
 70
8
 71
3
 72
8
 73
4
 74
0
 40
0
 40
0
 40
0
 40
0
 40
1
 40
1
 40
1
 40
1
 10
103.118374
 20
22.674692
 30
0.0
 10
102.103410
 20
22.569374
 30
0.0
 10
101.534509
 20
22.331676
 30
0.0
 10
101.506704
 20
22.426998
 30
0.0
  0
LWPOLYLINE
  5
1fe
100
AcDbEntity
  8
Capa_1
 62
7
100
AcDbPolyline
 90
2
 70
1
 10
109.432272
 20
23.642299
 30
0.0
 10
109.432273
 20
23.642299
 30
0.0
  0
SPLINE
  5
1ff
100
AcDbEntity
  8
Capa_1
 62
7
100
AcDbSpline
 70
8
 71
3
 72
8
 73
4
 74
0
 40
0
 40
0
 40
0
 40
0
 40
1
 40
1
 40
1
 40
1
 10
96.798255
 20
17.007092
 30
0.0
 10
96.841598
 20
16.951224
 30
0.0
 10
96.414442
 20
16.558691
 30
0.0
 10
95.728747
 20
15.926376
 30
0.0
  0
SPLINE
  5
200
100
AcDbEntity
  8
Capa_1
 62
7
100
AcDbSpline
 70
8
 71
3
 72
8
 73
4
 74
0
 40
0
 40
0
 40
0
 40
0
 40
1
 40
1
 40
1
 40
1
 10
95.728747
 20
15.926376
 30
0.0
 10
95.052919
 20
15.303160
 30
0.0
 10
94.091727
 20
14.413528
 30
0.0
 10
93.166996
 20
13.373250
 30
0.0
  0
SPLINE
  5
201
100
AcDbEntity
  8
Capa_1
 62
7
100
AcDbSpline
 70
8
 71
3
 72
8
 73
4
 74
0
 40
0
 40
0
 40
0
 40
0
 40
1
 40
1
 40
1
 40
1
 10
93.166996
 20
13.373250
 30
0.0
 10
92.784010
 20
12.942409
 30
0.0
 10
92.440348
 20
12.523605
 30
0.0
 10
92.127267
 20
12.111069
 30
0.0
  0
SPLINE
  5
202
100
AcDbEntity
  8
Capa_1
 62
7
100
AcDbSpline
 70
8
 71
3
 72
8
 73
4
 74
0
 40
0
 40
0
 40
0
 40
0
 40
1
 40
1
 40
1
 40
1
 10
92.127267
 20
12.111069
 30
0.0
 10
91.650049
 20
11.468538
 30
0.0
 10
91.326966
 20
10.929408
 30
0.0
 10
91.104550
 20
10.403229
 30
0.0
  0
SPLINE
  5
203
100
AcDbEntity
  8
Capa_1
 62
7
100
AcDbSpline
 70
8
 71
3
 72
8
 73
4
 74
0
 40
0
 40
0
 40
0
 40
0
 40
1
 40
1
 40
1
 40
1
 10
91.104550
 20
10.403229
 30
0.0
 10
90.889507
 20
9.894494
 30
0.0
 10
90.817264
 20
9.507767
 30
0.0
 10
90.766619
 20
9.261758
 30
0.0
  0
SPLINE
  5
204
100
AcDbEntity
  8
Capa_1
 62
7
100
AcDbSpline
 70
8
 71
3
 72
8
 73
4
 74
0
 40
0
 40
0
 40
0
 40
0
 40
1
 40
1
 40
1
 40
1
 10
90.766619
 20
9.261758
 30
0.0
 10
90.758653
 20
9.194948
 30
0.0
 10
90.758722
 20
9.159528
 30
0.0
 10
90.766706
 20
9.122993
 30
0.0
  0
SPLINE
  5
205
100
AcDbEntity
  8
Capa_1
 62
7
100
AcDbSpline
 70
8
 71
3
 72
8
 73
4
 74
0
 40
0
 40
0
 40
0
 40
0
 40
1
 40
1
 40
1
 40
1
 10
90.766706
 20
9.122993
 30
0.0
 10
90.773470
 20
9.092041
 30
0.0
 10
90.783506
 20
9.072963
 30
0.0
 10
90.775658
 20
9.062565
 30
0.0
  0
SPLINE
  5
206
100
AcDbEntity
  8
Capa_1
 62
7
100
AcDbSpline
 70
8
 71
3
 72
8
 73
4
 74
0
 40
0
 40
0
 40
0
 40
0
 40
1
 40
1
 40
1
 40
1
 10
90.775658
 20
9.062565
 30
0.0
 10
90.777454
 20
9.064943
 30
0.0
 10
90.643241
 20
9.050171
 30
0.0
 10
90.625437
 20
9.265348
 30
0.0
  0
SPLINE
  5
207
100
AcDbEntity
  8
Capa_1
 62
7
100
AcDbSpline
 70
8
 71
3
 72
8
 73
4
 74
0
 40
0
 40
0
 40
0
 40
0
 40
1
 40
1
 40
1
 40
1
 10
90.625437
 20
9.265348
 30
0.0
 10
90.601090
 20
9.516787
 30
0.0
 10
90.617176
 20
9.951802
 30
0.0
 10
90.789741
 20
10.512304
 30
0.0
  0
SPLINE
  5
208
100
AcDbEntity
  8
Capa_1
 62
7
100
AcDbSpline
 70
8
 71
3
 72
8
 73
4
 74
0
 40
0
 40
0
 40
0
 40
0
 40
1
 40
1
 40
1
 40
1
 10
90.789741
 20
10.512304
 30
0.0
 10
90.967258
 20
11.088888
 30
0.0
 10
91.279972
 20
11.707137
 30
0.0
 10
91.757387
 20
12.381070
 30
0.0
  0
SPLINE
  5
209
100
AcDbEntity
  8
Capa_1
 62
7
100
AcDbSpline
 70
8
 71
3
 72
8
 73
4
 74
0
 40
0
 40
0
 40
0
 40
0
 40
1
 40
1
 40
1
 40
1
 10
91.757387
 20
12.381070
 30
0.0
 10
92.065598
 20
12.813921
 30
0.0
 10
92.413787
 20
13.252007
 30
0.0
 10
92.805546
 20
13.692916
 30
0.0
  0
SPLINE
  5
20a
100
AcDbEntity
  8
Capa_1
 62
7
100
AcDbSpline
 70
8
 71
3
 72
8
 73
4
 74
0
 40
0
 40
0
 40
0
 40
0
 40
1
 40
1
 40
1
 40
1
 10
92.805546
 20
13.692916
 30
0.0
 10
93.759428
 20
14.766472
 30
0.0
 10
94.764449
 20
15.621285
 30
0.0
 10
95.508538
 20
16.188561
 30
0.0
  0
SPLINE
  5
20b
100
AcDbEntity
  8
Capa_1
 62
7
100
AcDbSpline
 70
8
 71
3
 72
8
 73
4
 74
0
 40
0
 40
0
 40
0
 40
0
 40
1
 40
1
 40
1
 40
1
 10
95.508538
 20
16.188561
 30
0.0
 10
96.258062
 20
16.759981
 30
0.0
 10
96.759968
 20
17.056441
 30
0.0
 10
96.798254
 20
17.007092
 30
0.0
  0
LWPOLYLINE
  5
20c
100
AcDbEntity
  8
Capa_1
 62
7
100
AcDbPolyline
 90
2
 70
1
 10
101.506704
 20
22.426998
 30
0.0
 10
101.506704
 20
22.426998
 30
0.0
  0
SPLINE
  5
20d
100
AcDbEntity
  8
Capa_1
 62
7
100
AcDbSpline
 70
8
 71
3
 72
8
 73
4
 74
0
 40
0
 40
0
 40
0
 40
0
 40
1
 40
1
 40
1
 40
1
 10
96.832444
 20
16.904524
 30
0.0
 10
96.807089
 20
16.754674
 30
0.0
 10
95.607295
 20
17.078959
 30
0.0
 10
93.759384
 20
16.916243
 30
0.0
  0
SPLINE
  5
20e
100
AcDbEntity
  8
Capa_1
 62
7
100
AcDbSpline
 70
8
 71
3
 72
8
 73
4
 74
0
 40
0
 40
0
 40
0
 40
0
 40
1
 40
1
 40
1
 40
1
 10
93.759384
 20
16.916243
 30
0.0
 10
92.891629
 20
16.839393
 30
0.0
 10
91.850325
 20
16.627365
 30
0.0
 10
90.911535
 20
16.090959
 30
0.0
  0
SPLINE
  5
20f
100
AcDbEntity
  8
Capa_1
 62
7
100
AcDbSpline
 70
8
 71
3
 72
8
 73
4
 74
0
 40
0
 40
0
 40
0
 40
0
 40
1
 40
1
 40
1
 40
1
 10
90.911535
 20
16.090959
 30
0.0
 10
90.649401
 20
15.938115
 30
0.0
 10
90.404994
 20
15.741657
 30
0.0
 10
90.191442
 20
15.508490
 30
0.0
  0
SPLINE
  5
210
100
AcDbEntity
  8
Capa_1
 62
7
100
AcDbSpline
 70
8
 71
3
 72
8
 73
4
 74
0
 40
0
 40
0
 40
0
 40
0
 40
1
 40
1
 40
1
 40
1
 10
90.191442
 20
15.508490
 30
0.0
 10
90.049131
 20
15.353108
 30
0.0
 10
89.924086
 20
15.185295
 30
0.0
 10
89.818172
 20
15.009270
 30
0.0
  0
SPLINE
  5
211
100
AcDbEntity
  8
Capa_1
 62
7
100
AcDbSpline
 70
8
 71
3
 72
8
 73
4
 74
0
 40
0
 40
0
 40
0
 40
0
 40
1
 40
1
 40
1
 40
1
 10
89.818172
 20
15.009270
 30
0.0
 10
89.539758
 20
14.544001
 30
0.0
 10
89.396927
 20
14.026579
 30
0.0
 10
89.396262
 20
13.534558
 30
0.0
  0
SPLINE
  5
212
100
AcDbEntity
  8
Capa_1
 62
7
100
AcDbSpline
 70
8
 71
3
 72
8
 73
4
 74
0
 40
0
 40
0
 40
0
 40
0
 40
1
 40
1
 40
1
 40
1
 10
89.396262
 20
13.534558
 30
0.0
 10
89.356782
 20
12.708978
 30
0.0
 10
89.532648
 20
11.930689
 30
0.0
 10
89.743905
 20
11.307238
 30
0.0
  0
SPLINE
  5
213
100
AcDbEntity
  8
Capa_1
 62
7
100
AcDbSpline
 70
8
 71
3
 72
8
 73
4
 74
0
 40
0
 40
0
 40
0
 40
0
 40
1
 40
1
 40
1
 40
1
 10
89.743905
 20
11.307238
 30
0.0
 10
90.064777
 20
10.361597
 30
0.0
 10
90.644027
 20
9.370992
 30
0.0
 10
90.721963
 20
9.209416
 30
0.0
  0
SPLINE
  5
214
100
AcDbEntity
  8
Capa_1
 62
7
100
AcDbSpline
 70
8
 71
3
 72
8
 73
4
 74
0
 40
0
 40
0
 40
0
 40
0
 40
1
 40
1
 40
1
 40
1
 10
90.721963
 20
9.209416
 30
0.0
 10
90.735709
 20
9.184158
 30
0.0
 10
90.747066
 20
9.161871
 30
0.0
 10
90.755907
 20
9.142727
 30
0.0
  0
SPLINE
  5
215
100
AcDbEntity
  8
Capa_1
 62
7
100
AcDbSpline
 70
8
 71
3
 72
8
 73
4
 74
0
 40
0
 40
0
 40
0
 40
0
 40
1
 40
1
 40
1
 40
1
 10
90.755907
 20
9.142727
 30
0.0
 10
90.777915
 20
9.097304
 30
0.0
 10
90.784909
 20
9.070040
 30
0.0
 10
90.775659
 20
9.062565
 30
0.0
  0
SPLINE
  5
216
100
AcDbEntity
  8
Capa_1
 62
7
100
AcDbSpline
 70
8
 71
3
 72
8
 73
4
 74
0
 40
0
 40
0
 40
0
 40
0
 40
1
 40
1
 40
1
 40
1
 10
90.775659
 20
9.062565
 30
0.0
 10
90.766407
 20
9.055088
 30
0.0
 10
90.741218
 20
9.067654
 30
0.0
 10
90.701056
 20
9.099162
 30
0.0
  0
SPLINE
  5
217
100
AcDbEntity
  8
Capa_1
 62
7
100
AcDbSpline
 70
8
 71
3
 72
8
 73
4
 74
0
 40
0
 40
0
 40
0
 40
0
 40
1
 40
1
 40
1
 40
1
 10
90.701056
 20
9.099162
 30
0.0
 10
90.684264
 20
9.112857
 30
0.0
 10
90.664780
 20
9.130082
 30
0.0
 10
90.642639
 20
9.150799
 30
0.0
  0
SPLINE
  5
218
100
AcDbEntity
  8
Capa_1
 62
7
100
AcDbSpline
 70
8
 71
3
 72
8
 73
4
 74
0
 40
0
 40
0
 40
0
 40
0
 40
1
 40
1
 40
1
 40
1
 10
90.642639
 20
9.150799
 30
0.0
 10
90.448401
 20
9.350921
 30
0.0
 10
89.840416
 20
10.101694
 30
0.0
 10
89.400882
 20
11.178883
 30
0.0
  0
SPLINE
  5
219
100
AcDbEntity
  8
Capa_1
 62
7
100
AcDbSpline
 70
8
 71
3
 72
8
 73
4
 74
0
 40
0
 40
0
 40
0
 40
0
 40
1
 40
1
 40
1
 40
1
 10
89.400882
 20
11.178883
 30
0.0
 10
89.139270
 20
11.819034
 30
0.0
 10
88.919928
 20
12.636625
 30
0.0
 10
88.939319
 20
13.540210
 30
0.0
  0
SPLINE
  5
21a
100
AcDbEntity
  8
Capa_1
 62
7
100
AcDbSpline
 70
8
 71
3
 72
8
 73
4
 74
0
 40
0
 40
0
 40
0
 40
0
 40
1
 40
1
 40
1
 40
1
 10
88.939319
 20
13.540210
 30
0.0
 10
88.928698
 20
14.116968
 30
0.0
 10
89.083408
 20
14.717741
 30
0.0
 10
89.404935
 20
15.256254
 30
0.0
  0
SPLINE
  5
21b
100
AcDbEntity
  8
Capa_1
 62
7
100
AcDbSpline
 70
8
 71
3
 72
8
 73
4
 74
0
 40
0
 40
0
 40
0
 40
0
 40
1
 40
1
 40
1
 40
1
 10
89.404935
 20
15.256254
 30
0.0
 10
89.526733
 20
15.461221
 30
0.0
 10
89.670973
 20
15.655931
 30
0.0
 10
89.835882
 20
15.835771
 30
0.0
  0
SPLINE
  5
21c
100
AcDbEntity
  8
Capa_1
 62
7
100
AcDbSpline
 70
8
 71
3
 72
8
 73
4
 74
0
 40
0
 40
0
 40
0
 40
0
 40
1
 40
1
 40
1
 40
1
 10
89.835882
 20
15.835771
 30
0.0
 10
90.083375
 20
16.105671
 30
0.0
 10
90.367808
 20
16.331638
 30
0.0
 10
90.674585
 20
16.507052
 30
0.0
  0
SPLINE
  5
21d
100
AcDbEntity
  8
Capa_1
 62
7
100
AcDbSpline
 70
8
 71
3
 72
8
 73
4
 74
0
 40
0
 40
0
 40
0
 40
0
 40
1
 40
1
 40
1
 40
1
 10
90.674585
 20
16.507052
 30
0.0
 10
91.710941
 20
17.080615
 30
0.0
 10
92.821036
 20
17.277079
 30
0.0
 10
93.734255
 20
17.312982
 30
0.0
  0
SPLINE
  5
21e
100
AcDbEntity
  8
Capa_1
 62
7
100
AcDbSpline
 70
8
 71
3
 72
8
 73
4
 74
0
 40
0
 40
0
 40
0
 40
0
 40
1
 40
1
 40
1
 40
1
 10
93.734255
 20
17.312982
 30
0.0
 10
94.667725
 20
17.350045
 30
0.0
 10
95.493662
 20
17.237805
 30
0.0
 10
96.007380
 20
17.141486
 30
0.0
  0
SPLINE
  5
21f
100
AcDbEntity
  8
Capa_1
 62
7
100
AcDbSpline
 70
8
 71
3
 72
8
 73
4
 74
0
 40
0
 40
0
 40
0
 40
0
 40
1
 40
1
 40
1
 40
1
 10
96.007380
 20
17.141486
 30
0.0
 10
96.544406
 20
17.040798
 30
0.0
 10
96.838762
 20
16.941861
 30
0.0
 10
96.832444
 20
16.904524
 30
0.0
  0
LWPOLYLINE
  5
220
100
AcDbEntity
  8
Capa_1
 62
7
100
AcDbPolyline
 90
2
 70
1
 10
96.798254
 20
17.007092
 30
0.0
 10
96.798255
 20
17.007092
 30
0.0
  0
SPLINE
  5
221
100
AcDbEntity
  8
Capa_1
 62
7
100
AcDbSpline
 70
8
 71
3
 72
8
 73
4
 74
0
 40
0
 40
0
 40
0
 40
0
 40
1
 40
1
 40
1
 40
1
 10
101.315649
 20
25.112518
 30
0.0
 10
101.319836
 20
25.133216
 30
0.0
 10
101.702821
 20
25.077425
 30
0.0
 10
102.416454
 20
24.935030
 30
0.0
  0
SPLINE
  5
222
100
AcDbEntity
  8
Capa_1
 62
7
100
AcDbSpline
 70
8
 71
3
 72
8
 73
4
 74
0
 40
0
 40
0
 40
0
 40
0
 40
1
 40
1
 40
1
 40
1
 10
102.416454
 20
24.935030
 30
0.0
 10
102.861285
 20
24.846269
 30
0.0
 10
104.439128
 20
24.499322
 30
0.0
 10
105.507724
 20
24.361016
 30
0.0
  0
SPLINE
  5
223
100
AcDbEntity
  8
Capa_1
 62
7
100
AcDbSpline
 70
8
 71
3
 72
8
 73
4
 74
0
 40
0
 40
0
 40
0
 40
0
 40
1
 40
1
 40
1
 40
1
 10
105.507724
 20
24.361016
 30
0.0
 10
106.129038
 20
24.280600
 30
0.0
 10
106.850510
 20
24.221977
 30
0.0
 10
107.594726
 20
24.262540
 30
0.0
  0
SPLINE
  5
224
100
AcDbEntity
  8
Capa_1
 62
7
100
AcDbSpline
 70
8
 71
3
 72
8
 73
4
 74
0
 40
0
 40
0
 40
0
 40
0
 40
1
 40
1
 40
1
 40
1
 10
107.594726
 20
24.262540
 30
0.0
 10
108.242468
 20
24.297068
 30
0.0
 10
108.941016
 20
24.410035
 30
0.0
 10
109.628283
 20
24.653424
 30
0.0
  0
SPLINE
  5
225
100
AcDbEntity
  8
Capa_1
 62
7
100
AcDbSpline
 70
8
 71
3
 72
8
 73
4
 74
0
 40
0
 40
0
 40
0
 40
0
 40
1
 40
1
 40
1
 40
1
 10
109.628283
 20
24.653424
 30
0.0
 10
109.856290
 20
24.762456
 30
0.0
 10
111.676866
 20
25.785419
 30
0.0
 10
112.035188
 20
25.950220
 30
0.0
  0
SPLINE
  5
226
100
AcDbEntity
  8
Capa_1
 62
7
100
AcDbSpline
 70
8
 71
3
 72
8
 73
4
 74
0
 40
0
 40
0
 40
0
 40
0
 40
1
 40
1
 40
1
 40
1
 10
112.035188
 20
25.950220
 30
0.0
 10
112.440238
 20
26.136798
 30
0.0
 10
112.884333
 20
26.298197
 30
0.0
 10
113.358068
 20
26.375234
 30
0.0
  0
SPLINE
  5
227
100
AcDbEntity
  8
Capa_1
 62
7
100
AcDbSpline
 70
8
 71
3
 72
8
 73
4
 74
0
 40
0
 40
0
 40
0
 40
0
 40
1
 40
1
 40
1
 40
1
 10
113.358068
 20
26.375234
 30
0.0
 10
113.821217
 20
26.450685
 30
0.0
 10
114.312752
 20
26.434221
 30
0.0
 10
114.788184
 20
26.302580
 30
0.0
  0
SPLINE
  5
228
100
AcDbEntity
  8
Capa_1
 62
7
100
AcDbSpline
 70
8
 71
3
 72
8
 73
4
 74
0
 40
0
 40
0
 40
0
 40
0
 40
1
 40
1
 40
1
 40
1
 10
114.788184
 20
26.302580
 30
0.0
 10
115.589533
 20
26.139589
 30
0.0
 10
116.344703
 20
25.845318
 30
0.0
 10
117.126430
 20
25.515782
 30
0.0
  0
SPLINE
  5
229
100
AcDbEntity
  8
Capa_1
 62
7
100
AcDbSpline
 70
8
 71
3
 72
8
 73
4
 74
0
 40
0
 40
0
 40
0
 40
0
 40
1
 40
1
 40
1
 40
1
 10
117.126430
 20
25.515782
 30
0.0
 10
117.816489
 20
25.206881
 30
0.0
 10
118.546935
 20
24.859515
 30
0.0
 10
119.281251
 20
24.633818
 30
0.0
  0
SPLINE
  5
22a
100
AcDbEntity
  8
Capa_1
 62
7
100
AcDbSpline
 70
8
 71
3
 72
8
 73
4
 74
0
 40
0
 40
0
 40
0
 40
0
 40
1
 40
1
 40
1
 40
1
 10
119.281251
 20
24.633818
 30
0.0
 10
119.979349
 20
25.278320
 30
0.0
 10
120.549987
 20
26.085220
 30
0.0
 10
121.029421
 20
26.985137
 30
0.0
  0
SPLINE
  5
22b
100
AcDbEntity
  8
Capa_1
 62
7
100
AcDbSpline
 70
8
 71
3
 72
8
 73
4
 74
0
 40
0
 40
0
 40
0
 40
0
 40
1
 40
1
 40
1
 40
1
 10
121.029421
 20
26.985137
 30
0.0
 10
121.544756
 20
27.896810
 30
0.0
 10
121.963577
 20
28.903303
 30
0.0
 10
122.174376
 20
29.968733
 30
0.0
  0
SPLINE
  5
22c
100
AcDbEntity
  8
Capa_1
 62
7
100
AcDbSpline
 70
8
 71
3
 72
8
 73
4
 74
0
 40
0
 40
0
 40
0
 40
0
 40
1
 40
1
 40
1
 40
1
 10
122.174376
 20
29.968733
 30
0.0
 10
122.268367
 20
30.444306
 30
0.0
 10
122.320718
 20
30.932017
 30
0.0
 10
122.301016
 20
31.416939
 30
0.0
  0
SPLINE
  5
22d
100
AcDbEntity
  8
Capa_1
 62
7
100
AcDbSpline
 70
8
 71
3
 72
8
 73
4
 74
0
 40
0
 40
0
 40
0
 40
0
 40
1
 40
1
 40
1
 40
1
 10
122.301016
 20
31.416939
 30
0.0
 10
122.282844
 20
31.853129
 30
0.0
 10
122.208590
 20
32.289501
 30
0.0
 10
122.047809
 20
32.689957
 30
0.0
  0
SPLINE
  5
22e
100
AcDbEntity
  8
Capa_1
 62
7
100
AcDbSpline
 70
8
 71
3
 72
8
 73
4
 74
0
 40
0
 40
0
 40
0
 40
0
 40
1
 40
1
 40
1
 40
1
 10
122.047809
 20
32.689957
 30
0.0
 10
121.896071
 20
33.069830
 30
0.0
 10
121.663640
 20
33.421549
 30
0.0
 10
121.362707
 20
33.700583
 30
0.0
  0
SPLINE
  5
22f
100
AcDbEntity
  8
Capa_1
 62
7
100
AcDbSpline
 70
8
 71
3
 72
8
 73
4
 74
0
 40
0
 40
0
 40
0
 40
0
 40
1
 40
1
 40
1
 40
1
 10
121.362707
 20
33.700583
 30
0.0
 10
121.025406
 20
34.014105
 30
0.0
 10
120.600412
 20
34.241341
 30
0.0
 10
120.144641
 20
34.394254
 30
0.0
  0
SPLINE
  5
230
100
AcDbEntity
  8
Capa_1
 62
7
100
AcDbSpline
 70
8
 71
3
 72
8
 73
4
 74
0
 40
0
 40
0
 40
0
 40
0
 40
1
 40
1
 40
1
 40
1
 10
120.144641
 20
34.394254
 30
0.0
 10
119.536923
 20
34.684946
 30
0.0
 10
118.891706
 20
34.909058
 30
0.0
 10
118.225291
 20
35.116045
 30
0.0
  0
SPLINE
  5
231
100
AcDbEntity
  8
Capa_1
 62
7
100
AcDbSpline
 70
8
 71
3
 72
8
 73
4
 74
0
 40
0
 40
0
 40
0
 40
0
 40
1
 40
1
 40
1
 40
1
 10
118.225291
 20
35.116045
 30
0.0
 10
117.599999
 20
35.309456
 30
0.0
 10
116.868438
 20
35.510882
 30
0.0
 10
116.223005
 20
35.714951
 30
0.0
  0
SPLINE
  5
232
100
AcDbEntity
  8
Capa_1
 62
7
100
AcDbSpline
 70
8
 71
3
 72
8
 73
4
 74
0
 40
0
 40
0
 40
0
 40
0
 40
1
 40
1
 40
1
 40
1
 10
116.223005
 20
35.714951
 30
0.0
 10
116.057191
 20
35.767273
 30
0.0
 10
115.891074
 20
35.821605
 30
0.0
 10
115.725261
 20
35.878670
 30
0.0
  0
SPLINE
  5
233
100
AcDbEntity
  8
Capa_1
 62
7
100
AcDbSpline
 70
8
 71
3
 72
8
 73
4
 74
0
 40
0
 40
0
 40
0
 40
0
 40
1
 40
1
 40
1
 40
1
 10
115.725261
 20
35.878670
 30
0.0
 10
115.227142
 20
36.050099
 30
0.0
 10
114.737464
 20
36.244246
 30
0.0
 10
114.265391
 20
36.481179
 30
0.0
  0
SPLINE
  5
234
100
AcDbEntity
  8
Capa_1
 62
7
100
AcDbSpline
 70
8
 71
3
 72
8
 73
4
 74
0
 40
0
 40
0
 40
0
 40
0
 40
1
 40
1
 40
1
 40
1
 10
114.265391
 20
36.481179
 30
0.0
 10
113.625620
 20
36.800680
 30
0.0
 10
113.029284
 20
37.204138
 30
0.0
 10
112.518801
 20
37.700506
 30
0.0
  0
SPLINE
  5
235
100
AcDbEntity
  8
Capa_1
 62
7
100
AcDbSpline
 70
8
 71
3
 72
8
 73
4
 74
0
 40
0
 40
0
 40
0
 40
0
 40
1
 40
1
 40
1
 40
1
 10
112.518801
 20
37.700506
 30
0.0
 10
111.391338
 20
38.500551
 30
0.0
 10
110.056533
 20
38.960961
 30
0.0
 10
108.731524
 20
39.029106
 30
0.0
  0
SPLINE
  5
236
100
AcDbEntity
  8
Capa_1
 62
7
100
AcDbSpline
 70
8
 71
3
 72
8
 73
4
 74
0
 40
0
 40
0
 40
0
 40
0
 40
1
 40
1
 40
1
 40
1
 10
108.731524
 20
39.029106
 30
0.0
 10
108.052858
 20
39.065609
 30
0.0
 10
107.378211
 20
38.997281
 30
0.0
 10
106.746816
 20
38.810794
 30
0.0
  0
SPLINE
  5
237
100
AcDbEntity
  8
Capa_1
 62
7
100
AcDbSpline
 70
8
 71
3
 72
8
 73
4
 74
0
 40
0
 40
0
 40
0
 40
0
 40
1
 40
1
 40
1
 40
1
 10
106.746816
 20
38.810794
 30
0.0
 10
106.090508
 20
38.616666
 30
0.0
 10
105.482084
 20
38.293861
 30
0.0
 10
104.971418
 20
37.869372
 30
0.0
  0
SPLINE
  5
238
100
AcDbEntity
  8
Capa_1
 62
7
100
AcDbSpline
 70
8
 71
3
 72
8
 73
4
 74
0
 40
0
 40
0
 40
0
 40
0
 40
1
 40
1
 40
1
 40
1
 10
104.971418
 20
37.869372
 30
0.0
 10
104.359282
 20
37.406991
 30
0.0
 10
103.834933
 20
36.847213
 30
0.0
 10
103.405840
 20
36.239163
 30
0.0
  0
SPLINE
  5
239
100
AcDbEntity
  8
Capa_1
 62
7
100
AcDbSpline
 70
8
 71
3
 72
8
 73
4
 74
0
 40
0
 40
0
 40
0
 40
0
 40
1
 40
1
 40
1
 40
1
 10
103.405840
 20
36.239163
 30
0.0
 10
102.965164
 20
35.614152
 30
0.0
 10
102.620953
 20
34.933564
 30
0.0
 10
102.351916
 20
34.243874
 30
0.0
  0
SPLINE
  5
23a
100
AcDbEntity
  8
Capa_1
 62
7
100
AcDbSpline
 70
8
 71
3
 72
8
 73
4
 74
0
 40
0
 40
0
 40
0
 40
0
 40
1
 40
1
 40
1
 40
1
 10
102.351916
 20
34.243874
 30
0.0
 10
101.772215
 20
32.758447
 30
0.0
 10
101.520329
 20
31.190447
 30
0.0
 10
101.407067
 20
29.748416
 30
0.0
  0
SPLINE
  5
23b
100
AcDbEntity
  8
Capa_1
 62
7
100
AcDbSpline
 70
8
 71
3
 72
8
 73
4
 74
0
 40
0
 40
0
 40
0
 40
0
 40
1
 40
1
 40
1
 40
1
 10
101.407067
 20
29.748416
 30
0.0
 10
101.270916
 20
28.449869
 30
0.0
 10
101.257041
 20
26.973013
 30
0.0
 10
101.215025
 20
25.821637
 30
0.0
  0
SPLINE
  5
23c
100
AcDbEntity
  8
Capa_1
 62
7
100
AcDbSpline
 70
8
 71
3
 72
8
 73
4
 74
0
 40
0
 40
0
 40
0
 40
0
 40
1
 40
1
 40
1
 40
1
 10
101.215025
 20
25.821637
 30
0.0
 10
101.160312
 20
24.326862
 30
0.0
 10
101.055638
 20
23.081656
 30
0.0
 10
100.780913
 20
21.877443
 30
0.0
  0
SPLINE
  5
23d
100
AcDbEntity
  8
Capa_1
 62
7
100
AcDbSpline
 70
8
 71
3
 72
8
 73
4
 74
0
 40
0
 40
0
 40
0
 40
0
 40
1
 40
1
 40
1
 40
1
 10
100.780913
 20
21.877443
 30
0.0
 10
100.577057
 20
21.332173
 30
0.0
 10
100.293321
 20
20.850228
 30
0.0
 10
99.997669
 20
20.440676
 30
0.0
  0
SPLINE
  5
23e
100
AcDbEntity
  8
Capa_1
 62
7
100
AcDbSpline
 70
8
 71
3
 72
8
 73
4
 74
0
 40
0
 40
0
 40
0
 40
0
 40
1
 40
1
 40
1
 40
1
 10
99.997669
 20
20.440676
 30
0.0
 10
99.659955
 20
19.974435
 30
0.0
 10
99.280371
 20
19.560635
 30
0.0
 10
98.951856
 20
19.222205
 30
0.0
  0
SPLINE
  5
23f
100
AcDbEntity
  8
Capa_1
 62
7
100
AcDbSpline
 70
8
 71
3
 72
8
 73
4
 74
0
 40
0
 40
0
 40
0
 40
0
 40
1
 40
1
 40
1
 40
1
 10
98.951856
 20
19.222205
 30
0.0
 10
97.352674
 20
17.573126
 30
0.0
 10
98.518290
 20
18.859253
 30
0.0
 10
97.278462
 20
17.546508
 30
0.0
  0
SPLINE
  5
240
100
AcDbEntity
  8
Capa_1
 62
7
100
AcDbSpline
 70
8
 71
3
 72
8
 73
4
 74
0
 40
0
 40
0
 40
0
 40
0
 40
1
 40
1
 40
1
 40
1
 10
97.278462
 20
17.546508
 30
0.0
 10
96.907844
 20
17.154094
 30
0.0
 10
96.729455
 20
16.930474
 30
0.0
 10
96.713133
 20
16.942831
 30
0.0
  0
SPLINE
  5
241
100
AcDbEntity
  8
Capa_1
 62
7
100
AcDbSpline
 70
8
 71
3
 72
8
 73
4
 74
0
 40
0
 40
0
 40
0
 40
0
 40
1
 40
1
 40
1
 40
1
 10
96.713133
 20
16.942831
 30
0.0
 10
96.700979
 20
16.952033
 30
0.0
 10
96.851952
 20
17.197107
 30
0.0
 10
97.200720
 20
17.615489
 30
0.0
  0
SPLINE
  5
242
100
AcDbEntity
  8
Capa_1
 62
7
100
AcDbSpline
 70
8
 71
3
 72
8
 73
4
 74
0
 40
0
 40
0
 40
0
 40
0
 40
1
 40
1
 40
1
 40
1
 10
97.200720
 20
17.615489
 30
0.0
 10
97.781724
 20
18.312463
 30
0.0
 10
97.870843
 20
18.336929
 30
0.0
 10
98.806014
 20
19.359567
 30
0.0
  0
SPLINE
  5
243
100
AcDbEntity
  8
Capa_1
 62
7
100
AcDbSpline
 70
8
 71
3
 72
8
 73
4
 74
0
 40
0
 40
0
 40
0
 40
0
 40
1
 40
1
 40
1
 40
1
 10
98.806014
 20
19.359567
 30
0.0
 10
99.120781
 20
19.704117
 30
0.0
 10
99.484181
 20
20.121548
 30
0.0
 10
99.799892
 20
20.580374
 30
0.0
  0
SPLINE
  5
244
100
AcDbEntity
  8
Capa_1
 62
7
100
AcDbSpline
 70
8
 71
3
 72
8
 73
4
 74
0
 40
0
 40
0
 40
0
 40
0
 40
1
 40
1
 40
1
 40
1
 10
99.799892
 20
20.580374
 30
0.0
 10
100.074847
 20
20.978653
 30
0.0
 10
100.336004
 20
21.441057
 30
0.0
 10
100.516217
 20
21.954016
 30
0.0
  0
SPLINE
  5
245
100
AcDbEntity
  8
Capa_1
 62
7
100
AcDbSpline
 70
8
 71
3
 72
8
 73
4
 74
0
 40
0
 40
0
 40
0
 40
0
 40
1
 40
1
 40
1
 40
1
 10
100.516217
 20
21.954016
 30
0.0
 10
100.762497
 20
23.135193
 30
0.0
 10
100.841851
 20
24.350581
 30
0.0
 10
100.874928
 20
25.831672
 30
0.0
  0
SPLINE
  5
246
100
AcDbEntity
  8
Capa_1
 62
7
100
AcDbSpline
 70
8
 71
3
 72
8
 73
4
 74
0
 40
0
 40
0
 40
0
 40
0
 40
1
 40
1
 40
1
 40
1
 10
100.874928
 20
25.831672
 30
0.0
 10
100.900728
 20
26.979562
 30
0.0
 10
100.896783
 20
28.453119
 30
0.0
 10
101.021628
 20
29.781585
 30
0.0
  0
SPLINE
  5
247
100
AcDbEntity
  8
Capa_1
 62
7
100
AcDbSpline
 70
8
 71
3
 72
8
 73
4
 74
0
 40
0
 40
0
 40
0
 40
0
 40
1
 40
1
 40
1
 40
1
 10
101.021628
 20
29.781585
 30
0.0
 10
101.119995
 20
31.247438
 30
0.0
 10
101.365365
 20
32.853034
 30
0.0
 10
101.953302
 20
34.397490
 30
0.0
  0
SPLINE
  5
248
100
AcDbEntity
  8
Capa_1
 62
7
100
AcDbSpline
 70
8
 71
3
 72
8
 73
4
 74
0
 40
0
 40
0
 40
0
 40
0
 40
1
 40
1
 40
1
 40
1
 10
101.953302
 20
34.397490
 30
0.0
 10
102.227004
 20
35.116140
 30
0.0
 10
102.582757
 20
35.829893
 30
0.0
 10
103.043316
 20
36.492836
 30
0.0
  0
SPLINE
  5
249
100
AcDbEntity
  8
Capa_1
 62
7
100
AcDbSpline
 70
8
 71
3
 72
8
 73
4
 74
0
 40
0
 40
0
 40
0
 40
0
 40
1
 40
1
 40
1
 40
1
 10
103.043316
 20
36.492836
 30
0.0
 10
103.489981
 20
37.136331
 30
0.0
 10
104.040216
 20
37.730384
 30
0.0
 10
104.687897
 20
38.225265
 30
0.0
  0
SPLINE
  5
24a
100
AcDbEntity
  8
Capa_1
 62
7
100
AcDbSpline
 70
8
 71
3
 72
8
 73
4
 74
0
 40
0
 40
0
 40
0
 40
0
 40
1
 40
1
 40
1
 40
1
 10
104.687897
 20
38.225265
 30
0.0
 10
105.243322
 20
38.690780
 30
0.0
 10
105.902079
 20
39.043979
 30
0.0
 10
106.614696
 20
39.256048
 30
0.0
  0
SPLINE
  5
24b
100
AcDbEntity
  8
Capa_1
 62
7
100
AcDbSpline
 70
8
 71
3
 72
8
 73
4
 74
0
 40
0
 40
0
 40
0
 40
0
 40
1
 40
1
 40
1
 40
1
 10
106.614696
 20
39.256048
 30
0.0
 10
107.301531
 20
39.460716
 30
0.0
 10
108.028753
 20
39.538033
 30
0.0
 10
108.756431
 20
39.500177
 30
0.0
  0
SPLINE
  5
24c
100
AcDbEntity
  8
Capa_1
 62
7
100
AcDbSpline
 70
8
 71
3
 72
8
 73
4
 74
0
 40
0
 40
0
 40
0
 40
0
 40
1
 40
1
 40
1
 40
1
 10
108.756431
 20
39.500177
 30
0.0
 10
110.182562
 20
39.422859
 30
0.0
 10
111.612353
 20
38.929520
 30
0.0
 10
112.825574
 20
38.069168
 30
0.0
  0
SPLINE
  5
24d
100
AcDbEntity
  8
Capa_1
 62
7
100
AcDbSpline
 70
8
 71
3
 72
8
 73
4
 74
0
 40
0
 40
0
 40
0
 40
0
 40
1
 40
1
 40
1
 40
1
 10
112.825574
 20
38.069168
 30
0.0
 10
113.303925
 20
37.604638
 30
0.0
 10
113.870218
 20
37.222417
 30
0.0
 10
114.482303
 20
36.912808
 30
0.0
  0
SPLINE
  5
24e
100
AcDbEntity
  8
Capa_1
 62
7
100
AcDbSpline
 70
8
 71
3
 72
8
 73
4
 74
0
 40
0
 40
0
 40
0
 40
0
 40
1
 40
1
 40
1
 40
1
 10
114.482303
 20
36.912808
 30
0.0
 10
114.928485
 20
36.688281
 30
0.0
 10
115.398254
 20
36.502796
 30
0.0
 10
115.882671
 20
36.336148
 30
0.0
  0
SPLINE
  5
24f
100
AcDbEntity
  8
Capa_1
 62
7
100
AcDbSpline
 70
8
 71
3
 72
8
 73
4
 74
0
 40
0
 40
0
 40
0
 40
0
 40
1
 40
1
 40
1
 40
1
 10
115.882671
 20
36.336148
 30
0.0
 10
116.043919
 20
36.280676
 30
0.0
 10
116.206184
 20
36.227498
 30
0.0
 10
116.368839
 20
36.175899
 30
0.0
  0
SPLINE
  5
250
100
AcDbEntity
  8
Capa_1
 62
7
100
AcDbSpline
 70
8
 71
3
 72
8
 73
4
 74
0
 40
0
 40
0
 40
0
 40
0
 40
1
 40
1
 40
1
 40
1
 10
116.368839
 20
36.175899
 30
0.0
 10
116.998951
 20
35.976413
 30
0.0
 10
117.735077
 20
35.773086
 30
0.0
 10
118.368004
 20
35.576686
 30
0.0
  0
SPLINE
  5
251
100
AcDbEntity
  8
Capa_1
 62
7
100
AcDbSpline
 70
8
 71
3
 72
8
 73
4
 74
0
 40
0
 40
0
 40
0
 40
0
 40
1
 40
1
 40
1
 40
1
 10
118.368004
 20
35.576686
 30
0.0
 10
119.035525
 20
35.370403
 30
0.0
 10
119.693232
 20
35.140443
 30
0.0
 10
120.323884
 20
34.837845
 30
0.0
  0
SPLINE
  5
252
100
AcDbEntity
  8
Capa_1
 62
7
100
AcDbSpline
 70
8
 71
3
 72
8
 73
4
 74
0
 40
0
 40
0
 40
0
 40
0
 40
1
 40
1
 40
1
 40
1
 10
120.323884
 20
34.837845
 30
0.0
 10
120.824335
 20
34.672550
 30
0.0
 10
121.297969
 20
34.413145
 30
0.0
 10
121.687510
 20
34.048906
 30
0.0
  0
SPLINE
  5
253
100
AcDbEntity
  8
Capa_1
 62
7
100
AcDbSpline
 70
8
 71
3
 72
8
 73
4
 74
0
 40
0
 40
0
 40
0
 40
0
 40
1
 40
1
 40
1
 40
1
 10
121.687510
 20
34.048906
 30
0.0
 10
122.042359
 20
33.716439
 30
0.0
 10
122.312691
 20
33.306604
 30
0.0
 10
122.487205
 20
32.864320
 30
0.0
  0
SPLINE
  5
254
100
AcDbEntity
  8
Capa_1
 62
7
100
AcDbSpline
 70
8
 71
3
 72
8
 73
4
 74
0
 40
0
 40
0
 40
0
 40
0
 40
1
 40
1
 40
1
 40
1
 10
122.487205
 20
32.864320
 30
0.0
 10
122.669108
 20
32.401210
 30
0.0
 10
122.752608
 20
31.912821
 30
0.0
 10
122.768974
 20
31.434615
 30
0.0
  0
SPLINE
  5
255
100
AcDbEntity
  8
Capa_1
 62
7
100
AcDbSpline
 70
8
 71
3
 72
8
 73
4
 74
0
 40
0
 40
0
 40
0
 40
0
 40
1
 40
1
 40
1
 40
1
 10
122.768974
 20
31.434615
 30
0.0
 10
122.787624
 20
30.904178
 30
0.0
 10
122.730324
 20
30.380461
 30
0.0
 10
122.627843
 20
29.877670
 30
0.0
  0
SPLINE
  5
256
100
AcDbEntity
  8
Capa_1
 62
7
100
AcDbSpline
 70
8
 71
3
 72
8
 73
4
 74
0
 40
0
 40
0
 40
0
 40
0
 40
1
 40
1
 40
1
 40
1
 10
122.627843
 20
29.877670
 30
0.0
 10
122.399017
 20
28.753912
 30
0.0
 10
121.957947
 20
27.704955
 30
0.0
 10
121.417310
 20
26.764041
 30
0.0
  0
SPLINE
  5
257
100
AcDbEntity
  8
Capa_1
 62
7
100
AcDbSpline
 70
8
 71
3
 72
8
 73
4
 74
0
 40
0
 40
0
 40
0
 40
0
 40
1
 40
1
 40
1
 40
1
 10
121.417310
 20
26.764041
 30
0.0
 10
120.844686
 20
25.818238
 30
0.0
 10
120.171211
 20
24.963143
 30
0.0
 10
119.363883
 20
24.269485
 30
0.0
  0
SPLINE
  5
258
100
AcDbEntity
  8
Capa_1
 62
7
100
AcDbSpline
 70
8
 71
3
 72
8
 73
4
 74
0
 40
0
 40
0
 40
0
 40
0
 40
1
 40
1
 40
1
 40
1
 10
119.363883
 20
24.269485
 30
0.0
 10
118.521609
 20
24.498122
 30
0.0
 10
117.711256
 20
24.840769
 30
0.0
 10
116.967255
 20
25.141117
 30
0.0
  0
SPLINE
  5
259
100
AcDbEntity
  8
Capa_1
 62
7
100
AcDbSpline
 70
8
 71
3
 72
8
 73
4
 74
0
 40
0
 40
0
 40
0
 40
0
 40
1
 40
1
 40
1
 40
1
 10
116.967255
 20
25.141117
 30
0.0
 10
116.187966
 20
25.474775
 30
0.0
 10
115.458113
 20
25.769066
 30
0.0
 10
114.696943
 20
25.930038
 30
0.0
  0
SPLINE
  5
25a
100
AcDbEntity
  8
Capa_1
 62
7
100
AcDbSpline
 70
8
 71
3
 72
8
 73
4
 74
0
 40
0
 40
0
 40
0
 40
0
 40
1
 40
1
 40
1
 40
1
 10
114.696943
 20
25.930038
 30
0.0
 10
114.276520
 20
26.052069
 30
0.0
 10
113.834022
 20
26.072173
 30
0.0
 10
113.414570
 20
26.010790
 30
0.0
  0
SPLINE
  5
25b
100
AcDbEntity
  8
Capa_1
 62
7
100
AcDbSpline
 70
8
 71
3
 72
8
 73
4
 74
0
 40
0
 40
0
 40
0
 40
0
 40
1
 40
1
 40
1
 40
1
 10
113.414570
 20
26.010790
 30
0.0
 10
112.985867
 20
25.947917
 30
0.0
 10
112.570086
 20
25.801011
 30
0.0
 10
112.180159
 20
25.628907
 30
0.0
  0
SPLINE
  5
25c
100
AcDbEntity
  8
Capa_1
 62
7
100
AcDbSpline
 70
8
 71
3
 72
8
 73
4
 74
0
 40
0
 40
0
 40
0
 40
0
 40
1
 40
1
 40
1
 40
1
 10
112.180159
 20
25.628907
 30
0.0
 10
111.869418
 20
25.491507
 30
0.0
 10
109.991881
 20
24.476364
 30
0.0
 10
109.745893
 20
24.363294
 30
0.0
  0
SPLINE
  5
25d
100
AcDbEntity
  8
Capa_1
 62
7
100
AcDbSpline
 70
8
 71
3
 72
8
 73
4
 74
0
 40
0
 40
0
 40
0
 40
0
 40
1
 40
1
 40
1
 40
1
 10
109.745893
 20
24.363294
 30
0.0
 10
109.014279
 20
24.117572
 30
0.0
 10
108.281302
 20
24.010655
 30
0.0
 10
107.606923
 20
23.986720
 30
0.0
  0
SPLINE
  5
25e
100
AcDbEntity
  8
Capa_1
 62
7
100
AcDbSpline
 70
8
 71
3
 72
8
 73
4
 74
0
 40
0
 40
0
 40
0
 40
0
 40
1
 40
1
 40
1
 40
1
 10
107.606923
 20
23.986720
 30
0.0
 10
106.837521
 20
23.960358
 30
0.0
 10
106.103575
 20
24.036077
 30
0.0
 10
105.475332
 20
24.133820
 30
0.0
  0
SPLINE
  5
25f
100
AcDbEntity
  8
Capa_1
 62
7
100
AcDbSpline
 70
8
 71
3
 72
8
 73
4
 74
0
 40
0
 40
0
 40
0
 40
0
 40
1
 40
1
 40
1
 40
1
 10
105.475332
 20
24.133820
 30
0.0
 10
104.314834
 20
24.314376
 30
0.0
 10
102.904563
 20
24.686290
 30
0.0
 10
102.389792
 20
24.817684
 30
0.0
  0
SPLINE
  5
260
100
AcDbEntity
  8
Capa_1
 62
7
100
AcDbSpline
 70
8
 71
3
 72
8
 73
4
 74
0
 40
0
 40
0
 40
0
 40
0
 40
1
 40
1
 40
1
 40
1
 10
102.389792
 20
24.817684
 30
0.0
 10
101.686128
 20
24.997292
 30
0.0
 10
101.311608
 20
25.092551
 30
0.0
 10
101.315649
 20
25.112518
 30
0.0
  0
LWPOLYLINE
  5
261
100
AcDbEntity
  8
Capa_1
 62
7
100
AcDbPolyline
 90
2
 70
1
 10
96.832444
 20
16.904524
 30
0.0
 10
96.832444
 20
16.904524
 30
0.0
  0
SPLINE
  5
262
100
AcDbEntity
  8
Capa_1
 62
5
100
AcDbSpline
 70
8
 71
3
 72
8
 73
4
 74
0
 40
0
 40
0
 40
0
 40
0
 40
1
 40
1
 40
1
 40
1
 10
94.296004
 20
74.471469
 30
0.0
 10
94.283183
 20
73.944930
 30
0.0
 10
94.272080
 20
73.415500
 30
0.0
 10
94.331460
 20
72.891341
 30
0.0
  0
SPLINE
  5
263
100
AcDbEntity
  8
Capa_1
 62
5
100
AcDbSpline
 70
8
 71
3
 72
8
 73
4
 74
0
 40
0
 40
0
 40
0
 40
0
 40
1
 40
1
 40
1
 40
1
 10
94.331460
 20
72.891341
 30
0.0
 10
94.380607
 20
72.511039
 30
0.0
 10
94.608201
 20
72.159082
 30
0.0
 10
94.905551
 20
71.936659
 30
0.0
  0
SPLINE
  5
264
100
AcDbEntity
  8
Capa_1
 62
5
100
AcDbSpline
 70
8
 71
3
 72
8
 73
4
 74
0
 40
0
 40
0
 40
0
 40
0
 40
1
 40
1
 40
1
 40
1
 10
94.905551
 20
71.936659
 30
0.0
 10
95.150382
 20
71.753522
 30
0.0
 10
95.484484
 20
71.684427
 30
0.0
 10
95.793116
 20
71.705224
 30
0.0
  0
SPLINE
  5
265
100
AcDbEntity
  8
Capa_1
 62
5
100
AcDbSpline
 70
8
 71
3
 72
8
 73
4
 74
0
 40
0
 40
0
 40
0
 40
0
 40
1
 40
1
 40
1
 40
1
 10
95.793116
 20
71.705224
 30
0.0
 10
96.071015
 20
71.733315
 30
0.0
 10
96.310496
 20
71.902117
 30
0.0
 10
96.505204
 20
72.088547
 30
0.0
  0
SPLINE
  5
266
100
AcDbEntity
  8
Capa_1
 62
5
100
AcDbSpline
 70
8
 71
3
 72
8
 73
4
 74
0
 40
0
 40
0
 40
0
 40
0
 40
1
 40
1
 40
1
 40
1
 10
96.505204
 20
72.088547
 30
0.0
 10
96.678382
 20
72.254362
 30
0.0
 10
96.798633
 20
72.478664
 30
0.0
 10
96.873321
 20
72.706496
 30
0.0
  0
SPLINE
  5
267
100
AcDbEntity
  8
Capa_1
 62
5
100
AcDbSpline
 70
8
 71
3
 72
8
 73
4
 74
0
 40
0
 40
0
 40
0
 40
0
 40
1
 40
1
 40
1
 40
1
 10
96.873321
 20
72.706496
 30
0.0
 10
96.949436
 20
72.938682
 30
0.0
 10
96.930541
 20
73.192894
 30
0.0
 10
96.943802
 20
73.436134
 30
0.0
  0
SPLINE
  5
268
100
AcDbEntity
  8
Capa_1
 62
5
100
AcDbSpline
 70
8
 71
3
 72
8
 73
4
 74
0
 40
0
 40
0
 40
0
 40
0
 40
1
 40
1
 40
1
 40
1
 10
96.943802
 20
73.436134
 30
0.0
 10
96.946389
 20
73.790123
 30
0.0
 10
96.946064
 20
74.144130
 30
0.0
 10
96.944005
 20
74.498120
 30
0.0
  0
LWPOLYLINE
  5
269
100
AcDbEntity
  8
Capa_1
 62
7
100
AcDbPolyline
 90
2
 70
1
 10
101.315649
 20
25.112518
 30
0.0
 10
101.315649
 20
25.112518
 30
0.0
  0
LWPOLYLINE
  5
26a
100
AcDbEntity
  8
Capa_1
 62
5
100
AcDbPolyline
 90
5
 70
0
 10
91.243290
 20
71.652734
 30
0.0
 10
91.276689
 20
74.124177
 30
0.0
 10
92.512410
 20
71.919917
 30
0.0
 10
93.831626
 20
74.241070
 30
0.0
 10
93.831626
 20
71.686133
 30
0.0
  0
LWPOLYLINE
  5
26b
100
AcDbEntity
  8
Capa_1
 62
5
100
AcDbPolyline
 90
5
 70
0
 10
97.421898
 20
71.602638
 30
0.0
 10
97.455296
 20
74.074080
 30
0.0
 10
98.691018
 20
71.869821
 30
0.0
 10
100.010234
 20
74.190974
 30
0.0
 10
100.010234
 20
71.636037
 30
0.0
  0
LWPOLYLINE
  5
26c
100
AcDbEntity
  8
Capa_1
 62
5
100
AcDbPolyline
 90
3
 70
0
 10
100.411008
 20
71.636035
 30
0.0
 10
101.913913
 20
74.441457
 30
0.0
 10
103.433515
 20
71.585939
 30
0.0
  0
LWPOLYLINE
  5
26d
100
AcDbEntity
  8
Capa_1
 62
5
100
AcDbPolyline
 90
4
 70
0
 10
103.850988
 20
74.708640
 30
0.0
 10
103.850988
 20
71.585939
 30
0.0
 10
103.901084
 20
71.585939
 30
0.0
 10
103.850988
 20
71.585939
 30
0.0
  0
LWPOLYLINE
  5
26e
100
AcDbEntity
  8
Capa_1
 62
5
100
AcDbPolyline
 90
3
 70
0
 10
106.522819
 20
74.691942
 30
0.0
 10
104.518946
 20
72.721466
 30
0.0
 10
106.556216
 20
70.667497
 30
0.0
  0
LWPOLYLINE
  5
26f
100
AcDbEntity
  8
Capa_1
 62
5
100
AcDbPolyline
 90
4
 70
0
 10
109.211348
 20
74.591748
 30
0.0
 10
106.973689
 20
74.608442
 30
0.0
 10
106.973689
 20
71.669428
 30
0.0
 10
109.211348
 20
71.669428
 30
0.0
  0
LWPOLYLINE
  5
270
100
AcDbEntity
  8
Capa_1
 62
5
100
AcDbPolyline
 90
2
 70
0
 10
107.457960
 20
72.587875
 30
0.0
 10
109.228047
 20
72.604569
 30
0.0
  0
SPLINE
  5
271
100
AcDbEntity
  8
Capa_1
 62
5
100
AcDbSpline
 70
8
 71
3
 72
8
 73
4
 74
0
 40
0
 40
0
 40
0
 40
0
 40
1
 40
1
 40
1
 40
1
 10
109.612121
 20
74.591748
 30
0.0
 10
109.612121
 20
74.591748
 30
0.0
 10
110.296009
 20
74.632195
 30
0.0
 10
110.630757
 20
74.575054
 30
0.0
  0
SPLINE
  5
272
100
AcDbEntity
  8
Capa_1
 62
5
100
AcDbSpline
 70
8
 71
3
 72
8
 73
4
 74
0
 40
0
 40
0
 40
0
 40
0
 40
1
 40
1
 40
1
 40
1
 10
110.630757
 20
74.575054
 30
0.0
 10
110.769567
 20
74.551360
 30
0.0
 10
110.888040
 20
74.527781
 30
0.0
 10
111.031531
 20
74.441463
 30
0.0
  0
SPLINE
  5
273
100
AcDbEntity
  8
Capa_1
 62
5
100
AcDbSpline
 70
8
 71
3
 72
8
 73
4
 74
0
 40
0
 40
0
 40
0
 40
0
 40
1
 40
1
 40
1
 40
1
 10
111.031531
 20
74.441463
 30
0.0
 10
111.149625
 20
74.370422
 30
0.0
 10
111.310844
 20
74.272334
 30
0.0
 10
111.398908
 20
74.140882
 30
0.0
  0
SPLINE
  5
274
100
AcDbEntity
  8
Capa_1
 62
5
100
AcDbSpline
 70
8
 71
3
 72
8
 73
4
 74
0
 40
0
 40
0
 40
0
 40
0
 40
1
 40
1
 40
1
 40
1
 10
111.398908
 20
74.140882
 30
0.0
 10
111.473389
 20
74.029701
 30
0.0
 10
111.496105
 20
73.889172
 30
0.0
 10
111.515802
 20
73.756807
 30
0.0
  0
SPLINE
  5
275
100
AcDbEntity
  8
Capa_1
 62
5
100
AcDbSpline
 70
8
 71
3
 72
8
 73
4
 74
0
 40
0
 40
0
 40
0
 40
0
 40
1
 40
1
 40
1
 40
1
 10
111.515802
 20
73.756807
 30
0.0
 10
111.537923
 20
73.608153
 30
0.0
 10
111.541965
 20
73.453930
 30
0.0
 10
111.515802
 20
73.305935
 30
0.0
  0
SPLINE
  5
276
100
AcDbEntity
  8
Capa_1
 62
5
100
AcDbSpline
 70
8
 71
3
 72
8
 73
4
 74
0
 40
0
 40
0
 40
0
 40
0
 40
1
 40
1
 40
1
 40
1
 10
111.515802
 20
73.305935
 30
0.0
 10
111.491618
 20
73.169142
 30
0.0
 10
111.454764
 20
73.026694
 30
0.0
 10
111.372918
 20
72.914452
 30
0.0
  0
SPLINE
  5
277
100
AcDbEntity
  8
Capa_1
 62
5
100
AcDbSpline
 70
8
 71
3
 72
8
 73
4
 74
0
 40
0
 40
0
 40
0
 40
0
 40
1
 40
1
 40
1
 40
1
 10
111.372918
 20
72.914452
 30
0.0
 10
111.300466
 20
72.815092
 30
0.0
 10
111.192207
 20
72.741874
 30
0.0
 10
111.081629
 20
72.688075
 30
0.0
  0
SPLINE
  5
278
100
AcDbEntity
  8
Capa_1
 62
5
100
AcDbSpline
 70
8
 71
3
 72
8
 73
4
 74
0
 40
0
 40
0
 40
0
 40
0
 40
1
 40
1
 40
1
 40
1
 10
111.081629
 20
72.688075
 30
0.0
 10
110.937167
 20
72.617789
 30
0.0
 10
110.614058
 20
72.571181
 30
0.0
 10
110.614058
 20
72.571181
 30
0.0
  0
LWPOLYLINE
  5
279
100
AcDbEntity
  8
Capa_1
 62
5
100
AcDbPolyline
 90
2
 70
0
 10
109.612121
 20
71.636035
 30
0.0
 10
109.612121
 20
74.591748
 30
0.0
  0
LWPOLYLINE
  5
27a
100
AcDbEntity
  8
Capa_1
 62
5
100
AcDbPolyline
 90
3
 70
0
 10
110.614058
 20
72.571181
 30
0.0
 10
110.330176
 20
72.554469
 30
0.0
 10
111.282016
 20
71.619330
 30
0.0
  0
LWPOLYLINE
  5
27b
100
AcDbEntity
  8
Capa_1
 62
5
100
AcDbPolyline
 90
4
 70
0
 10
118.078484
 20
74.608447
 30
0.0
 10
115.840826
 20
74.625141
 30
0.0
 10
115.840826
 20
71.686128
 30
0.0
 10
118.078484
 20
71.686128
 30
0.0
  0
LWPOLYLINE
  5
27c
100
AcDbEntity
  8
Capa_1
 62
5
100
AcDbPolyline
 90
2
 70
0
 10
116.325097
 20
72.604575
 30
0.0
 10
118.095184
 20
72.621268
 30
0.0
  0
SPLINE
  5
27d
100
AcDbEntity
  8
Capa_1
 62
5
100
AcDbSpline
 70
8
 71
3
 72
8
 73
4
 74
0
 40
0
 40
0
 40
0
 40
0
 40
1
 40
1
 40
1
 40
1
 10
119.382860
 20
74.658544
 30
0.0
 10
119.382860
 20
71.585939
 30
0.0
 10
119.382860
 20
71.585939
 30
0.0
 10
119.382860
 20
71.585939
 30
0.0
  0
LWPOLYLINE
  5
27e
100
AcDbEntity
  8
Capa_1
 62
5
100
AcDbPolyline
 90
3
 70
0
 10
118.263708
 20
74.591748
 30
0.0
 10
120.468204
 20
74.591748
 30
0.0
 10
120.468204
 20
74.557769
 30
0.0
  0
LWPOLYLINE
  5
27f
100
AcDbEntity
  8
Capa_1
 62
5
100
AcDbPolyline
 90
4
 70
0
 10
112.634630
 20
71.619338
 30
0.0
 10
112.668029
 20
74.391361
 30
0.0
 10
115.256363
 20
71.853121
 30
0.0
 10
115.239669
 20
74.675243
 30
0.0
  0
LWPOLYLINE
  5
280
100
AcDbEntity
  8
Capa_1
 62
7
100
AcDbPolyline
 90
2
 70
1
 10
112.100263
 20
71.769628
 30
0.0
 10
112.100263
 20
71.769628
 30
0.0
  0
ENDSEC
  0
SECTION
  2
OBJECTS
  0
DICTIONARY
  5
C
330
0
100
AcDbDictionary
  3
ACAD_GROUP
350
D
  3
ACAD_MLINESTYLE
350
17
  0
DICTIONARY
  5
D
330
C
100
AcDbDictionary
  0
DICTIONARY
  5
1A
330
C
100
AcDbDictionary
  0
DICTIONARY
  5
17
330
C
100
AcDbDictionary
  3
STANDARD
350
18
  0
DICTIONARY
  5
19
330
C
100
AcDbDictionary
  0
ENDSEC
  0
EOF
