<?xml version="1.0" encoding="UTF-8" standalone="no"?>
<!-- Created with Inkscape (http://www.inkscape.org/) -->

<svg
   xmlns:dc="http://purl.org/dc/elements/1.1/"
   xmlns:cc="http://creativecommons.org/ns#"
   xmlns:rdf="http://www.w3.org/1999/02/22-rdf-syntax-ns#"
   xmlns:svg="http://www.w3.org/2000/svg"
   xmlns="http://www.w3.org/2000/svg"
   xmlns:sodipodi="http://sodipodi.sourceforge.net/DTD/sodipodi-0.dtd"
   xmlns:inkscape="http://www.inkscape.org/namespaces/inkscape"
   width="157.76234mm"
   height="165.66457mm"
   viewBox="0 0 559.00043 587.00043"
   id="svg4440"
   version="1.1"
   inkscape:version="0.91 r13725"
   sodipodi:docname="suport_mobil_encaix.svg">
  <defs
     id="defs4442" />
  <sodipodi:namedview
     id="base"
     pagecolor="#ffffff"
     bordercolor="#666666"
     borderopacity="1.0"
     inkscape:pageopacity="0.0"
     inkscape:pageshadow="2"
     inkscape:zoom="1"
     inkscape:cx="254.47686"
     inkscape:cy="345.60741"
     inkscape:document-units="mm"
     inkscape:current-layer="layer1"
     showgrid="true"
     fit-margin-top="0"
     fit-margin-left="0"
     fit-margin-right="0"
     fit-margin-bottom="0"
     inkscape:window-width="1920"
     inkscape:window-height="955"
     inkscape:window-x="0"
     inkscape:window-y="1"
     inkscape:window-maximized="1">
    <inkscape:grid
       type="xygrid"
       id="grid4988"
       units="mm"
       originx="-162.84549"
       originy="-651.70184" />
  </sodipodi:namedview>
  <metadata
     id="metadata4445">
    <rdf:RDF>
      <cc:Work
         rdf:about="">
        <dc:format>image/svg+xml</dc:format>
        <dc:type
           rdf:resource="http://purl.org/dc/dcmitype/StillImage" />
        <dc:title></dc:title>
      </cc:Work>
    </rdf:RDF>
  </metadata>
  <g
     inkscape:groupmode="layer"
     id="layer2"
     inkscape:label="Sota"
     style="opacity:0.3"
     transform="translate(-162.84549,186.34006)" />
  <g
     inkscape:label="Capa 1"
     inkscape:groupmode="layer"
     id="layer1"
     transform="translate(-162.84549,186.34006)">
    <path
       style="opacity:1;fill:none;fill-opacity:0.95721926;stroke:#000000;stroke-width:2.08246374;stroke-linejoin:round;stroke-miterlimit:4;stroke-dasharray:none;stroke-opacity:1"
       d="m 179.54883,-183.29883 c -8.67642,0 -15.66211,6.98374 -15.66211,15.66016 l 0,551.5957 c 0,8.67642 6.98569,15.66211 15.66211,15.66211 l 236.59375,0 c 8.67641,0 15.66211,-6.98569 15.66211,-15.66211 l 0,-117.1875 -149.74805,0 c -18.13667,0 -32.73828,-2.65339 -32.73828,-5.95117 l 0,-4.92969 c 0,-3.29778 14.60161,-5.95312 32.73828,-5.95312 l 149.74805,0 0,-417.57422 c 0,-8.67642 -6.9857,-15.66016 -15.66211,-15.66016 l -236.59375,0 z m 94.35937,479.07227 58.52149,0 c 7.0652,0 12.75195,2.70473 12.75195,6.0664 l 0,5.02539 c 0,3.36168 -5.68675,6.06836 -12.75195,6.06836 l -58.52149,0 c -7.0652,0 -12.75195,-2.70668 -12.75195,-6.06836 l 0,-5.02539 c 0,-3.36167 5.68675,-6.0664 12.75195,-6.0664 z"
       id="rect4990"
       inkscape:connector-curvature="0" />
    <path
       id="path5024"
       d="m 705.14258,-185.29883 c 8.67642,0 15.66211,6.98374 15.66211,15.66016 l 0,551.5957 c 0,8.67642 -6.98569,15.66211 -15.66211,15.66211 l -236.59375,0 c -8.67641,0 -15.66211,-6.98569 -15.66211,-15.66211 l 0,-117.1875 149.74805,0 c 18.13667,0 32.73828,-2.65339 32.73828,-5.95117 l 0,-4.92969 c 0,-3.29778 -14.60161,-5.95312 -32.73828,-5.95312 l -149.74805,0 0,-417.57422 c 0,-8.67642 6.9857,-15.66016 15.66211,-15.66016 l 236.59375,0 z"
       style="opacity:1;fill:none;fill-opacity:0.95721926;stroke:#000000;stroke-width:2.08246374;stroke-linejoin:round;stroke-miterlimit:4;stroke-dasharray:none;stroke-opacity:1"
       inkscape:connector-curvature="0" />
  </g>
</svg>
