  0
SECTION
  2
HEADER
  9
$ACADVER
  1
AC1014
  9
$HANDSEED
  5
FFFF
  9
$MEASUREMENT
 70
     1
  0
ENDSEC
  0
SECTION
  2
TABLES
  0
TABLE
  2
VPORT
  5
8
330
0
100
AcDbSymbolTable
 70
     4
  0
VPORT
  5
2E
330
8
100
AcDbSymbolTableRecord
100
AcDbViewportTableRecord
  2
*ACTIVE
 70
     0
 10
0.0
 20
0.0
 11
1.0
 21
1.0
 12
210.0
 22
148.5
 13
0.0
 23
0.0
 14
10.0
 24
10.0
 15
10.0
 25
10.0
 16
0.0
 26
0.0
 36
1.0
 17
0.0
 27
0.0
 37
0.0
 40
341.0
 41
1.24
 42
50.0
 43
0.0
 44
0.0
 50
0.0
 51
0.0
 71
     0
 72
   100
 73
     1
 74
     3
 75
     0
 76
     0
 77
     0
 78
     0
  0
ENDTAB
  0
TABLE
  2
LTYPE
  5
5
330
0
100
AcDbSymbolTable
 70
     1
  0
LTYPE
  5
14
330
5
100
AcDbSymbolTableRecord
100
AcDbLinetypeTableRecord
  2
BYBLOCK
 70
     0
  3

 72
    65
 73
     0
 40
0.0
  0
LTYPE
  5
15
330
5
100
AcDbSymbolTableRecord
100
AcDbLinetypeTableRecord
  2
BYLAYER
 70
     0
  3

 72
    65
 73
     0
 40
0.0
  0
LTYPE
  5
16
330
5
100
AcDbSymbolTableRecord
100
AcDbLinetypeTableRecord
  2
CONTINUOUS
 70
     0
  3
Solid line
 72
    65
 73
     0
 40
0.0
  0
ENDTAB
  0
TABLE
  2
LAYER
  5
2
100
AcDbSymbolTable
 70
4
  0
LAYER
  5
50
100
AcDbSymbolTableRecord
100
AcDbLayerTableRecord
  2
0
 70
0
  6
CONTINUOUS
  0
LAYER
  5
51
100
AcDbSymbolTableRecord
100
AcDbLayerTableRecord
  2
Patró
 70
0
  6
CONTINUOUS
  0
LAYER
  5
52
100
AcDbSymbolTableRecord
100
AcDbLayerTableRecord
  2
Sobre
 70
0
  6
CONTINUOUS
  0
LAYER
  5
53
100
AcDbSymbolTableRecord
100
AcDbLayerTableRecord
  2
Sota
 70
0
  6
CONTINUOUS
  0
ENDTAB
  0
TABLE
  2
STYLE
  5
3
330
0
100
AcDbSymbolTable
 70
     1
  0
STYLE
  5
11
330
3
100
AcDbSymbolTableRecord
100
AcDbTextStyleTableRecord
  2
STANDARD
 70
     0
 40
0.0
 41
1.0
 50
0.0
 71
     0
 42
2.5
  3
txt
  4

  0
ENDTAB
  0
TABLE
  2
VIEW
  5
6
330
0
100
AcDbSymbolTable
 70
     0
  0
ENDTAB
  0
TABLE
  2
UCS
  5
7
330
0
100
AcDbSymbolTable
 70
     0
  0
ENDTAB
  0
TABLE
  2
APPID
  5
9
330
0
100
AcDbSymbolTable
 70
     2
  0
APPID
  5
12
330
9
100
AcDbSymbolTableRecord
100
AcDbRegAppTableRecord
  2
ACAD
 70
     0
  0
ENDTAB
  0
TABLE
  2
DIMSTYLE
  5
A
330
0
100
AcDbSymbolTable
 70
     1
  0
DIMSTYLE
105
27
330
A
100
AcDbSymbolTableRecord
100
AcDbDimStyleTableRecord
  2
ISO-25
 70
     0
  3

  4

  5

  6

  7

 40
1.0
 41
2.5
 42
0.625
 43
3.75
 44
1.25
 45
0.0
 46
0.0
 47
0.0
 48
0.0
140
2.5
141
2.5
142
0.0
143
0.03937007874016
144
1.0
145
0.0
146
1.0
147
0.625
 71
     0
 72
     0
 73
     0
 74
     0
 75
     0
 76
     0
 77
     1
 78
     8
170
     0
171
     3
172
     1
173
     0
174
     0
175
     0
176
     0
177
     0
178
     0
270
     2
271
     2
272
     2
273
     2
274
     3
340
11
275
     0
280
     0
281
     0
282
     0
283
     0
284
     8
285
     0
286
     0
287
     3
288
     0
  0
ENDTAB
  0
TABLE
  2
BLOCK_RECORD
  5
1
330
0
100
AcDbSymbolTable
 70
     1
  0
BLOCK_RECORD
  5
1F
330
1
100
AcDbSymbolTableRecord
100
AcDbBlockTableRecord
  2
*MODEL_SPACE
  0
BLOCK_RECORD
  5
1B
330
1
100
AcDbSymbolTableRecord
100
AcDbBlockTableRecord
  2
*PAPER_SPACE
  0
ENDTAB
  0
ENDSEC
  0
SECTION
  2
BLOCKS
  0
BLOCK
  5
20
330
1F
100
AcDbEntity
  8
0
100
AcDbBlockBegin
  2
*MODEL_SPACE
 70
     0
 10
0.0
 20
0.0
 30
0.0
  3
*MODEL_SPACE
  1

  0
ENDBLK
  5
21
330
1F
100
AcDbEntity
  8
0
100
AcDbBlockEnd
  0
BLOCK
  5
1C
330
1B
100
AcDbEntity
 67
     1
  8
0
100
AcDbBlockBegin
  2
*PAPER_SPACE
  1

  0
ENDBLK
  5
1D
330
1B
100
AcDbEntity
 67
     1
  8
0
100
AcDbBlockEnd
  0
ENDSEC
  0
SECTION
  2
ENTITIES
  0
SPLINE
  5
100
100
AcDbEntity
  8
Sota
 62
7
100
AcDbSpline
 70
8
 71
3
 72
8
 73
4
 74
0
 40
0
 40
0
 40
0
 40
0
 40
1
 40
1
 40
1
 40
1
 10
4.408894
 20
329.145160
 30
0.0
 10
2.058608
 20
329.145160
 30
0.0
 10
0.166741
 20
327.253292
 30
0.0
 10
0.166741
 20
324.903008
 30
0.0
  0
SPLINE
  5
101
100
AcDbEntity
  8
Sota
 62
7
100
AcDbSpline
 70
8
 71
3
 72
8
 73
4
 74
0
 40
0
 40
0
 40
0
 40
0
 40
1
 40
1
 40
1
 40
1
 10
0.166741
 20
162.731060
 30
0.0
 10
0.166741
 20
160.380770
 30
0.0
 10
2.058608
 20
158.488922
 30
0.0
 10
4.408894
 20
158.488922
 30
0.0
  0
SPLINE
  5
102
100
AcDbEntity
  8
Sota
 62
7
100
AcDbSpline
 70
8
 71
3
 72
8
 73
4
 74
0
 40
0
 40
0
 40
0
 40
0
 40
1
 40
1
 40
1
 40
1
 10
4.408894
 20
158.488922
 30
0.0
 10
35.043089
 20
158.367227
 30
0.0
 10
54.043393
 20
158.363192
 30
0.0
 10
72.541857
 20
158.390793
 30
0.0
  0
LWPOLYLINE
  5
103
100
AcDbEntity
  8
Sota
 62
7
100
AcDbPolyline
 90
2
 70
1
 10
0.166741
 20
324.903008
 30
0.0
 10
0.166741
 20
162.731060
 30
0.0
  0
SPLINE
  5
104
100
AcDbEntity
  8
Sota
 62
7
100
AcDbSpline
 70
8
 71
3
 72
8
 73
4
 74
0
 40
0
 40
0
 40
0
 40
0
 40
1
 40
1
 40
1
 40
1
 10
77.403025
 20
158.397961
 30
0.0
 10
95.994340
 20
158.430727
 30
0.0
 10
114.876878
 20
158.488922
 30
0.0
 10
145.535990
 20
158.488922
 30
0.0
  0
SPLINE
  5
105
100
AcDbEntity
  8
Sota
 62
7
100
AcDbSpline
 70
8
 71
3
 72
8
 73
4
 74
0
 40
0
 40
0
 40
0
 40
0
 40
1
 40
1
 40
1
 40
1
 10
145.535990
 20
158.488922
 30
0.0
 10
147.886278
 20
158.488922
 30
0.0
 10
149.778143
 20
160.380770
 30
0.0
 10
149.778143
 20
162.731060
 30
0.0
  0
LWPOLYLINE
  5
106
100
AcDbEntity
  8
Sota
 62
7
100
AcDbPolyline
 90
4
 70
1
 10
72.541857
 20
158.390793
 30
0.0
 10
72.541857
 20
168.090517
 30
0.0
 10
77.403025
 20
168.090517
 30
0.0
 10
77.403025
 20
158.397961
 30
0.0
  0
SPLINE
  5
107
100
AcDbEntity
  8
Sota
 62
7
100
AcDbSpline
 70
8
 71
3
 72
8
 73
4
 74
0
 40
0
 40
0
 40
0
 40
0
 40
1
 40
1
 40
1
 40
1
 10
149.778143
 20
324.903008
 30
0.0
 10
149.778143
 20
327.253292
 30
0.0
 10
147.886278
 20
329.145160
 30
0.0
 10
145.535990
 20
329.145160
 30
0.0
  0
LWPOLYLINE
  5
108
100
AcDbEntity
  8
Sota
 62
7
100
AcDbPolyline
 90
2
 70
1
 10
149.778143
 20
162.731060
 30
0.0
 10
149.778143
 20
324.903008
 30
0.0
  0
LWPOLYLINE
  5
109
100
AcDbEntity
  8
Sota
 62
7
100
AcDbPolyline
 90
3
 70
1
 10
145.535990
 20
329.145160
 30
0.0
 10
4.408894
 20
329.145160
 30
0.0
 10
4.408894
 20
329.145160
 30
0.0
  0
LWPOLYLINE
  5
10a
100
AcDbEntity
  8
Sota
 62
7
100
AcDbPolyline
 90
6
 70
1
 10
50.628845
 20
316.890544
 30
0.0
 10
99.188706
 20
316.890544
 30
0.0
 10
99.188706
 20
308.641606
 30
0.0
 10
50.628845
 20
308.641606
 30
0.0
 10
50.628845
 20
316.890544
 30
0.0
 10
50.628845
 20
316.890544
 30
0.0
  0
SPLINE
  5
10b
100
AcDbEntity
  8
Sota
 62
7
100
AcDbSpline
 70
8
 71
3
 72
8
 73
4
 74
0
 40
0
 40
0
 40
0
 40
0
 40
1
 40
1
 40
1
 40
1
 10
74.721363
 20
275.444116
 30
0.0
 10
63.072494
 20
275.443972
 30
0.0
 10
53.629254
 20
266.000732
 30
0.0
 10
53.629110
 20
254.351863
 30
0.0
  0
SPLINE
  5
10c
100
AcDbEntity
  8
Sota
 62
7
100
AcDbSpline
 70
8
 71
3
 72
8
 73
4
 74
0
 40
0
 40
0
 40
0
 40
0
 40
1
 40
1
 40
1
 40
1
 10
53.629110
 20
254.351863
 30
0.0
 10
53.629254
 20
242.702994
 30
0.0
 10
63.072494
 20
233.259754
 30
0.0
 10
74.721363
 20
233.259610
 30
0.0
  0
SPLINE
  5
10d
100
AcDbEntity
  8
Sota
 62
7
100
AcDbSpline
 70
8
 71
3
 72
8
 73
4
 74
0
 40
0
 40
0
 40
0
 40
0
 40
1
 40
1
 40
1
 40
1
 10
74.721363
 20
233.259610
 30
0.0
 10
86.370232
 20
233.259754
 30
0.0
 10
95.813472
 20
242.702994
 30
0.0
 10
95.813616
 20
254.351863
 30
0.0
  0
SPLINE
  5
10e
100
AcDbEntity
  8
Sota
 62
7
100
AcDbSpline
 70
8
 71
3
 72
8
 73
4
 74
0
 40
0
 40
0
 40
0
 40
0
 40
1
 40
1
 40
1
 40
1
 10
95.813616
 20
254.351863
 30
0.0
 10
95.813472
 20
266.000732
 30
0.0
 10
86.370232
 20
275.443972
 30
0.0
 10
74.721363
 20
275.444116
 30
0.0
  0
LWPOLYLINE
  5
10f
100
AcDbEntity
  8
Sota
 62
7
100
AcDbPolyline
 90
22
 70
1
 10
52.178313
 20
294.176063
 30
0.0
 10
97.688850
 20
294.176063
 30
0.0
 10
99.080669
 20
292.784245
 30
0.0
 10
99.080669
 20
288.392161
 30
0.0
 10
111.750353
 20
288.392161
 30
0.0
 10
112.431654
 20
287.299654
 30
0.0
 10
112.431654
 20
221.271228
 30
0.0
 10
110.872266
 20
219.711840
 30
0.0
 10
99.376119
 20
219.711840
 30
0.0
 10
99.376119
 20
216.022004
 30
0.0
 10
97.969969
 20
214.615855
 30
0.0
 10
52.503529
 20
214.615855
 30
0.0
 10
50.675700
 20
216.443134
 30
0.0
 10
50.675700
 20
219.958784
 30
0.0
 10
39.379645
 20
219.958784
 30
0.0
 10
37.627330
 20
220.970816
 30
0.0
 10
37.627330
 20
287.267684
 30
0.0
 10
39.379645
 20
288.579574
 30
0.0
 10
51.004223
 20
288.579574
 30
0.0
 10
51.004223
 20
292.142079
 30
0.0
 10
52.178313
 20
294.176063
 30
0.0
 10
52.178313
 20
294.176063
 30
0.0
  0
LWPOLYLINE
  5
110
100
AcDbEntity
  8
Sota
 62
7
100
AcDbPolyline
 90
2
 70
1
 10
74.721363
 20
275.444116
 30
0.0
 10
74.721363
 20
275.444116
 30
0.0
  0
LWPOLYLINE
  5
111
100
AcDbEntity
  8
Sota
 62
7
100
AcDbPolyline
 90
6
 70
1
 10
12.006294
 20
186.398046
 30
0.0
 10
39.004817
 20
186.398046
 30
0.0
 10
39.004817
 20
175.711646
 30
0.0
 10
12.006294
 20
175.711646
 30
0.0
 10
12.006294
 20
186.398046
 30
0.0
 10
12.006294
 20
186.398046
 30
0.0
  0
SPLINE
  5
112
100
AcDbEntity
  8
Sota
 62
7
100
AcDbSpline
 70
8
 71
3
 72
8
 73
4
 74
0
 40
0
 40
0
 40
0
 40
0
 40
1
 40
1
 40
1
 40
1
 10
55.272636
 20
184.348177
 30
0.0
 10
55.274854
 20
182.756593
 30
0.0
 10
55.277080
 20
181.165008
 30
0.0
 10
55.279298
 20
179.573424
 30
0.0
  0
SPLINE
  5
113
100
AcDbEntity
  8
Sota
 62
7
100
AcDbSpline
 70
8
 71
3
 72
8
 73
4
 74
0
 40
0
 40
0
 40
0
 40
0
 40
1
 40
1
 40
1
 40
1
 10
55.279298
 20
179.573424
 30
0.0
 10
55.156014
 20
179.573424
 30
0.0
 10
55.032730
 20
179.573424
 30
0.0
 10
54.909446
 20
179.573424
 30
0.0
  0
SPLINE
  5
114
100
AcDbEntity
  8
Sota
 62
7
100
AcDbSpline
 70
8
 71
3
 72
8
 73
4
 74
0
 40
0
 40
0
 40
0
 40
0
 40
1
 40
1
 40
1
 40
1
 10
54.909446
 20
179.573424
 30
0.0
 10
54.909446
 20
180.669651
 30
0.0
 10
54.909446
 20
181.765879
 30
0.0
 10
54.909446
 20
182.862107
 30
0.0
  0
SPLINE
  5
115
100
AcDbEntity
  8
Sota
 62
7
100
AcDbSpline
 70
8
 71
3
 72
8
 73
4
 74
0
 40
0
 40
0
 40
0
 40
0
 40
1
 40
1
 40
1
 40
1
 10
54.909446
 20
182.862107
 30
0.0
 10
54.303023
 20
181.765879
 30
0.0
 10
53.696599
 20
180.669651
 30
0.0
 10
53.090175
 20
179.573424
 30
0.0
  0
SPLINE
  5
116
100
AcDbEntity
  8
Sota
 62
7
100
AcDbSpline
 70
8
 71
3
 72
8
 73
4
 74
0
 40
0
 40
0
 40
0
 40
0
 40
1
 40
1
 40
1
 40
1
 10
53.090175
 20
179.573424
 30
0.0
 10
52.489305
 20
180.658544
 30
0.0
 10
51.888435
 20
181.743666
 30
0.0
 10
51.287564
 20
182.828786
 30
0.0
  0
SPLINE
  5
117
100
AcDbEntity
  8
Sota
 62
7
100
AcDbSpline
 70
8
 71
3
 72
8
 73
4
 74
0
 40
0
 40
0
 40
0
 40
0
 40
1
 40
1
 40
1
 40
1
 10
51.287564
 20
182.828786
 30
0.0
 10
51.287564
 20
181.743666
 30
0.0
 10
51.287564
 20
180.658544
 30
0.0
 10
51.287564
 20
179.573424
 30
0.0
  0
SPLINE
  5
118
100
AcDbEntity
  8
Sota
 62
7
100
AcDbSpline
 70
8
 71
3
 72
8
 73
4
 74
0
 40
0
 40
0
 40
0
 40
0
 40
1
 40
1
 40
1
 40
1
 10
51.287564
 20
179.573424
 30
0.0
 10
51.166502
 20
179.573424
 30
0.0
 10
51.045438
 20
179.573424
 30
0.0
 10
50.924376
 20
179.573424
 30
0.0
  0
SPLINE
  5
119
100
AcDbEntity
  8
Sota
 62
7
100
AcDbSpline
 70
8
 71
3
 72
8
 73
4
 74
0
 40
0
 40
0
 40
0
 40
0
 40
1
 40
1
 40
1
 40
1
 10
50.924376
 20
179.573424
 30
0.0
 10
50.924376
 20
181.168341
 30
0.0
 10
50.924376
 20
182.763257
 30
0.0
 10
50.924376
 20
184.358174
 30
0.0
  0
SPLINE
  5
11a
100
AcDbEntity
  8
Sota
 62
7
100
AcDbSpline
 70
8
 71
3
 72
8
 73
4
 74
0
 40
0
 40
0
 40
0
 40
0
 40
1
 40
1
 40
1
 40
1
 10
50.924376
 20
184.358174
 30
0.0
 10
51.652973
 20
183.052030
 30
0.0
 10
52.381569
 20
181.745887
 30
0.0
 10
53.110167
 20
180.439743
 30
0.0
  0
SPLINE
  5
11b
100
AcDbEntity
  8
Sota
 62
7
100
AcDbSpline
 70
8
 71
3
 72
8
 73
4
 74
0
 40
0
 40
0
 40
0
 40
0
 40
1
 40
1
 40
1
 40
1
 10
53.110167
 20
180.439743
 30
0.0
 10
53.830990
 20
181.742554
 30
0.0
 10
54.551811
 20
183.045369
 30
0.0
 10
55.272636
 20
184.348177
 30
0.0
  0
LWPOLYLINE
  5
11c
100
AcDbEntity
  8
Sota
 62
7
100
AcDbPolyline
 90
6
 70
1
 10
111.000147
 20
186.398046
 30
0.0
 10
137.999223
 20
186.398046
 30
0.0
 10
137.999223
 20
175.711646
 30
0.0
 10
111.000147
 20
175.711646
 30
0.0
 10
111.000147
 20
186.398046
 30
0.0
 10
111.000147
 20
186.398046
 30
0.0
  0
SPLINE
  5
11d
100
AcDbEntity
  8
Sota
 62
7
100
AcDbSpline
 70
8
 71
3
 72
8
 73
4
 74
0
 40
0
 40
0
 40
0
 40
0
 40
1
 40
1
 40
1
 40
1
 10
60.014070
 20
182.009115
 30
0.0
 10
60.018693
 20
181.252541
 30
0.0
 10
59.682180
 20
180.499973
 30
0.0
 10
59.095202
 20
180.018336
 30
0.0
  0
SPLINE
  5
11e
100
AcDbEntity
  8
Sota
 62
7
100
AcDbSpline
 70
8
 71
3
 72
8
 73
4
 74
0
 40
0
 40
0
 40
0
 40
0
 40
1
 40
1
 40
1
 40
1
 10
59.095202
 20
180.018336
 30
0.0
 10
58.420412
 20
179.431434
 30
0.0
 10
57.334739
 20
179.409711
 30
0.0
 10
56.636673
 20
179.968265
 30
0.0
  0
SPLINE
  5
11f
100
AcDbEntity
  8
Sota
 62
7
100
AcDbSpline
 70
8
 71
3
 72
8
 73
4
 74
0
 40
0
 40
0
 40
0
 40
0
 40
1
 40
1
 40
1
 40
1
 10
56.636673
 20
179.968265
 30
0.0
 10
56.028819
 20
180.435413
 30
0.0
 10
55.664627
 20
181.187678
 30
0.0
 10
55.657052
 20
181.952555
 30
0.0
  0
SPLINE
  5
120
100
AcDbEntity
  8
Sota
 62
7
100
AcDbSpline
 70
8
 71
3
 72
8
 73
4
 74
0
 40
0
 40
0
 40
0
 40
0
 40
1
 40
1
 40
1
 40
1
 10
55.657052
 20
181.952555
 30
0.0
 10
55.654186
 20
182.753292
 30
0.0
 10
55.656626
 20
183.554084
 30
0.0
 10
55.655815
 20
184.354842
 30
0.0
  0
SPLINE
  5
121
100
AcDbEntity
  8
Sota
 62
7
100
AcDbSpline
 70
8
 71
3
 72
8
 73
4
 74
0
 40
0
 40
0
 40
0
 40
0
 40
1
 40
1
 40
1
 40
1
 10
55.655815
 20
184.354842
 30
0.0
 10
55.767993
 20
184.354842
 30
0.0
 10
55.880170
 20
184.354842
 30
0.0
 10
55.992348
 20
184.354842
 30
0.0
  0
SPLINE
  5
122
100
AcDbEntity
  8
Sota
 62
7
100
AcDbSpline
 70
8
 71
3
 72
8
 73
4
 74
0
 40
0
 40
0
 40
0
 40
0
 40
1
 40
1
 40
1
 40
1
 10
55.992348
 20
184.354842
 30
0.0
 10
55.995367
 20
183.530925
 30
0.0
 10
55.986206
 20
182.706756
 30
0.0
 10
55.997125
 20
181.883003
 30
0.0
  0
SPLINE
  5
123
100
AcDbEntity
  8
Sota
 62
7
100
AcDbSpline
 70
8
 71
3
 72
8
 73
4
 74
0
 40
0
 40
0
 40
0
 40
0
 40
1
 40
1
 40
1
 40
1
 10
55.997125
 20
181.883003
 30
0.0
 10
56.031906
 20
181.076502
 30
0.0
 10
56.552316
 20
180.267697
 30
0.0
 10
57.337598
 20
180.014933
 30
0.0
  0
SPLINE
  5
124
100
AcDbEntity
  8
Sota
 62
7
100
AcDbSpline
 70
8
 71
3
 72
8
 73
4
 74
0
 40
0
 40
0
 40
0
 40
0
 40
1
 40
1
 40
1
 40
1
 10
57.337598
 20
180.014933
 30
0.0
 10
57.938728
 20
179.827003
 30
0.0
 10
58.632533
 20
180.008322
 30
0.0
 10
59.059441
 20
180.473337
 30
0.0
  0
SPLINE
  5
125
100
AcDbEntity
  8
Sota
 62
7
100
AcDbSpline
 70
8
 71
3
 72
8
 73
4
 74
0
 40
0
 40
0
 40
0
 40
0
 40
1
 40
1
 40
1
 40
1
 10
59.059441
 20
180.473337
 30
0.0
 10
59.504490
 20
180.912527
 30
0.0
 10
59.704718
 20
181.548260
 30
0.0
 10
59.677540
 20
182.164564
 30
0.0
  0
SPLINE
  5
126
100
AcDbEntity
  8
Sota
 62
7
100
AcDbSpline
 70
8
 71
3
 72
8
 73
4
 74
0
 40
0
 40
0
 40
0
 40
0
 40
1
 40
1
 40
1
 40
1
 10
59.677540
 20
182.164564
 30
0.0
 10
59.677540
 20
182.894657
 30
0.0
 10
59.677540
 20
183.624749
 30
0.0
 10
59.677540
 20
184.354842
 30
0.0
  0
SPLINE
  5
127
100
AcDbEntity
  8
Sota
 62
7
100
AcDbSpline
 70
8
 71
3
 72
8
 73
4
 74
0
 40
0
 40
0
 40
0
 40
0
 40
1
 40
1
 40
1
 40
1
 10
59.677540
 20
184.354842
 30
0.0
 10
59.789717
 20
184.354842
 30
0.0
 10
59.901894
 20
184.354842
 30
0.0
 10
60.014071
 20
184.354842
 30
0.0
  0
SPLINE
  5
128
100
AcDbEntity
  8
Sota
 62
7
100
AcDbSpline
 70
8
 71
3
 72
8
 73
4
 74
0
 40
0
 40
0
 40
0
 40
0
 40
1
 40
1
 40
1
 40
1
 10
60.014071
 20
184.354842
 30
0.0
 10
60.014071
 20
183.572933
 30
0.0
 10
60.014071
 20
182.791024
 30
0.0
 10
60.014071
 20
182.009115
 30
0.0
  0
LWPOLYLINE
  5
129
100
AcDbEntity
  8
Sota
 62
7
100
AcDbPolyline
 90
2
 70
1
 10
55.272636
 20
184.348177
 30
0.0
 10
55.272636
 20
184.348177
 30
0.0
  0
SPLINE
  5
12a
100
AcDbEntity
  8
Sota
 62
7
100
AcDbSpline
 70
8
 71
3
 72
8
 73
4
 74
0
 40
0
 40
0
 40
0
 40
0
 40
1
 40
1
 40
1
 40
1
 10
64.735512
 20
184.348177
 30
0.0
 10
64.737730
 20
182.756593
 30
0.0
 10
64.739956
 20
181.165008
 30
0.0
 10
64.742174
 20
179.573424
 30
0.0
  0
SPLINE
  5
12b
100
AcDbEntity
  8
Sota
 62
7
100
AcDbSpline
 70
8
 71
3
 72
8
 73
4
 74
0
 40
0
 40
0
 40
0
 40
0
 40
1
 40
1
 40
1
 40
1
 10
64.742174
 20
179.573424
 30
0.0
 10
64.618890
 20
179.573424
 30
0.0
 10
64.495606
 20
179.573424
 30
0.0
 10
64.372322
 20
179.573424
 30
0.0
  0
SPLINE
  5
12c
100
AcDbEntity
  8
Sota
 62
7
100
AcDbSpline
 70
8
 71
3
 72
8
 73
4
 74
0
 40
0
 40
0
 40
0
 40
0
 40
1
 40
1
 40
1
 40
1
 10
64.372322
 20
179.573424
 30
0.0
 10
64.372322
 20
180.669651
 30
0.0
 10
64.372322
 20
181.765879
 30
0.0
 10
64.372322
 20
182.862107
 30
0.0
  0
SPLINE
  5
12d
100
AcDbEntity
  8
Sota
 62
7
100
AcDbSpline
 70
8
 71
3
 72
8
 73
4
 74
0
 40
0
 40
0
 40
0
 40
0
 40
1
 40
1
 40
1
 40
1
 10
64.372322
 20
182.862107
 30
0.0
 10
63.765899
 20
181.765879
 30
0.0
 10
63.159474
 20
180.669651
 30
0.0
 10
62.553051
 20
179.573424
 30
0.0
  0
SPLINE
  5
12e
100
AcDbEntity
  8
Sota
 62
7
100
AcDbSpline
 70
8
 71
3
 72
8
 73
4
 74
0
 40
0
 40
0
 40
0
 40
0
 40
1
 40
1
 40
1
 40
1
 10
62.553051
 20
179.573424
 30
0.0
 10
61.952181
 20
180.658544
 30
0.0
 10
61.351310
 20
181.743666
 30
0.0
 10
60.750440
 20
182.828786
 30
0.0
  0
SPLINE
  5
12f
100
AcDbEntity
  8
Sota
 62
7
100
AcDbSpline
 70
8
 71
3
 72
8
 73
4
 74
0
 40
0
 40
0
 40
0
 40
0
 40
1
 40
1
 40
1
 40
1
 10
60.750440
 20
182.828786
 30
0.0
 10
60.750440
 20
181.743666
 30
0.0
 10
60.750440
 20
180.658544
 30
0.0
 10
60.750440
 20
179.573424
 30
0.0
  0
SPLINE
  5
130
100
AcDbEntity
  8
Sota
 62
7
100
AcDbSpline
 70
8
 71
3
 72
8
 73
4
 74
0
 40
0
 40
0
 40
0
 40
0
 40
1
 40
1
 40
1
 40
1
 10
60.750440
 20
179.573424
 30
0.0
 10
60.629378
 20
179.573424
 30
0.0
 10
60.508314
 20
179.573424
 30
0.0
 10
60.387252
 20
179.573424
 30
0.0
  0
SPLINE
  5
131
100
AcDbEntity
  8
Sota
 62
7
100
AcDbSpline
 70
8
 71
3
 72
8
 73
4
 74
0
 40
0
 40
0
 40
0
 40
0
 40
1
 40
1
 40
1
 40
1
 10
60.387252
 20
179.573424
 30
0.0
 10
60.387252
 20
181.168341
 30
0.0
 10
60.387252
 20
182.763257
 30
0.0
 10
60.387252
 20
184.358174
 30
0.0
  0
SPLINE
  5
132
100
AcDbEntity
  8
Sota
 62
7
100
AcDbSpline
 70
8
 71
3
 72
8
 73
4
 74
0
 40
0
 40
0
 40
0
 40
0
 40
1
 40
1
 40
1
 40
1
 10
60.387252
 20
184.358174
 30
0.0
 10
61.115849
 20
183.052030
 30
0.0
 10
61.844445
 20
181.745887
 30
0.0
 10
62.573043
 20
180.439743
 30
0.0
  0
SPLINE
  5
133
100
AcDbEntity
  8
Sota
 62
7
100
AcDbSpline
 70
8
 71
3
 72
8
 73
4
 74
0
 40
0
 40
0
 40
0
 40
0
 40
1
 40
1
 40
1
 40
1
 10
62.573043
 20
180.439743
 30
0.0
 10
63.293866
 20
181.742554
 30
0.0
 10
64.014687
 20
183.045369
 30
0.0
 10
64.735512
 20
184.348177
 30
0.0
  0
LWPOLYLINE
  5
134
100
AcDbEntity
  8
Sota
 62
7
100
AcDbPolyline
 90
2
 70
1
 10
60.014071
 20
182.009115
 30
0.0
 10
60.014070
 20
182.009115
 30
0.0
  0
SPLINE
  5
135
100
AcDbEntity
  8
Sota
 62
7
100
AcDbSpline
 70
8
 71
3
 72
8
 73
4
 74
0
 40
0
 40
0
 40
0
 40
0
 40
1
 40
1
 40
1
 40
1
 10
69.963418
 20
179.566760
 30
0.0
 10
69.822363
 20
179.566760
 30
0.0
 10
69.681309
 20
179.566760
 30
0.0
 10
69.540254
 20
179.566760
 30
0.0
  0
SPLINE
  5
136
100
AcDbEntity
  8
Sota
 62
7
100
AcDbSpline
 70
8
 71
3
 72
8
 73
4
 74
0
 40
0
 40
0
 40
0
 40
0
 40
1
 40
1
 40
1
 40
1
 10
69.540254
 20
179.566760
 30
0.0
 10
68.843866
 20
180.886232
 30
0.0
 10
68.147478
 20
182.205703
 30
0.0
 10
67.451090
 20
183.525174
 30
0.0
  0
SPLINE
  5
137
100
AcDbEntity
  8
Sota
 62
7
100
AcDbSpline
 70
8
 71
3
 72
8
 73
4
 74
0
 40
0
 40
0
 40
0
 40
0
 40
1
 40
1
 40
1
 40
1
 10
67.451090
 20
183.525174
 30
0.0
 10
66.759145
 20
182.205703
 30
0.0
 10
66.067201
 20
180.886232
 30
0.0
 10
65.375256
 20
179.566760
 30
0.0
  0
SPLINE
  5
138
100
AcDbEntity
  8
Sota
 62
7
100
AcDbSpline
 70
8
 71
3
 72
8
 73
4
 74
0
 40
0
 40
0
 40
0
 40
0
 40
1
 40
1
 40
1
 40
1
 10
65.375256
 20
179.566760
 30
0.0
 10
65.227537
 20
179.566760
 30
0.0
 10
65.079818
 20
179.566760
 30
0.0
 10
64.932099
 20
179.566760
 30
0.0
  0
SPLINE
  5
139
100
AcDbEntity
  8
Sota
 62
7
100
AcDbSpline
 70
8
 71
3
 72
8
 73
4
 74
0
 40
0
 40
0
 40
0
 40
0
 40
1
 40
1
 40
1
 40
1
 10
64.932099
 20
179.566760
 30
0.0
 10
65.772699
 20
181.162296
 30
0.0
 10
66.605800
 20
182.761782
 30
0.0
 10
67.451090
 20
184.354845
 30
0.0
  0
SPLINE
  5
13a
100
AcDbEntity
  8
Sota
 62
7
100
AcDbSpline
 70
8
 71
3
 72
8
 73
4
 74
0
 40
0
 40
0
 40
0
 40
0
 40
1
 40
1
 40
1
 40
1
 10
67.451090
 20
184.354845
 30
0.0
 10
68.292855
 20
182.761088
 30
0.0
 10
69.125375
 20
181.162473
 30
0.0
 10
69.963418
 20
179.566760
 30
0.0
  0
LWPOLYLINE
  5
13b
100
AcDbEntity
  8
Sota
 62
7
100
AcDbPolyline
 90
2
 70
1
 10
64.735512
 20
184.348177
 30
0.0
 10
64.735512
 20
184.348177
 30
0.0
  0
SPLINE
  5
13c
100
AcDbEntity
  8
Sota
 62
7
100
AcDbSpline
 70
8
 71
3
 72
8
 73
4
 74
0
 40
0
 40
0
 40
0
 40
0
 40
1
 40
1
 40
1
 40
1
 10
70.613158
 20
179.556764
 30
0.0
 10
70.496537
 20
179.556764
 30
0.0
 10
70.379917
 20
179.556764
 30
0.0
 10
70.263297
 20
179.556764
 30
0.0
  0
SPLINE
  5
13d
100
AcDbEntity
  8
Sota
 62
7
100
AcDbSpline
 70
8
 71
3
 72
8
 73
4
 74
0
 40
0
 40
0
 40
0
 40
0
 40
1
 40
1
 40
1
 40
1
 10
70.263297
 20
179.556764
 30
0.0
 10
70.263297
 20
181.153902
 30
0.0
 10
70.263297
 20
182.751039
 30
0.0
 10
70.263297
 20
184.348177
 30
0.0
  0
SPLINE
  5
13e
100
AcDbEntity
  8
Sota
 62
7
100
AcDbSpline
 70
8
 71
3
 72
8
 73
4
 74
0
 40
0
 40
0
 40
0
 40
0
 40
1
 40
1
 40
1
 40
1
 10
70.263297
 20
184.348177
 30
0.0
 10
70.379917
 20
184.348177
 30
0.0
 10
70.496537
 20
184.348177
 30
0.0
 10
70.613158
 20
184.348177
 30
0.0
  0
SPLINE
  5
13f
100
AcDbEntity
  8
Sota
 62
7
100
AcDbSpline
 70
8
 71
3
 72
8
 73
4
 74
0
 40
0
 40
0
 40
0
 40
0
 40
1
 40
1
 40
1
 40
1
 10
70.613158
 20
184.348177
 30
0.0
 10
70.613158
 20
182.751039
 30
0.0
 10
70.613158
 20
181.153902
 30
0.0
 10
70.613158
 20
179.556764
 30
0.0
  0
LWPOLYLINE
  5
140
100
AcDbEntity
  8
Sota
 62
7
100
AcDbPolyline
 90
2
 70
1
 10
69.963418
 20
179.566760
 30
0.0
 10
69.963418
 20
179.566760
 30
0.0
  0
SPLINE
  5
141
100
AcDbEntity
  8
Sota
 62
7
100
AcDbSpline
 70
8
 71
3
 72
8
 73
4
 74
0
 40
0
 40
0
 40
0
 40
0
 40
1
 40
1
 40
1
 40
1
 10
71.679397
 20
181.306063
 30
0.0
 10
72.724534
 20
180.260926
 30
0.0
 10
73.769671
 20
179.215789
 30
0.0
 10
74.814808
 20
178.170653
 30
0.0
  0
SPLINE
  5
142
100
AcDbEntity
  8
Sota
 62
7
100
AcDbSpline
 70
8
 71
3
 72
8
 73
4
 74
0
 40
0
 40
0
 40
0
 40
0
 40
1
 40
1
 40
1
 40
1
 10
74.814808
 20
178.170653
 30
0.0
 10
74.650429
 20
178.170653
 30
0.0
 10
74.486050
 20
178.170653
 30
0.0
 10
74.321672
 20
178.170653
 30
0.0
  0
SPLINE
  5
143
100
AcDbEntity
  8
Sota
 62
7
100
AcDbSpline
 70
8
 71
3
 72
8
 73
4
 74
0
 40
0
 40
0
 40
0
 40
0
 40
1
 40
1
 40
1
 40
1
 10
74.321672
 20
178.170653
 30
0.0
 10
73.276535
 20
179.215789
 30
0.0
 10
72.231398
 20
180.260926
 30
0.0
 10
71.186261
 20
181.306063
 30
0.0
  0
SPLINE
  5
144
100
AcDbEntity
  8
Sota
 62
7
100
AcDbSpline
 70
8
 71
3
 72
8
 73
4
 74
0
 40
0
 40
0
 40
0
 40
0
 40
1
 40
1
 40
1
 40
1
 10
71.186261
 20
181.306063
 30
0.0
 10
72.208075
 20
182.324544
 30
0.0
 10
73.229887
 20
183.343025
 30
0.0
 10
74.251700
 20
184.361505
 30
0.0
  0
SPLINE
  5
145
100
AcDbEntity
  8
Sota
 62
7
100
AcDbSpline
 70
8
 71
3
 72
8
 73
4
 74
0
 40
0
 40
0
 40
0
 40
0
 40
1
 40
1
 40
1
 40
1
 10
74.251700
 20
184.361505
 30
0.0
 10
74.417189
 20
184.361505
 30
0.0
 10
74.582679
 20
184.361505
 30
0.0
 10
74.748168
 20
184.361505
 30
0.0
  0
SPLINE
  5
146
100
AcDbEntity
  8
Sota
 62
7
100
AcDbSpline
 70
8
 71
3
 72
8
 73
4
 74
0
 40
0
 40
0
 40
0
 40
0
 40
1
 40
1
 40
1
 40
1
 10
74.748168
 20
184.361505
 30
0.0
 10
73.725244
 20
183.343025
 30
0.0
 10
72.702321
 20
182.324544
 30
0.0
 10
71.679397
 20
181.306063
 30
0.0
  0
LWPOLYLINE
  5
147
100
AcDbEntity
  8
Sota
 62
7
100
AcDbPolyline
 90
2
 70
1
 10
70.613158
 20
179.556764
 30
0.0
 10
70.613158
 20
179.556764
 30
0.0
  0
SPLINE
  5
148
100
AcDbEntity
  8
Sota
 62
7
100
AcDbSpline
 70
8
 71
3
 72
8
 73
4
 74
0
 40
0
 40
0
 40
0
 40
0
 40
1
 40
1
 40
1
 40
1
 10
78.633278
 20
180.932879
 30
0.0
 10
77.724753
 20
180.932879
 30
0.0
 10
76.816228
 20
180.932879
 30
0.0
 10
75.907703
 20
180.932879
 30
0.0
  0
SPLINE
  5
149
100
AcDbEntity
  8
Sota
 62
7
100
AcDbSpline
 70
8
 71
3
 72
8
 73
4
 74
0
 40
0
 40
0
 40
0
 40
0
 40
1
 40
1
 40
1
 40
1
 10
75.907703
 20
180.932879
 30
0.0
 10
75.907703
 20
181.049499
 30
0.0
 10
75.907703
 20
181.166119
 30
0.0
 10
75.907703
 20
181.282739
 30
0.0
  0
SPLINE
  5
14a
100
AcDbEntity
  8
Sota
 62
7
100
AcDbSpline
 70
8
 71
3
 72
8
 73
4
 74
0
 40
0
 40
0
 40
0
 40
0
 40
1
 40
1
 40
1
 40
1
 10
75.907703
 20
181.282739
 30
0.0
 10
76.816228
 20
181.282739
 30
0.0
 10
77.724753
 20
181.282739
 30
0.0
 10
78.633278
 20
181.282739
 30
0.0
  0
SPLINE
  5
14b
100
AcDbEntity
  8
Sota
 62
7
100
AcDbSpline
 70
8
 71
3
 72
8
 73
4
 74
0
 40
0
 40
0
 40
0
 40
0
 40
1
 40
1
 40
1
 40
1
 10
78.633278
 20
181.282739
 30
0.0
 10
78.633278
 20
181.166119
 30
0.0
 10
78.633278
 20
181.049499
 30
0.0
 10
78.633278
 20
180.932879
 30
0.0
  0
LWPOLYLINE
  5
14c
100
AcDbEntity
  8
Sota
 62
7
100
AcDbPolyline
 90
2
 70
1
 10
71.679397
 20
181.306063
 30
0.0
 10
71.679397
 20
181.306063
 30
0.0
  0
SPLINE
  5
14d
100
AcDbEntity
  8
Sota
 62
7
100
AcDbSpline
 70
8
 71
3
 72
8
 73
4
 74
0
 40
0
 40
0
 40
0
 40
0
 40
1
 40
1
 40
1
 40
1
 10
78.646606
 20
183.998318
 30
0.0
 10
77.550378
 20
183.998318
 30
0.0
 10
76.454151
 20
183.998318
 30
0.0
 10
75.357924
 20
183.998318
 30
0.0
  0
SPLINE
  5
14e
100
AcDbEntity
  8
Sota
 62
7
100
AcDbSpline
 70
8
 71
3
 72
8
 73
4
 74
0
 40
0
 40
0
 40
0
 40
0
 40
1
 40
1
 40
1
 40
1
 10
75.357924
 20
183.998318
 30
0.0
 10
75.357924
 20
182.641084
 30
0.0
 10
75.357924
 20
181.283850
 30
0.0
 10
75.357924
 20
179.926616
 30
0.0
  0
SPLINE
  5
14f
100
AcDbEntity
  8
Sota
 62
7
100
AcDbSpline
 70
8
 71
3
 72
8
 73
4
 74
0
 40
0
 40
0
 40
0
 40
0
 40
1
 40
1
 40
1
 40
1
 10
75.357924
 20
179.926616
 30
0.0
 10
76.454151
 20
179.926616
 30
0.0
 10
77.550378
 20
179.926616
 30
0.0
 10
78.646606
 20
179.926616
 30
0.0
  0
SPLINE
  5
150
100
AcDbEntity
  8
Sota
 62
7
100
AcDbSpline
 70
8
 71
3
 72
8
 73
4
 74
0
 40
0
 40
0
 40
0
 40
0
 40
1
 40
1
 40
1
 40
1
 10
78.646606
 20
179.926616
 30
0.0
 10
78.646606
 20
179.808885
 30
0.0
 10
78.646606
 20
179.691154
 30
0.0
 10
78.646606
 20
179.573424
 30
0.0
  0
SPLINE
  5
151
100
AcDbEntity
  8
Sota
 62
7
100
AcDbSpline
 70
8
 71
3
 72
8
 73
4
 74
0
 40
0
 40
0
 40
0
 40
0
 40
1
 40
1
 40
1
 40
1
 10
78.646606
 20
179.573424
 30
0.0
 10
77.429316
 20
179.573424
 30
0.0
 10
76.212025
 20
179.573424
 30
0.0
 10
74.994735
 20
179.573424
 30
0.0
  0
SPLINE
  5
152
100
AcDbEntity
  8
Sota
 62
7
100
AcDbSpline
 70
8
 71
3
 72
8
 73
4
 74
0
 40
0
 40
0
 40
0
 40
0
 40
1
 40
1
 40
1
 40
1
 10
74.994735
 20
179.573424
 30
0.0
 10
74.994735
 20
181.167230
 30
0.0
 10
74.994735
 20
182.761036
 30
0.0
 10
74.994735
 20
184.354842
 30
0.0
  0
SPLINE
  5
153
100
AcDbEntity
  8
Sota
 62
7
100
AcDbSpline
 70
8
 71
3
 72
8
 73
4
 74
0
 40
0
 40
0
 40
0
 40
0
 40
1
 40
1
 40
1
 40
1
 10
74.994735
 20
184.354842
 30
0.0
 10
76.212025
 20
184.354842
 30
0.0
 10
77.429316
 20
184.354842
 30
0.0
 10
78.646606
 20
184.354842
 30
0.0
  0
SPLINE
  5
154
100
AcDbEntity
  8
Sota
 62
7
100
AcDbSpline
 70
8
 71
3
 72
8
 73
4
 74
0
 40
0
 40
0
 40
0
 40
0
 40
1
 40
1
 40
1
 40
1
 10
78.646606
 20
184.354842
 30
0.0
 10
78.646606
 20
184.236001
 30
0.0
 10
78.646606
 20
184.117159
 30
0.0
 10
78.646606
 20
183.998318
 30
0.0
  0
LWPOLYLINE
  5
155
100
AcDbEntity
  8
Sota
 62
7
100
AcDbPolyline
 90
2
 70
1
 10
78.633278
 20
180.932879
 30
0.0
 10
78.633278
 20
180.932879
 30
0.0
  0
SPLINE
  5
156
100
AcDbEntity
  8
Sota
 62
7
100
AcDbSpline
 70
8
 71
3
 72
8
 73
4
 74
0
 40
0
 40
0
 40
0
 40
0
 40
1
 40
1
 40
1
 40
1
 10
82.338460
 20
182.618871
 30
0.0
 10
82.382168
 20
181.944370
 30
0.0
 10
81.941369
 20
181.265846
 30
0.0
 10
81.300663
 20
181.043968
 30
0.0
  0
SPLINE
  5
157
100
AcDbEntity
  8
Sota
 62
7
100
AcDbSpline
 70
8
 71
3
 72
8
 73
4
 74
0
 40
0
 40
0
 40
0
 40
0
 40
1
 40
1
 40
1
 40
1
 10
81.300663
 20
181.043968
 30
0.0
 10
81.148331
 20
180.940399
 30
0.0
 10
80.862520
 20
181.023672
 30
0.0
 10
80.784495
 20
180.843147
 30
0.0
  0
SPLINE
  5
158
100
AcDbEntity
  8
Sota
 62
7
100
AcDbSpline
 70
8
 71
3
 72
8
 73
4
 74
0
 40
0
 40
0
 40
0
 40
0
 40
1
 40
1
 40
1
 40
1
 10
80.784495
 20
180.843147
 30
0.0
 10
80.853404
 20
180.736385
 30
0.0
 10
80.967204
 20
180.665217
 30
0.0
 10
81.052245
 20
180.569851
 30
0.0
  0
SPLINE
  5
159
100
AcDbEntity
  8
Sota
 62
7
100
AcDbSpline
 70
8
 71
3
 72
8
 73
4
 74
0
 40
0
 40
0
 40
0
 40
0
 40
1
 40
1
 40
1
 40
1
 10
81.052245
 20
180.569851
 30
0.0
 10
81.394352
 20
180.237708
 30
0.0
 10
81.736458
 20
179.905566
 30
0.0
 10
82.078564
 20
179.573424
 30
0.0
  0
SPLINE
  5
15a
100
AcDbEntity
  8
Sota
 62
7
100
AcDbSpline
 70
8
 71
3
 72
8
 73
4
 74
0
 40
0
 40
0
 40
0
 40
0
 40
1
 40
1
 40
1
 40
1
 10
82.078564
 20
179.573424
 30
0.0
 10
81.906411
 20
179.573424
 30
0.0
 10
81.734258
 20
179.573424
 30
0.0
 10
81.562104
 20
179.573424
 30
0.0
  0
SPLINE
  5
15b
100
AcDbEntity
  8
Sota
 62
7
100
AcDbSpline
 70
8
 71
3
 72
8
 73
4
 74
0
 40
0
 40
0
 40
0
 40
0
 40
1
 40
1
 40
1
 40
1
 10
81.562104
 20
179.573424
 30
0.0
 10
80.992478
 20
180.128905
 30
0.0
 10
80.417040
 20
180.678447
 30
0.0
 10
79.852789
 20
181.239423
 30
0.0
  0
SPLINE
  5
15c
100
AcDbEntity
  8
Sota
 62
7
100
AcDbSpline
 70
8
 71
3
 72
8
 73
4
 74
0
 40
0
 40
0
 40
0
 40
0
 40
1
 40
1
 40
1
 40
1
 10
79.852789
 20
181.239423
 30
0.0
 10
80.386720
 20
181.231891
 30
0.0
 10
80.972133
 20
181.192582
 30
0.0
 10
81.437837
 20
181.503029
 30
0.0
  0
SPLINE
  5
15d
100
AcDbEntity
  8
Sota
 62
7
100
AcDbSpline
 70
8
 71
3
 72
8
 73
4
 74
0
 40
0
 40
0
 40
0
 40
0
 40
1
 40
1
 40
1
 40
1
 10
81.437837
 20
181.503029
 30
0.0
 10
82.168444
 20
181.995580
 30
0.0
 10
82.169294
 20
183.228644
 30
0.0
 10
81.446231
 20
183.728306
 30
0.0
  0
SPLINE
  5
15e
100
AcDbEntity
  8
Sota
 62
7
100
AcDbSpline
 70
8
 71
3
 72
8
 73
4
 74
0
 40
0
 40
0
 40
0
 40
0
 40
1
 40
1
 40
1
 40
1
 10
81.446231
 20
183.728306
 30
0.0
 10
80.976405
 20
184.048738
 30
0.0
 10
80.383321
 20
184.011063
 30
0.0
 10
79.842044
 20
183.996958
 30
0.0
  0
SPLINE
  5
15f
100
AcDbEntity
  8
Sota
 62
7
100
AcDbSpline
 70
8
 71
3
 72
8
 73
4
 74
0
 40
0
 40
0
 40
0
 40
0
 40
1
 40
1
 40
1
 40
1
 10
79.842044
 20
183.996958
 30
0.0
 10
79.692465
 20
183.942286
 30
0.0
 10
79.388788
 20
184.112279
 30
0.0
 10
79.365409
 20
183.898047
 30
0.0
  0
SPLINE
  5
160
100
AcDbEntity
  8
Sota
 62
7
100
AcDbSpline
 70
8
 71
3
 72
8
 73
4
 74
0
 40
0
 40
0
 40
0
 40
0
 40
1
 40
1
 40
1
 40
1
 10
79.365409
 20
183.898047
 30
0.0
 10
79.374933
 20
183.276527
 30
0.0
 10
79.367089
 20
182.653526
 30
0.0
 10
79.369648
 20
182.031386
 30
0.0
  0
SPLINE
  5
161
100
AcDbEntity
  8
Sota
 62
7
100
AcDbSpline
 70
8
 71
3
 72
8
 73
4
 74
0
 40
0
 40
0
 40
0
 40
0
 40
1
 40
1
 40
1
 40
1
 10
79.369648
 20
182.031386
 30
0.0
 10
79.369648
 20
181.212067
 30
0.0
 10
79.369648
 20
180.392748
 30
0.0
 10
79.369648
 20
179.573428
 30
0.0
  0
SPLINE
  5
162
100
AcDbEntity
  8
Sota
 62
7
100
AcDbSpline
 70
8
 71
3
 72
8
 73
4
 74
0
 40
0
 40
0
 40
0
 40
0
 40
1
 40
1
 40
1
 40
1
 10
79.369648
 20
179.573428
 30
0.0
 10
79.253028
 20
179.573428
 30
0.0
 10
79.136408
 20
179.573428
 30
0.0
 10
79.019788
 20
179.573428
 30
0.0
  0
SPLINE
  5
163
100
AcDbEntity
  8
Sota
 62
7
100
AcDbSpline
 70
8
 71
3
 72
8
 73
4
 74
0
 40
0
 40
0
 40
0
 40
0
 40
1
 40
1
 40
1
 40
1
 10
79.019788
 20
179.573428
 30
0.0
 10
79.019788
 20
181.163902
 30
0.0
 10
79.019788
 20
182.754376
 30
0.0
 10
79.019788
 20
184.344850
 30
0.0
  0
SPLINE
  5
164
100
AcDbEntity
  8
Sota
 62
7
100
AcDbSpline
 70
8
 71
3
 72
8
 73
4
 74
0
 40
0
 40
0
 40
0
 40
0
 40
1
 40
1
 40
1
 40
1
 10
79.019788
 20
184.344850
 30
0.0
 10
79.787802
 20
184.305275
 30
0.0
 10
80.586684
 20
184.457637
 30
0.0
 10
81.326578
 20
184.183843
 30
0.0
  0
SPLINE
  5
165
100
AcDbEntity
  8
Sota
 62
7
100
AcDbSpline
 70
8
 71
3
 72
8
 73
4
 74
0
 40
0
 40
0
 40
0
 40
0
 40
1
 40
1
 40
1
 40
1
 10
81.326578
 20
184.183843
 30
0.0
 10
81.897299
 20
183.954580
 30
0.0
 10
82.340024
 20
183.384477
 30
0.0
 10
82.334737
 20
182.757087
 30
0.0
  0
SPLINE
  5
166
100
AcDbEntity
  8
Sota
 62
7
100
AcDbSpline
 70
8
 71
3
 72
8
 73
4
 74
0
 40
0
 40
0
 40
0
 40
0
 40
1
 40
1
 40
1
 40
1
 10
82.334737
 20
182.757087
 30
0.0
 10
82.337381
 20
182.711067
 30
0.0
 10
82.338575
 20
182.664963
 30
0.0
 10
82.338456
 20
182.618871
 30
0.0
  0
LWPOLYLINE
  5
167
100
AcDbEntity
  8
Sota
 62
7
100
AcDbPolyline
 90
2
 70
1
 10
78.646606
 20
183.998318
 30
0.0
 10
78.646606
 20
183.998318
 30
0.0
  0
SPLINE
  5
168
100
AcDbEntity
  8
Sota
 62
7
100
AcDbSpline
 70
8
 71
3
 72
8
 73
4
 74
0
 40
0
 40
0
 40
0
 40
0
 40
1
 40
1
 40
1
 40
1
 10
83.014856
 20
180.123203
 30
0.0
 10
83.141104
 20
180.128441
 30
0.0
 10
83.255342
 20
180.034803
 30
0.0
 10
83.297704
 20
179.919578
 30
0.0
  0
SPLINE
  5
169
100
AcDbEntity
  8
Sota
 62
7
100
AcDbSpline
 70
8
 71
3
 72
8
 73
4
 74
0
 40
0
 40
0
 40
0
 40
0
 40
1
 40
1
 40
1
 40
1
 10
83.297704
 20
179.919578
 30
0.0
 10
83.334459
 20
179.826706
 30
0.0
 10
83.317455
 20
179.715534
 30
0.0
 10
83.254367
 20
179.638021
 30
0.0
  0
SPLINE
  5
16a
100
AcDbEntity
  8
Sota
 62
7
100
AcDbSpline
 70
8
 71
3
 72
8
 73
4
 74
0
 40
0
 40
0
 40
0
 40
0
 40
1
 40
1
 40
1
 40
1
 10
83.254367
 20
179.638021
 30
0.0
 10
83.166469
 20
179.524233
 30
0.0
 10
82.992467
 20
179.481854
 30
0.0
 10
82.866137
 20
179.555107
 30
0.0
  0
SPLINE
  5
16b
100
AcDbEntity
  8
Sota
 62
7
100
AcDbSpline
 70
8
 71
3
 72
8
 73
4
 74
0
 40
0
 40
0
 40
0
 40
0
 40
1
 40
1
 40
1
 40
1
 10
82.866137
 20
179.555107
 30
0.0
 10
82.726779
 20
179.628659
 30
0.0
 10
82.667973
 20
179.820759
 30
0.0
 10
82.743367
 20
179.959429
 30
0.0
  0
SPLINE
  5
16c
100
AcDbEntity
  8
Sota
 62
7
100
AcDbSpline
 70
8
 71
3
 72
8
 73
4
 74
0
 40
0
 40
0
 40
0
 40
0
 40
1
 40
1
 40
1
 40
1
 10
82.743367
 20
179.959429
 30
0.0
 10
82.794713
 20
180.057884
 30
0.0
 10
82.902565
 20
180.127263
 30
0.0
 10
83.014856
 20
180.123203
 30
0.0
  0
LWPOLYLINE
  5
16d
100
AcDbEntity
  8
Sota
 62
7
100
AcDbPolyline
 90
2
 70
1
 10
82.338456
 20
182.618871
 30
0.0
 10
82.338460
 20
182.618871
 30
0.0
  0
SPLINE
  5
16e
100
AcDbEntity
  8
Sota
 62
7
100
AcDbSpline
 70
8
 71
3
 72
8
 73
4
 74
0
 40
0
 40
0
 40
0
 40
0
 40
1
 40
1
 40
1
 40
1
 10
88.002858
 20
184.348177
 30
0.0
 10
88.002858
 20
182.756593
 30
0.0
 10
88.002858
 20
181.165008
 30
0.0
 10
88.002858
 20
179.573424
 30
0.0
  0
SPLINE
  5
16f
100
AcDbEntity
  8
Sota
 62
7
100
AcDbSpline
 70
8
 71
3
 72
8
 73
4
 74
0
 40
0
 40
0
 40
0
 40
0
 40
1
 40
1
 40
1
 40
1
 10
88.002858
 20
179.573424
 30
0.0
 10
86.676301
 20
180.880220
 30
0.0
 10
85.357877
 20
182.195230
 30
0.0
 10
84.034444
 20
183.505182
 30
0.0
  0
SPLINE
  5
170
100
AcDbEntity
  8
Sota
 62
7
100
AcDbSpline
 70
8
 71
3
 72
8
 73
4
 74
0
 40
0
 40
0
 40
0
 40
0
 40
1
 40
1
 40
1
 40
1
 10
84.034444
 20
183.505182
 30
0.0
 10
84.034444
 20
182.194596
 30
0.0
 10
84.034444
 20
180.884010
 30
0.0
 10
84.034444
 20
179.573424
 30
0.0
  0
SPLINE
  5
171
100
AcDbEntity
  8
Sota
 62
7
100
AcDbSpline
 70
8
 71
3
 72
8
 73
4
 74
0
 40
0
 40
0
 40
0
 40
0
 40
1
 40
1
 40
1
 40
1
 10
84.034444
 20
179.573424
 30
0.0
 10
83.917824
 20
179.573424
 30
0.0
 10
83.801204
 20
179.573424
 30
0.0
 10
83.684584
 20
179.573424
 30
0.0
  0
SPLINE
  5
172
100
AcDbEntity
  8
Sota
 62
7
100
AcDbSpline
 70
8
 71
3
 72
8
 73
4
 74
0
 40
0
 40
0
 40
0
 40
0
 40
1
 40
1
 40
1
 40
1
 10
83.684584
 20
179.573424
 30
0.0
 10
83.684584
 20
181.165008
 30
0.0
 10
83.684584
 20
182.756593
 30
0.0
 10
83.684584
 20
184.348177
 30
0.0
  0
SPLINE
  5
173
100
AcDbEntity
  8
Sota
 62
7
100
AcDbSpline
 70
8
 71
3
 72
8
 73
4
 74
0
 40
0
 40
0
 40
0
 40
0
 40
1
 40
1
 40
1
 40
1
 10
83.684584
 20
184.348177
 30
0.0
 10
85.004615
 20
183.032579
 30
0.0
 10
86.330580
 20
181.722956
 30
0.0
 10
87.652994
 20
180.409756
 30
0.0
  0
SPLINE
  5
174
100
AcDbEntity
  8
Sota
 62
7
100
AcDbSpline
 70
8
 71
3
 72
8
 73
4
 74
0
 40
0
 40
0
 40
0
 40
0
 40
1
 40
1
 40
1
 40
1
 10
87.652994
 20
180.409756
 30
0.0
 10
87.652994
 20
181.722563
 30
0.0
 10
87.652994
 20
183.035370
 30
0.0
 10
87.652994
 20
184.348177
 30
0.0
  0
SPLINE
  5
175
100
AcDbEntity
  8
Sota
 62
7
100
AcDbSpline
 70
8
 71
3
 72
8
 73
4
 74
0
 40
0
 40
0
 40
0
 40
0
 40
1
 40
1
 40
1
 40
1
 10
87.652994
 20
184.348177
 30
0.0
 10
87.769615
 20
184.348177
 30
0.0
 10
87.886236
 20
184.348177
 30
0.0
 10
88.002858
 20
184.348177
 30
0.0
  0
LWPOLYLINE
  5
176
100
AcDbEntity
  8
Sota
 62
7
100
AcDbPolyline
 90
2
 70
1
 10
83.014856
 20
180.123203
 30
0.0
 10
83.014856
 20
180.123203
 30
0.0
  0
SPLINE
  5
177
100
AcDbEntity
  8
Sota
 62
7
100
AcDbSpline
 70
8
 71
3
 72
8
 73
4
 74
0
 40
0
 40
0
 40
0
 40
0
 40
1
 40
1
 40
1
 40
1
 10
92.187848
 20
180.932879
 30
0.0
 10
91.279323
 20
180.932879
 30
0.0
 10
90.370798
 20
180.932879
 30
0.0
 10
89.462273
 20
180.932879
 30
0.0
  0
SPLINE
  5
178
100
AcDbEntity
  8
Sota
 62
7
100
AcDbSpline
 70
8
 71
3
 72
8
 73
4
 74
0
 40
0
 40
0
 40
0
 40
0
 40
1
 40
1
 40
1
 40
1
 10
89.462273
 20
180.932879
 30
0.0
 10
89.462273
 20
181.049499
 30
0.0
 10
89.462273
 20
181.166119
 30
0.0
 10
89.462273
 20
181.282739
 30
0.0
  0
SPLINE
  5
179
100
AcDbEntity
  8
Sota
 62
7
100
AcDbSpline
 70
8
 71
3
 72
8
 73
4
 74
0
 40
0
 40
0
 40
0
 40
0
 40
1
 40
1
 40
1
 40
1
 10
89.462273
 20
181.282739
 30
0.0
 10
90.370798
 20
181.282739
 30
0.0
 10
91.279323
 20
181.282739
 30
0.0
 10
92.187848
 20
181.282739
 30
0.0
  0
SPLINE
  5
17a
100
AcDbEntity
  8
Sota
 62
7
100
AcDbSpline
 70
8
 71
3
 72
8
 73
4
 74
0
 40
0
 40
0
 40
0
 40
0
 40
1
 40
1
 40
1
 40
1
 10
92.187848
 20
181.282739
 30
0.0
 10
92.187848
 20
181.166119
 30
0.0
 10
92.187848
 20
181.049499
 30
0.0
 10
92.187848
 20
180.932879
 30
0.0
  0
LWPOLYLINE
  5
17b
100
AcDbEntity
  8
Sota
 62
7
100
AcDbPolyline
 90
2
 70
1
 10
88.002858
 20
184.348177
 30
0.0
 10
88.002858
 20
184.348177
 30
0.0
  0
SPLINE
  5
17c
100
AcDbEntity
  8
Sota
 62
7
100
AcDbSpline
 70
8
 71
3
 72
8
 73
4
 74
0
 40
0
 40
0
 40
0
 40
0
 40
1
 40
1
 40
1
 40
1
 10
92.201176
 20
183.998318
 30
0.0
 10
91.104948
 20
183.998318
 30
0.0
 10
90.008721
 20
183.998318
 30
0.0
 10
88.912494
 20
183.998318
 30
0.0
  0
SPLINE
  5
17d
100
AcDbEntity
  8
Sota
 62
7
100
AcDbSpline
 70
8
 71
3
 72
8
 73
4
 74
0
 40
0
 40
0
 40
0
 40
0
 40
1
 40
1
 40
1
 40
1
 10
88.912494
 20
183.998318
 30
0.0
 10
88.912494
 20
182.641084
 30
0.0
 10
88.912494
 20
181.283850
 30
0.0
 10
88.912494
 20
179.926616
 30
0.0
  0
SPLINE
  5
17e
100
AcDbEntity
  8
Sota
 62
7
100
AcDbSpline
 70
8
 71
3
 72
8
 73
4
 74
0
 40
0
 40
0
 40
0
 40
0
 40
1
 40
1
 40
1
 40
1
 10
88.912494
 20
179.926616
 30
0.0
 10
90.008721
 20
179.926616
 30
0.0
 10
91.104948
 20
179.926616
 30
0.0
 10
92.201176
 20
179.926616
 30
0.0
  0
SPLINE
  5
17f
100
AcDbEntity
  8
Sota
 62
7
100
AcDbSpline
 70
8
 71
3
 72
8
 73
4
 74
0
 40
0
 40
0
 40
0
 40
0
 40
1
 40
1
 40
1
 40
1
 10
92.201176
 20
179.926616
 30
0.0
 10
92.201176
 20
179.808885
 30
0.0
 10
92.201176
 20
179.691154
 30
0.0
 10
92.201176
 20
179.573424
 30
0.0
  0
SPLINE
  5
180
100
AcDbEntity
  8
Sota
 62
7
100
AcDbSpline
 70
8
 71
3
 72
8
 73
4
 74
0
 40
0
 40
0
 40
0
 40
0
 40
1
 40
1
 40
1
 40
1
 10
92.201176
 20
179.573424
 30
0.0
 10
90.983886
 20
179.573424
 30
0.0
 10
89.766595
 20
179.573424
 30
0.0
 10
88.549305
 20
179.573424
 30
0.0
  0
SPLINE
  5
181
100
AcDbEntity
  8
Sota
 62
7
100
AcDbSpline
 70
8
 71
3
 72
8
 73
4
 74
0
 40
0
 40
0
 40
0
 40
0
 40
1
 40
1
 40
1
 40
1
 10
88.549305
 20
179.573424
 30
0.0
 10
88.549305
 20
181.167230
 30
0.0
 10
88.549305
 20
182.761036
 30
0.0
 10
88.549305
 20
184.354842
 30
0.0
  0
SPLINE
  5
182
100
AcDbEntity
  8
Sota
 62
7
100
AcDbSpline
 70
8
 71
3
 72
8
 73
4
 74
0
 40
0
 40
0
 40
0
 40
0
 40
1
 40
1
 40
1
 40
1
 10
88.549305
 20
184.354842
 30
0.0
 10
89.766595
 20
184.354842
 30
0.0
 10
90.983886
 20
184.354842
 30
0.0
 10
92.201176
 20
184.354842
 30
0.0
  0
SPLINE
  5
183
100
AcDbEntity
  8
Sota
 62
7
100
AcDbSpline
 70
8
 71
3
 72
8
 73
4
 74
0
 40
0
 40
0
 40
0
 40
0
 40
1
 40
1
 40
1
 40
1
 10
92.201176
 20
184.354842
 30
0.0
 10
92.201176
 20
184.236001
 30
0.0
 10
92.201176
 20
184.117159
 30
0.0
 10
92.201176
 20
183.998318
 30
0.0
  0
LWPOLYLINE
  5
184
100
AcDbEntity
  8
Sota
 62
7
100
AcDbPolyline
 90
2
 70
1
 10
92.187848
 20
180.932879
 30
0.0
 10
92.187848
 20
180.932879
 30
0.0
  0
SPLINE
  5
185
100
AcDbEntity
  8
Sota
 62
7
100
AcDbSpline
 70
8
 71
3
 72
8
 73
4
 74
0
 40
0
 40
0
 40
0
 40
0
 40
1
 40
1
 40
1
 40
1
 10
95.982994
 20
183.994986
 30
0.0
 10
95.440989
 20
183.994986
 30
0.0
 10
94.898984
 20
183.994986
 30
0.0
 10
94.356979
 20
183.994986
 30
0.0
  0
SPLINE
  5
186
100
AcDbEntity
  8
Sota
 62
7
100
AcDbSpline
 70
8
 71
3
 72
8
 73
4
 74
0
 40
0
 40
0
 40
0
 40
0
 40
1
 40
1
 40
1
 40
1
 10
94.356979
 20
183.994986
 30
0.0
 10
94.356979
 20
182.521132
 30
0.0
 10
94.356979
 20
181.047278
 30
0.0
 10
94.356979
 20
179.573424
 30
0.0
  0
SPLINE
  5
187
100
AcDbEntity
  8
Sota
 62
7
100
AcDbSpline
 70
8
 71
3
 72
8
 73
4
 74
0
 40
0
 40
0
 40
0
 40
0
 40
1
 40
1
 40
1
 40
1
 10
94.356979
 20
179.573424
 30
0.0
 10
94.240359
 20
179.573424
 30
0.0
 10
94.123740
 20
179.573424
 30
0.0
 10
94.007119
 20
179.573424
 30
0.0
  0
SPLINE
  5
188
100
AcDbEntity
  8
Sota
 62
7
100
AcDbSpline
 70
8
 71
3
 72
8
 73
4
 74
0
 40
0
 40
0
 40
0
 40
0
 40
1
 40
1
 40
1
 40
1
 10
94.007119
 20
179.573424
 30
0.0
 10
94.007119
 20
181.047278
 30
0.0
 10
94.007119
 20
182.521132
 30
0.0
 10
94.007119
 20
183.994986
 30
0.0
  0
SPLINE
  5
189
100
AcDbEntity
  8
Sota
 62
7
100
AcDbSpline
 70
8
 71
3
 72
8
 73
4
 74
0
 40
0
 40
0
 40
0
 40
0
 40
1
 40
1
 40
1
 40
1
 10
94.007119
 20
183.994986
 30
0.0
 10
93.467335
 20
183.994986
 30
0.0
 10
92.927552
 20
183.994986
 30
0.0
 10
92.387768
 20
183.994986
 30
0.0
  0
SPLINE
  5
18a
100
AcDbEntity
  8
Sota
 62
7
100
AcDbSpline
 70
8
 71
3
 72
8
 73
4
 74
0
 40
0
 40
0
 40
0
 40
0
 40
1
 40
1
 40
1
 40
1
 10
92.387768
 20
183.994986
 30
0.0
 10
92.387768
 20
184.111606
 30
0.0
 10
92.387768
 20
184.228225
 30
0.0
 10
92.387768
 20
184.344846
 30
0.0
  0
SPLINE
  5
18b
100
AcDbEntity
  8
Sota
 62
7
100
AcDbSpline
 70
8
 71
3
 72
8
 73
4
 74
0
 40
0
 40
0
 40
0
 40
0
 40
1
 40
1
 40
1
 40
1
 10
92.387768
 20
184.344846
 30
0.0
 10
93.586177
 20
184.344846
 30
0.0
 10
94.784585
 20
184.344846
 30
0.0
 10
95.982994
 20
184.344846
 30
0.0
  0
SPLINE
  5
18c
100
AcDbEntity
  8
Sota
 62
7
100
AcDbSpline
 70
8
 71
3
 72
8
 73
4
 74
0
 40
0
 40
0
 40
0
 40
0
 40
1
 40
1
 40
1
 40
1
 10
95.982994
 20
184.344846
 30
0.0
 10
95.982994
 20
184.228225
 30
0.0
 10
95.982994
 20
184.111606
 30
0.0
 10
95.982994
 20
183.994986
 30
0.0
  0
LWPOLYLINE
  5
18d
100
AcDbEntity
  8
Sota
 62
7
100
AcDbPolyline
 90
2
 70
1
 10
92.201176
 20
183.998318
 30
0.0
 10
92.201176
 20
183.998318
 30
0.0
  0
SPLINE
  5
18e
100
AcDbEntity
  8
Sota
 62
7
100
AcDbSpline
 70
8
 71
3
 72
8
 73
4
 74
0
 40
0
 40
0
 40
0
 40
0
 40
1
 40
1
 40
1
 40
1
 10
3.501808
 20
153.312376
 30
0.0
 10
-1.289031
 20
152.615457
 30
0.0
 10
0.645320
 20
146.989470
 30
0.0
 10
0.246331
 20
143.621373
 30
0.0
  0
LWPOLYLINE
  5
18f
100
AcDbEntity
  8
Sota
 62
7
100
AcDbPolyline
 90
2
 70
1
 10
95.982994
 20
183.994986
 30
0.0
 10
95.982994
 20
183.994986
 30
0.0
  0
SPLINE
  5
190
100
AcDbEntity
  8
Sota
 62
7
100
AcDbSpline
 70
8
 71
3
 72
8
 73
4
 74
0
 40
0
 40
0
 40
0
 40
0
 40
1
 40
1
 40
1
 40
1
 10
0.246331
 20
25.617841
 30
0.0
 10
0.943673
 20
20.827091
 30
0.0
 10
6.569608
 20
22.761301
 30
0.0
 10
9.937880
 20
22.362352
 30
0.0
  0
SPLINE
  5
191
100
AcDbEntity
  8
Sota
 62
7
100
AcDbSpline
 70
8
 71
3
 72
8
 73
4
 74
0
 40
0
 40
0
 40
0
 40
0
 40
1
 40
1
 40
1
 40
1
 10
9.937880
 20
22.362352
 30
0.0
 10
13.826427
 20
23.619257
 30
0.0
 10
12.502010
 20
19.663235
 30
0.0
 10
12.683952
 20
17.213489
 30
0.0
  0
LWPOLYLINE
  5
192
100
AcDbEntity
  8
Sota
 62
7
100
AcDbPolyline
 90
2
 70
1
 10
0.246331
 20
143.621373
 30
0.0
 10
0.246331
 20
25.617841
 30
0.0
  0
SPLINE
  5
193
100
AcDbEntity
  8
Sota
 62
7
100
AcDbSpline
 70
8
 71
3
 72
8
 73
4
 74
0
 40
0
 40
0
 40
0
 40
0
 40
1
 40
1
 40
1
 40
1
 10
138.586483
 20
22.362352
 30
0.0
 10
142.025923
 20
22.700708
 30
0.0
 10
145.875149
 20
21.524885
 30
0.0
 10
148.947631
 20
23.313807
 30
0.0
  0
SPLINE
  5
194
100
AcDbEntity
  8
Sota
 62
7
100
AcDbSpline
 70
8
 71
3
 72
8
 73
4
 74
0
 40
0
 40
0
 40
0
 40
0
 40
1
 40
1
 40
1
 40
1
 10
148.947631
 20
23.313807
 30
0.0
 10
150.793294
 20
26.979507
 30
0.0
 10
149.524285
 20
31.450048
 30
0.0
 10
149.899076
 20
35.486475
 30
0.0
  0
LWPOLYLINE
  5
195
100
AcDbEntity
  8
Sota
 62
7
100
AcDbPolyline
 90
12
 70
1
 10
12.683952
 20
17.213489
 30
0.0
 10
12.683952
 20
0.137916
 30
0.0
 10
39.592077
 20
0.137916
 30
0.0
 10
39.592077
 20
22.362352
 30
0.0
 10
72.685390
 20
22.362352
 30
0.0
 10
72.685390
 20
32.041699
 30
0.0
 10
78.588356
 20
32.001539
 30
0.0
 10
78.605571
 20
22.362352
 30
0.0
 10
111.678358
 20
22.362352
 30
0.0
 10
111.678358
 20
0.137916
 30
0.0
 10
138.586483
 20
0.137916
 30
0.0
 10
138.586483
 20
22.362352
 30
0.0
  0
SPLINE
  5
196
100
AcDbEntity
  8
Sota
 62
7
100
AcDbSpline
 70
8
 71
3
 72
8
 73
4
 74
0
 40
0
 40
0
 40
0
 40
0
 40
1
 40
1
 40
1
 40
1
 10
149.899076
 20
150.057451
 30
0.0
 10
149.201414
 20
154.847750
 30
0.0
 10
143.575656
 20
152.913314
 30
0.0
 10
140.207525
 20
153.312376
 30
0.0
  0
LWPOLYLINE
  5
197
100
AcDbEntity
  8
Sota
 62
7
100
AcDbPolyline
 90
2
 70
1
 10
149.899076
 20
35.486475
 30
0.0
 10
149.899076
 20
150.057451
 30
0.0
  0
LWPOLYLINE
  5
198
100
AcDbEntity
  8
Sota
 62
7
100
AcDbPolyline
 90
2
 70
1
 10
140.207525
 20
153.312376
 30
0.0
 10
3.501808
 20
153.312376
 30
0.0
  0
SPLINE
  5
199
100
AcDbEntity
  8
Sota
 62
7
100
AcDbSpline
 70
8
 71
3
 72
8
 73
4
 74
0
 40
0
 40
0
 40
0
 40
0
 40
1
 40
1
 40
1
 40
1
 10
78.076488
 20
78.001912
 30
0.0
 10
78.101974
 20
78.002161
 30
0.0
 10
78.131934
 20
77.754594
 30
0.0
 10
78.158865
 20
77.309789
 30
0.0
  0
SPLINE
  5
19a
100
AcDbEntity
  8
Sota
 62
7
100
AcDbSpline
 70
8
 71
3
 72
8
 73
4
 74
0
 40
0
 40
0
 40
0
 40
0
 40
1
 40
1
 40
1
 40
1
 10
78.158865
 20
77.309789
 30
0.0
 10
78.182754
 20
76.915213
 30
0.0
 10
78.216403
 20
76.170980
 30
0.0
 10
78.161955
 20
75.427458
 30
0.0
  0
LWPOLYLINE
  5
19b
100
AcDbEntity
  8
Sota
 62
7
100
AcDbPolyline
 90
5
 70
1
 10
51.261306
 20
141.271619
 30
0.0
 10
99.821167
 20
141.271619
 30
0.0
 10
99.821167
 20
133.022687
 30
0.0
 10
51.261306
 20
133.022687
 30
0.0
 10
51.261306
 20
141.271619
 30
0.0
  0
SPLINE
  5
19c
100
AcDbEntity
  8
Sota
 62
7
100
AcDbSpline
 70
8
 71
3
 72
8
 73
4
 74
0
 40
0
 40
0
 40
0
 40
0
 40
1
 40
1
 40
1
 40
1
 10
78.161955
 20
75.427458
 30
0.0
 10
78.108743
 20
74.696528
 30
0.0
 10
77.952226
 20
73.773572
 30
0.0
 10
77.499580
 20
72.910518
 30
0.0
  0
SPLINE
  5
19d
100
AcDbEntity
  8
Sota
 62
7
100
AcDbSpline
 70
8
 71
3
 72
8
 73
4
 74
0
 40
0
 40
0
 40
0
 40
0
 40
1
 40
1
 40
1
 40
1
 10
77.499580
 20
72.910518
 30
0.0
 10
77.151706
 20
72.301107
 30
0.0
 10
76.598149
 20
71.788236
 30
0.0
 10
75.916736
 20
71.438027
 30
0.0
  0
SPLINE
  5
19e
100
AcDbEntity
  8
Sota
 62
7
100
AcDbSpline
 70
8
 71
3
 72
8
 73
4
 74
0
 40
0
 40
0
 40
0
 40
0
 40
1
 40
1
 40
1
 40
1
 10
75.916736
 20
71.438027
 30
0.0
 10
75.818946
 20
71.387685
 30
0.0
 10
75.719102
 20
71.340521
 30
0.0
 10
75.617357
 20
71.296554
 30
0.0
  0
SPLINE
  5
19f
100
AcDbEntity
  8
Sota
 62
7
100
AcDbSpline
 70
8
 71
3
 72
8
 73
4
 74
0
 40
0
 40
0
 40
0
 40
0
 40
1
 40
1
 40
1
 40
1
 10
75.617357
 20
71.296554
 30
0.0
 10
75.035271
 20
71.045015
 30
0.0
 10
74.426559
 20
70.913290
 30
0.0
 10
73.842590
 20
70.869017
 30
0.0
  0
SPLINE
  5
1a0
100
AcDbEntity
  8
Sota
 62
7
100
AcDbSpline
 70
8
 71
3
 72
8
 73
4
 74
0
 40
0
 40
0
 40
0
 40
0
 40
1
 40
1
 40
1
 40
1
 10
73.842590
 20
70.869017
 30
0.0
 10
73.073518
 20
70.790870
 30
0.0
 10
72.342035
 20
70.917122
 30
0.0
 10
71.722875
 20
71.126827
 30
0.0
  0
SPLINE
  5
1a1
100
AcDbEntity
  8
Sota
 62
7
100
AcDbSpline
 70
8
 71
3
 72
8
 73
4
 74
0
 40
0
 40
0
 40
0
 40
0
 40
1
 40
1
 40
1
 40
1
 10
71.722875
 20
71.126827
 30
0.0
 10
70.944740
 20
71.389506
 30
0.0
 10
70.313641
 20
71.782177
 30
0.0
 10
69.856918
 20
72.130696
 30
0.0
  0
LWPOLYLINE
  5
1a2
100
AcDbEntity
  8
Sota
 62
7
100
AcDbPolyline
 90
2
 70
1
 10
78.161955
 20
75.427458
 30
0.0
 10
78.161955
 20
75.427458
 30
0.0
  0
SPLINE
  5
1a3
100
AcDbEntity
  8
Sota
 62
7
100
AcDbSpline
 70
8
 71
3
 72
8
 73
4
 74
0
 40
0
 40
0
 40
0
 40
0
 40
1
 40
1
 40
1
 40
1
 10
69.856918
 20
72.130697
 30
0.0
 10
69.046264
 20
72.706468
 30
0.0
 10
68.618818
 20
73.118532
 30
0.0
 10
68.631861
 20
73.136498
 30
0.0
  0
SPLINE
  5
1a4
100
AcDbEntity
  8
Sota
 62
7
100
AcDbSpline
 70
8
 71
3
 72
8
 73
4
 74
0
 40
0
 40
0
 40
0
 40
0
 40
1
 40
1
 40
1
 40
1
 10
68.631861
 20
73.136498
 30
0.0
 10
68.667034
 20
73.184948
 30
0.0
 10
69.141878
 20
72.831678
 30
0.0
 10
69.980574
 20
72.309737
 30
0.0
  0
LWPOLYLINE
  5
1a5
100
AcDbEntity
  8
Sota
 62
7
100
AcDbPolyline
 90
2
 70
1
 10
69.856918
 20
72.130696
 30
0.0
 10
69.856918
 20
72.130697
 30
0.0
  0
SPLINE
  5
1a6
100
AcDbEntity
  8
Sota
 62
7
100
AcDbSpline
 70
8
 71
3
 72
8
 73
4
 74
0
 40
0
 40
0
 40
0
 40
0
 40
1
 40
1
 40
1
 40
1
 10
69.980574
 20
72.309737
 30
0.0
 10
70.444104
 20
71.999070
 30
0.0
 10
71.069902
 20
71.645561
 30
0.0
 10
71.816375
 20
71.417059
 30
0.0
  0
SPLINE
  5
1a7
100
AcDbEntity
  8
Sota
 62
7
100
AcDbSpline
 70
8
 71
3
 72
8
 73
4
 74
0
 40
0
 40
0
 40
0
 40
0
 40
1
 40
1
 40
1
 40
1
 10
71.816375
 20
71.417059
 30
0.0
 10
72.409436
 20
71.236228
 30
0.0
 10
73.100213
 20
71.130690
 30
0.0
 10
73.809859
 20
71.212661
 30
0.0
  0
SPLINE
  5
1a8
100
AcDbEntity
  8
Sota
 62
7
100
AcDbSpline
 70
8
 71
3
 72
8
 73
4
 74
0
 40
0
 40
0
 40
0
 40
0
 40
1
 40
1
 40
1
 40
1
 10
73.809859
 20
71.212661
 30
0.0
 10
74.361757
 20
71.261801
 30
0.0
 10
74.934034
 20
71.388326
 30
0.0
 10
75.475948
 20
71.622270
 30
0.0
  0
SPLINE
  5
1a9
100
AcDbEntity
  8
Sota
 62
7
100
AcDbSpline
 70
8
 71
3
 72
8
 73
4
 74
0
 40
0
 40
0
 40
0
 40
0
 40
1
 40
1
 40
1
 40
1
 10
75.475948
 20
71.622270
 30
0.0
 10
75.570732
 20
71.663189
 30
0.0
 10
75.663610
 20
71.706975
 30
0.0
 10
75.754445
 20
71.753629
 30
0.0
  0
SPLINE
  5
1aa
100
AcDbEntity
  8
Sota
 62
7
100
AcDbSpline
 70
8
 71
3
 72
8
 73
4
 74
0
 40
0
 40
0
 40
0
 40
0
 40
1
 40
1
 40
1
 40
1
 10
75.754445
 20
71.753629
 30
0.0
 10
76.379808
 20
72.075399
 30
0.0
 10
76.889048
 20
72.533213
 30
0.0
 10
77.205562
 20
73.074284
 30
0.0
  0
SPLINE
  5
1ab
100
AcDbEntity
  8
Sota
 62
7
100
AcDbSpline
 70
8
 71
3
 72
8
 73
4
 74
0
 40
0
 40
0
 40
0
 40
0
 40
1
 40
1
 40
1
 40
1
 10
77.205562
 20
73.074284
 30
0.0
 10
77.640690
 20
73.864964
 30
0.0
 10
77.813997
 20
74.747066
 30
0.0
 10
77.896218
 20
75.452520
 30
0.0
  0
LWPOLYLINE
  5
1ac
100
AcDbEntity
  8
Sota
 62
7
100
AcDbPolyline
 90
2
 70
1
 10
69.980574
 20
72.309737
 30
0.0
 10
69.980574
 20
72.309737
 30
0.0
  0
SPLINE
  5
1ad
100
AcDbEntity
  8
Sota
 62
7
100
AcDbSpline
 70
8
 71
3
 72
8
 73
4
 74
0
 40
0
 40
0
 40
0
 40
0
 40
1
 40
1
 40
1
 40
1
 10
77.896218
 20
75.452520
 30
0.0
 10
77.975178
 20
76.133044
 30
0.0
 10
77.995231
 20
76.954643
 30
0.0
 10
78.009856
 20
77.308354
 30
0.0
  0
SPLINE
  5
1ae
100
AcDbEntity
  8
Sota
 62
7
100
AcDbSpline
 70
8
 71
3
 72
8
 73
4
 74
0
 40
0
 40
0
 40
0
 40
0
 40
1
 40
1
 40
1
 40
1
 10
78.009856
 20
77.308354
 30
0.0
 10
78.028250
 20
77.753183
 30
0.0
 10
78.048850
 20
78.001645
 30
0.0
 10
78.076487
 20
78.001912
 30
0.0
  0
LWPOLYLINE
  5
1af
100
AcDbEntity
  8
Sota
 62
7
100
AcDbPolyline
 90
2
 70
1
 10
77.896218
 20
75.452520
 30
0.0
 10
77.896218
 20
75.452520
 30
0.0
  0
SPLINE
  5
1b0
100
AcDbEntity
  8
Sota
 62
7
100
AcDbSpline
 70
8
 71
3
 72
8
 73
4
 74
0
 40
0
 40
0
 40
0
 40
0
 40
1
 40
1
 40
1
 40
1
 10
72.254247
 20
77.109134
 30
0.0
 10
72.253366
 20
77.112157
 30
0.0
 10
72.645122
 20
77.352465
 30
0.0
 10
73.409120
 20
77.492606
 30
0.0
  0
SPLINE
  5
1b1
100
AcDbEntity
  8
Sota
 62
7
100
AcDbSpline
 70
8
 71
3
 72
8
 73
4
 74
0
 40
0
 40
0
 40
0
 40
0
 40
1
 40
1
 40
1
 40
1
 10
73.409120
 20
77.492606
 30
0.0
 10
73.745941
 20
77.552939
 30
0.0
 10
74.199896
 20
77.584640
 30
0.0
 10
74.666877
 20
77.452668
 30
0.0
  0
SPLINE
  5
1b2
100
AcDbEntity
  8
Sota
 62
7
100
AcDbSpline
 70
8
 71
3
 72
8
 73
4
 74
0
 40
0
 40
0
 40
0
 40
0
 40
1
 40
1
 40
1
 40
1
 10
74.666877
 20
77.452668
 30
0.0
 10
74.835273
 20
77.358534
 30
0.0
 10
74.992223
 20
77.228807
 30
0.0
 10
75.124167
 20
77.067398
 30
0.0
  0
SPLINE
  5
1b3
100
AcDbEntity
  8
Sota
 62
7
100
AcDbSpline
 70
8
 71
3
 72
8
 73
4
 74
0
 40
0
 40
0
 40
0
 40
0
 40
1
 40
1
 40
1
 40
1
 10
75.124167
 20
77.067398
 30
0.0
 10
75.240255
 20
76.921024
 30
0.0
 10
75.333328
 20
76.754230
 30
0.0
 10
75.404533
 20
76.574135
 30
0.0
  0
SPLINE
  5
1b4
100
AcDbEntity
  8
Sota
 62
7
100
AcDbSpline
 70
8
 71
3
 72
8
 73
4
 74
0
 40
0
 40
0
 40
0
 40
0
 40
1
 40
1
 40
1
 40
1
 10
75.404533
 20
76.574135
 30
0.0
 10
75.538124
 20
76.235017
 30
0.0
 10
75.600164
 20
75.868026
 30
0.0
 10
75.619684
 20
75.482413
 30
0.0
  0
SPLINE
  5
1b5
100
AcDbEntity
  8
Sota
 62
7
100
AcDbSpline
 70
8
 71
3
 72
8
 73
4
 74
0
 40
0
 40
0
 40
0
 40
0
 40
1
 40
1
 40
1
 40
1
 10
75.619684
 20
75.482413
 30
0.0
 10
75.640810
 20
74.960576
 30
0.0
 10
75.567070
 20
74.403434
 30
0.0
 10
75.362858
 20
73.865833
 30
0.0
  0
SPLINE
  5
1b6
100
AcDbEntity
  8
Sota
 62
7
100
AcDbSpline
 70
8
 71
3
 72
8
 73
4
 74
0
 40
0
 40
0
 40
0
 40
0
 40
1
 40
1
 40
1
 40
1
 10
75.362858
 20
73.865833
 30
0.0
 10
75.293095
 20
73.683215
 30
0.0
 10
75.207243
 20
73.503450
 30
0.0
 10
75.104833
 20
73.330767
 30
0.0
  0
SPLINE
  5
1b7
100
AcDbEntity
  8
Sota
 62
7
100
AcDbSpline
 70
8
 71
3
 72
8
 73
4
 74
0
 40
0
 40
0
 40
0
 40
0
 40
1
 40
1
 40
1
 40
1
 10
75.104833
 20
73.330767
 30
0.0
 10
74.918246
 20
73.016146
 30
0.0
 10
74.684786
 20
72.738602
 30
0.0
 10
74.411978
 20
72.512790
 30
0.0
  0
SPLINE
  5
1b8
100
AcDbEntity
  8
Sota
 62
7
100
AcDbSpline
 70
8
 71
3
 72
8
 73
4
 74
0
 40
0
 40
0
 40
0
 40
0
 40
1
 40
1
 40
1
 40
1
 10
74.411978
 20
72.512790
 30
0.0
 10
74.021063
 20
72.249905
 30
0.0
 10
73.572666
 20
72.131409
 30
0.0
 10
73.156505
 20
72.094485
 30
0.0
  0
SPLINE
  5
1b9
100
AcDbEntity
  8
Sota
 62
7
100
AcDbSpline
 70
8
 71
3
 72
8
 73
4
 74
0
 40
0
 40
0
 40
0
 40
0
 40
1
 40
1
 40
1
 40
1
 10
73.156505
 20
72.094485
 30
0.0
 10
72.707264
 20
72.055224
 30
0.0
 10
72.261228
 20
72.092336
 30
0.0
 10
71.878473
 20
72.131013
 30
0.0
  0
SPLINE
  5
1ba
100
AcDbEntity
  8
Sota
 62
7
100
AcDbSpline
 70
8
 71
3
 72
8
 73
4
 74
0
 40
0
 40
0
 40
0
 40
0
 40
1
 40
1
 40
1
 40
1
 10
71.878473
 20
72.131013
 30
0.0
 10
70.943138
 20
72.250689
 30
0.0
 10
70.135207
 20
72.484203
 30
0.0
 10
69.627060
 20
72.655722
 30
0.0
  0
SPLINE
  5
1bb
100
AcDbEntity
  8
Sota
 62
7
100
AcDbSpline
 70
8
 71
3
 72
8
 73
4
 74
0
 40
0
 40
0
 40
0
 40
0
 40
1
 40
1
 40
1
 40
1
 10
69.627060
 20
72.655722
 30
0.0
 10
69.098912
 20
72.833992
 30
0.0
 10
68.811346
 20
72.970902
 30
0.0
 10
68.820465
 20
72.998269
 30
0.0
  0
SPLINE
  5
1bc
100
AcDbEntity
  8
Sota
 62
7
100
AcDbSpline
 70
8
 71
3
 72
8
 73
4
 74
0
 40
0
 40
0
 40
0
 40
0
 40
1
 40
1
 40
1
 40
1
 10
68.820465
 20
72.998269
 30
0.0
 10
68.831478
 20
73.031315
 30
0.0
 10
69.138077
 20
72.951508
 30
0.0
 10
69.674771
 20
72.824542
 30
0.0
  0
SPLINE
  5
1bd
100
AcDbEntity
  8
Sota
 62
7
100
AcDbSpline
 70
8
 71
3
 72
8
 73
4
 74
0
 40
0
 40
0
 40
0
 40
0
 40
1
 40
1
 40
1
 40
1
 10
69.674771
 20
72.824542
 30
0.0
 10
70.182644
 20
72.704394
 30
0.0
 10
71.005535
 20
72.516222
 30
0.0
 10
71.907659
 20
72.431715
 30
0.0
  0
SPLINE
  5
1be
100
AcDbEntity
  8
Sota
 62
7
100
AcDbSpline
 70
8
 71
3
 72
8
 73
4
 74
0
 40
0
 40
0
 40
0
 40
0
 40
1
 40
1
 40
1
 40
1
 10
71.907659
 20
72.431715
 30
0.0
 10
72.286372
 20
72.407085
 30
0.0
 10
72.715996
 20
72.381665
 30
0.0
 10
73.123582
 20
72.427177
 30
0.0
  0
SPLINE
  5
1bf
100
AcDbEntity
  8
Sota
 62
7
100
AcDbSpline
 70
8
 71
3
 72
8
 73
4
 74
0
 40
0
 40
0
 40
0
 40
0
 40
1
 40
1
 40
1
 40
1
 10
73.123582
 20
72.427177
 30
0.0
 10
73.495693
 20
72.468255
 30
0.0
 10
73.885397
 20
72.571451
 30
0.0
 10
74.200517
 20
72.792630
 30
0.0
  0
SPLINE
  5
1c0
100
AcDbEntity
  8
Sota
 62
7
100
AcDbSpline
 70
8
 71
3
 72
8
 73
4
 74
0
 40
0
 40
0
 40
0
 40
0
 40
1
 40
1
 40
1
 40
1
 10
74.200517
 20
72.792630
 30
0.0
 10
74.436344
 20
72.989362
 30
0.0
 10
74.639130
 20
73.234826
 30
0.0
 10
74.803186
 20
73.514896
 30
0.0
  0
SPLINE
  5
1c1
100
AcDbEntity
  8
Sota
 62
7
100
AcDbSpline
 70
8
 71
3
 72
8
 73
4
 74
0
 40
0
 40
0
 40
0
 40
0
 40
1
 40
1
 40
1
 40
1
 10
74.803186
 20
73.514896
 30
0.0
 10
74.893226
 20
73.668608
 30
0.0
 10
74.969504
 20
73.829193
 30
0.0
 10
75.032356
 20
73.992526
 30
0.0
  0
SPLINE
  5
1c2
100
AcDbEntity
  8
Sota
 62
7
100
AcDbSpline
 70
8
 71
3
 72
8
 73
4
 74
0
 40
0
 40
0
 40
0
 40
0
 40
1
 40
1
 40
1
 40
1
 10
75.032356
 20
73.992526
 30
0.0
 10
75.220497
 20
74.478451
 30
0.0
 10
75.293681
 20
74.988617
 30
0.0
 10
75.283453
 20
75.469610
 30
0.0
  0
SPLINE
  5
1c3
100
AcDbEntity
  8
Sota
 62
7
100
AcDbSpline
 70
8
 71
3
 72
8
 73
4
 74
0
 40
0
 40
0
 40
0
 40
0
 40
1
 40
1
 40
1
 40
1
 10
75.283453
 20
75.469610
 30
0.0
 10
75.269383
 20
75.832254
 30
0.0
 10
75.223833
 20
76.163756
 30
0.0
 10
75.113549
 20
76.462961
 30
0.0
  0
SPLINE
  5
1c4
100
AcDbEntity
  8
Sota
 62
7
100
AcDbSpline
 70
8
 71
3
 72
8
 73
4
 74
0
 40
0
 40
0
 40
0
 40
0
 40
1
 40
1
 40
1
 40
1
 10
75.113549
 20
76.462961
 30
0.0
 10
75.055598
 20
76.620915
 30
0.0
 10
74.982557
 20
76.764470
 30
0.0
 10
74.890942
 20
76.887762
 30
0.0
  0
SPLINE
  5
1c5
100
AcDbEntity
  8
Sota
 62
7
100
AcDbSpline
 70
8
 71
3
 72
8
 73
4
 74
0
 40
0
 40
0
 40
0
 40
0
 40
1
 40
1
 40
1
 40
1
 10
74.890942
 20
76.887762
 30
0.0
 10
74.797846
 20
77.018529
 30
0.0
 10
74.683176
 20
77.125939
 30
0.0
 10
74.557655
 20
77.204406
 30
0.0
  0
SPLINE
  5
1c6
100
AcDbEntity
  8
Sota
 62
7
100
AcDbSpline
 70
8
 71
3
 72
8
 73
4
 74
0
 40
0
 40
0
 40
0
 40
0
 40
1
 40
1
 40
1
 40
1
 10
74.557655
 20
77.204406
 30
0.0
 10
74.169438
 20
77.335000
 30
0.0
 10
73.754751
 20
77.325094
 30
0.0
 10
73.438203
 20
77.291093
 30
0.0
  0
SPLINE
  5
1c7
100
AcDbEntity
  8
Sota
 62
7
100
AcDbSpline
 70
8
 71
3
 72
8
 73
4
 74
0
 40
0
 40
0
 40
0
 40
0
 40
1
 40
1
 40
1
 40
1
 10
73.438203
 20
77.291093
 30
0.0
 10
72.692596
 20
77.213725
 30
0.0
 10
72.274673
 20
77.039108
 30
0.0
 10
72.254247
 20
77.109134
 30
0.0
  0
LWPOLYLINE
  5
1c8
100
AcDbEntity
  8
Sota
 62
7
100
AcDbPolyline
 90
2
 70
1
 10
78.076487
 20
78.001912
 30
0.0
 10
78.076488
 20
78.001912
 30
0.0
  0
SPLINE
  5
1c9
100
AcDbEntity
  8
Sota
 62
7
100
AcDbSpline
 70
8
 71
3
 72
8
 73
4
 74
0
 40
0
 40
0
 40
0
 40
0
 40
1
 40
1
 40
1
 40
1
 10
68.795349
 20
73.127590
 30
0.0
 10
68.827190
 20
73.086548
 30
0.0
 10
68.513395
 20
72.798187
 30
0.0
 10
68.009673
 20
72.333679
 30
0.0
  0
SPLINE
  5
1ca
100
AcDbEntity
  8
Sota
 62
7
100
AcDbSpline
 70
8
 71
3
 72
8
 73
4
 74
0
 40
0
 40
0
 40
0
 40
0
 40
1
 40
1
 40
1
 40
1
 10
68.009673
 20
72.333679
 30
0.0
 10
67.513199
 20
71.875855
 30
0.0
 10
66.807093
 20
71.222318
 30
0.0
 10
66.127772
 20
70.458115
 30
0.0
  0
SPLINE
  5
1cb
100
AcDbEntity
  8
Sota
 62
7
100
AcDbSpline
 70
8
 71
3
 72
8
 73
4
 74
0
 40
0
 40
0
 40
0
 40
0
 40
1
 40
1
 40
1
 40
1
 10
66.127772
 20
70.458115
 30
0.0
 10
65.846425
 20
70.141612
 30
0.0
 10
65.593966
 20
69.833953
 30
0.0
 10
65.363972
 20
69.530898
 30
0.0
  0
SPLINE
  5
1cc
100
AcDbEntity
  8
Sota
 62
7
100
AcDbSpline
 70
8
 71
3
 72
8
 73
4
 74
0
 40
0
 40
0
 40
0
 40
0
 40
1
 40
1
 40
1
 40
1
 10
65.363972
 20
69.530898
 30
0.0
 10
65.013401
 20
69.058885
 30
0.0
 10
64.776059
 20
68.662832
 30
0.0
 10
64.612669
 20
68.276293
 30
0.0
  0
SPLINE
  5
1cd
100
AcDbEntity
  8
Sota
 62
7
100
AcDbSpline
 70
8
 71
3
 72
8
 73
4
 74
0
 40
0
 40
0
 40
0
 40
0
 40
1
 40
1
 40
1
 40
1
 10
64.612669
 20
68.276293
 30
0.0
 10
64.454695
 20
67.902568
 30
0.0
 10
64.401624
 20
67.618473
 30
0.0
 10
64.364419
 20
67.437751
 30
0.0
  0
SPLINE
  5
1ce
100
AcDbEntity
  8
Sota
 62
7
100
AcDbSpline
 70
8
 71
3
 72
8
 73
4
 74
0
 40
0
 40
0
 40
0
 40
0
 40
1
 40
1
 40
1
 40
1
 10
64.364419
 20
67.437751
 30
0.0
 10
64.358568
 20
67.388672
 30
0.0
 10
64.358618
 20
67.362651
 30
0.0
 10
64.364483
 20
67.335812
 30
0.0
  0
SPLINE
  5
1cf
100
AcDbEntity
  8
Sota
 62
7
100
AcDbSpline
 70
8
 71
3
 72
8
 73
4
 74
0
 40
0
 40
0
 40
0
 40
0
 40
1
 40
1
 40
1
 40
1
 10
64.364483
 20
67.335812
 30
0.0
 10
64.369452
 20
67.313075
 30
0.0
 10
64.376825
 20
67.299059
 30
0.0
 10
64.371059
 20
67.291421
 30
0.0
  0
SPLINE
  5
1d0
100
AcDbEntity
  8
Sota
 62
7
100
AcDbSpline
 70
8
 71
3
 72
8
 73
4
 74
0
 40
0
 40
0
 40
0
 40
0
 40
1
 40
1
 40
1
 40
1
 10
64.371059
 20
67.291421
 30
0.0
 10
64.372379
 20
67.293168
 30
0.0
 10
64.273784
 20
67.282316
 30
0.0
 10
64.260705
 20
67.440388
 30
0.0
  0
SPLINE
  5
1d1
100
AcDbEntity
  8
Sota
 62
7
100
AcDbSpline
 70
8
 71
3
 72
8
 73
4
 74
0
 40
0
 40
0
 40
0
 40
0
 40
1
 40
1
 40
1
 40
1
 10
64.260705
 20
67.440388
 30
0.0
 10
64.242819
 20
67.625099
 30
0.0
 10
64.254637
 20
67.944668
 30
0.0
 10
64.381406
 20
68.356421
 30
0.0
  0
SPLINE
  5
1d2
100
AcDbEntity
  8
Sota
 62
7
100
AcDbSpline
 70
8
 71
3
 72
8
 73
4
 74
0
 40
0
 40
0
 40
0
 40
0
 40
1
 40
1
 40
1
 40
1
 10
64.381406
 20
68.356421
 30
0.0
 10
64.511812
 20
68.779988
 30
0.0
 10
64.741536
 20
69.234163
 30
0.0
 10
65.092252
 20
69.729244
 30
0.0
  0
SPLINE
  5
1d3
100
AcDbEntity
  8
Sota
 62
7
100
AcDbSpline
 70
8
 71
3
 72
8
 73
4
 74
0
 40
0
 40
0
 40
0
 40
0
 40
1
 40
1
 40
1
 40
1
 10
65.092252
 20
69.729244
 30
0.0
 10
65.318669
 20
70.047223
 30
0.0
 10
65.574454
 20
70.369048
 30
0.0
 10
65.862246
 20
70.692946
 30
0.0
  0
SPLINE
  5
1d4
100
AcDbEntity
  8
Sota
 62
7
100
AcDbSpline
 70
8
 71
3
 72
8
 73
4
 74
0
 40
0
 40
0
 40
0
 40
0
 40
1
 40
1
 40
1
 40
1
 10
65.862246
 20
70.692946
 30
0.0
 10
66.562982
 20
71.481596
 30
0.0
 10
67.301285
 20
72.109555
 30
0.0
 10
67.847904
 20
72.526285
 30
0.0
  0
SPLINE
  5
1d5
100
AcDbEntity
  8
Sota
 62
7
100
AcDbSpline
 70
8
 71
3
 72
8
 73
4
 74
0
 40
0
 40
0
 40
0
 40
0
 40
1
 40
1
 40
1
 40
1
 10
67.847904
 20
72.526285
 30
0.0
 10
68.398516
 20
72.946058
 30
0.0
 10
68.767224
 20
73.163842
 30
0.0
 10
68.795349
 20
73.127590
 30
0.0
  0
LWPOLYLINE
  5
1d6
100
AcDbEntity
  8
Sota
 62
7
100
AcDbPolyline
 90
2
 70
1
 10
72.254247
 20
77.109134
 30
0.0
 10
72.254247
 20
77.109134
 30
0.0
  0
SPLINE
  5
1d7
100
AcDbEntity
  8
Sota
 62
7
100
AcDbSpline
 70
8
 71
3
 72
8
 73
4
 74
0
 40
0
 40
0
 40
0
 40
0
 40
1
 40
1
 40
1
 40
1
 10
68.820465
 20
73.052241
 30
0.0
 10
68.801839
 20
72.942160
 30
0.0
 10
67.920452
 20
73.180384
 30
0.0
 10
66.562949
 20
73.060850
 30
0.0
  0
SPLINE
  5
1d8
100
AcDbEntity
  8
Sota
 62
7
100
AcDbSpline
 70
8
 71
3
 72
8
 73
4
 74
0
 40
0
 40
0
 40
0
 40
0
 40
1
 40
1
 40
1
 40
1
 10
66.562949
 20
73.060850
 30
0.0
 10
65.925484
 20
73.004396
 30
0.0
 10
65.160526
 20
72.848637
 30
0.0
 10
64.470877
 20
72.454585
 30
0.0
  0
SPLINE
  5
1d9
100
AcDbEntity
  8
Sota
 62
7
100
AcDbSpline
 70
8
 71
3
 72
8
 73
4
 74
0
 40
0
 40
0
 40
0
 40
0
 40
1
 40
1
 40
1
 40
1
 10
64.470877
 20
72.454585
 30
0.0
 10
64.278309
 20
72.342303
 30
0.0
 10
64.098764
 20
72.197982
 30
0.0
 10
63.941886
 20
72.026694
 30
0.0
  0
SPLINE
  5
1da
100
AcDbEntity
  8
Sota
 62
7
100
AcDbSpline
 70
8
 71
3
 72
8
 73
4
 74
0
 40
0
 40
0
 40
0
 40
0
 40
1
 40
1
 40
1
 40
1
 10
63.941886
 20
72.026694
 30
0.0
 10
63.837342
 20
71.912548
 30
0.0
 10
63.745482
 20
71.789270
 30
0.0
 10
63.667676
 20
71.659960
 30
0.0
  0
SPLINE
  5
1db
100
AcDbEntity
  8
Sota
 62
7
100
AcDbSpline
 70
8
 71
3
 72
8
 73
4
 74
0
 40
0
 40
0
 40
0
 40
0
 40
1
 40
1
 40
1
 40
1
 10
63.667676
 20
71.659960
 30
0.0
 10
63.463149
 20
71.318166
 30
0.0
 10
63.358223
 20
70.938060
 30
0.0
 10
63.357735
 20
70.576614
 30
0.0
  0
SPLINE
  5
1dc
100
AcDbEntity
  8
Sota
 62
7
100
AcDbSpline
 70
8
 71
3
 72
8
 73
4
 74
0
 40
0
 40
0
 40
0
 40
0
 40
1
 40
1
 40
1
 40
1
 10
63.357735
 20
70.576614
 30
0.0
 10
63.328732
 20
69.970131
 30
0.0
 10
63.457926
 20
69.398388
 30
0.0
 10
63.613118
 20
68.940392
 30
0.0
  0
SPLINE
  5
1dd
100
AcDbEntity
  8
Sota
 62
7
100
AcDbSpline
 70
8
 71
3
 72
8
 73
4
 74
0
 40
0
 40
0
 40
0
 40
0
 40
1
 40
1
 40
1
 40
1
 10
63.613118
 20
68.940392
 30
0.0
 10
63.848836
 20
68.245709
 30
0.0
 10
64.274362
 20
67.517996
 30
0.0
 10
64.331614
 20
67.399300
 30
0.0
  0
SPLINE
  5
1de
100
AcDbEntity
  8
Sota
 62
7
100
AcDbSpline
 70
8
 71
3
 72
8
 73
4
 74
0
 40
0
 40
0
 40
0
 40
0
 40
1
 40
1
 40
1
 40
1
 10
64.331614
 20
67.399300
 30
0.0
 10
64.341713
 20
67.380745
 30
0.0
 10
64.350055
 20
67.364373
 30
0.0
 10
64.356551
 20
67.350309
 30
0.0
  0
SPLINE
  5
1df
100
AcDbEntity
  8
Sota
 62
7
100
AcDbSpline
 70
8
 71
3
 72
8
 73
4
 74
0
 40
0
 40
0
 40
0
 40
0
 40
1
 40
1
 40
1
 40
1
 10
64.356551
 20
67.350309
 30
0.0
 10
64.372717
 20
67.316941
 30
0.0
 10
64.377856
 20
67.296913
 30
0.0
 10
64.371060
 20
67.291421
 30
0.0
  0
SPLINE
  5
1e0
100
AcDbEntity
  8
Sota
 62
7
100
AcDbSpline
 70
8
 71
3
 72
8
 73
4
 74
0
 40
0
 40
0
 40
0
 40
0
 40
1
 40
1
 40
1
 40
1
 10
64.371060
 20
67.291421
 30
0.0
 10
64.364264
 20
67.285929
 30
0.0
 10
64.345759
 20
67.295160
 30
0.0
 10
64.316256
 20
67.318306
 30
0.0
  0
SPLINE
  5
1e1
100
AcDbEntity
  8
Sota
 62
7
100
AcDbSpline
 70
8
 71
3
 72
8
 73
4
 74
0
 40
0
 40
0
 40
0
 40
0
 40
1
 40
1
 40
1
 40
1
 10
64.316256
 20
67.318306
 30
0.0
 10
64.303920
 20
67.328366
 30
0.0
 10
64.289607
 20
67.341020
 30
0.0
 10
64.273342
 20
67.356239
 30
0.0
  0
SPLINE
  5
1e2
100
AcDbEntity
  8
Sota
 62
7
100
AcDbSpline
 70
8
 71
3
 72
8
 73
4
 74
0
 40
0
 40
0
 40
0
 40
0
 40
1
 40
1
 40
1
 40
1
 10
64.273342
 20
67.356239
 30
0.0
 10
64.130652
 20
67.503252
 30
0.0
 10
63.684017
 20
68.054781
 30
0.0
 10
63.361128
 20
68.846100
 30
0.0
  0
SPLINE
  5
1e3
100
AcDbEntity
  8
Sota
 62
7
100
AcDbSpline
 70
8
 71
3
 72
8
 73
4
 74
0
 40
0
 40
0
 40
0
 40
0
 40
1
 40
1
 40
1
 40
1
 10
63.361128
 20
68.846100
 30
0.0
 10
63.168944
 20
69.316365
 30
0.0
 10
63.007813
 20
69.916979
 30
0.0
 10
63.022058
 20
70.580766
 30
0.0
  0
SPLINE
  5
1e4
100
AcDbEntity
  8
Sota
 62
7
100
AcDbSpline
 70
8
 71
3
 72
8
 73
4
 74
0
 40
0
 40
0
 40
0
 40
0
 40
1
 40
1
 40
1
 40
1
 10
63.022058
 20
70.580766
 30
0.0
 10
63.014255
 20
71.004461
 30
0.0
 10
63.127908
 20
71.445798
 30
0.0
 10
63.364106
 20
71.841398
 30
0.0
  0
SPLINE
  5
1e5
100
AcDbEntity
  8
Sota
 62
7
100
AcDbSpline
 70
8
 71
3
 72
8
 73
4
 74
0
 40
0
 40
0
 40
0
 40
0
 40
1
 40
1
 40
1
 40
1
 10
63.364106
 20
71.841398
 30
0.0
 10
63.453581
 20
71.991970
 30
0.0
 10
63.559541
 20
72.135007
 30
0.0
 10
63.680686
 20
72.267119
 30
0.0
  0
SPLINE
  5
1e6
100
AcDbEntity
  8
Sota
 62
7
100
AcDbSpline
 70
8
 71
3
 72
8
 73
4
 74
0
 40
0
 40
0
 40
0
 40
0
 40
1
 40
1
 40
1
 40
1
 10
63.680686
 20
72.267119
 30
0.0
 10
63.862498
 20
72.465392
 30
0.0
 10
64.071447
 20
72.631391
 30
0.0
 10
64.296810
 20
72.760253
 30
0.0
  0
SPLINE
  5
1e7
100
AcDbEntity
  8
Sota
 62
7
100
AcDbSpline
 70
8
 71
3
 72
8
 73
4
 74
0
 40
0
 40
0
 40
0
 40
0
 40
1
 40
1
 40
1
 40
1
 10
64.296810
 20
72.760253
 30
0.0
 10
65.058133
 20
73.181600
 30
0.0
 10
65.873625
 20
73.325926
 30
0.0
 10
66.544489
 20
73.352301
 30
0.0
  0
SPLINE
  5
1e8
100
AcDbEntity
  8
Sota
 62
7
100
AcDbSpline
 70
8
 71
3
 72
8
 73
4
 74
0
 40
0
 40
0
 40
0
 40
0
 40
1
 40
1
 40
1
 40
1
 10
66.544489
 20
73.352301
 30
0.0
 10
67.230230
 20
73.379528
 30
0.0
 10
67.836976
 20
73.297074
 30
0.0
 10
68.214361
 20
73.226317
 30
0.0
  0
SPLINE
  5
1e9
100
AcDbEntity
  8
Sota
 62
7
100
AcDbSpline
 70
8
 71
3
 72
8
 73
4
 74
0
 40
0
 40
0
 40
0
 40
0
 40
1
 40
1
 40
1
 40
1
 10
68.214361
 20
73.226317
 30
0.0
 10
68.608868
 20
73.152350
 30
0.0
 10
68.825106
 20
73.079670
 30
0.0
 10
68.820465
 20
73.052241
 30
0.0
  0
LWPOLYLINE
  5
1ea
100
AcDbEntity
  8
Sota
 62
7
100
AcDbPolyline
 90
2
 70
1
 10
68.795349
 20
73.127590
 30
0.0
 10
68.795349
 20
73.127590
 30
0.0
  0
SPLINE
  5
1eb
100
AcDbEntity
  8
Sota
 62
7
100
AcDbSpline
 70
8
 71
3
 72
8
 73
4
 74
0
 40
0
 40
0
 40
0
 40
0
 40
1
 40
1
 40
1
 40
1
 10
72.113895
 20
79.081957
 30
0.0
 10
72.116971
 20
79.097162
 30
0.0
 10
72.398317
 20
79.056177
 30
0.0
 10
72.922562
 20
78.951571
 30
0.0
  0
SPLINE
  5
1ec
100
AcDbEntity
  8
Sota
 62
7
100
AcDbSpline
 70
8
 71
3
 72
8
 73
4
 74
0
 40
0
 40
0
 40
0
 40
0
 40
1
 40
1
 40
1
 40
1
 10
72.922562
 20
78.951571
 30
0.0
 10
73.249342
 20
78.886367
 30
0.0
 10
74.408449
 20
78.631494
 30
0.0
 10
75.193456
 20
78.529892
 30
0.0
  0
SPLINE
  5
1ed
100
AcDbEntity
  8
Sota
 62
7
100
AcDbSpline
 70
8
 71
3
 72
8
 73
4
 74
0
 40
0
 40
0
 40
0
 40
0
 40
1
 40
1
 40
1
 40
1
 10
75.193456
 20
78.529892
 30
0.0
 10
75.649882
 20
78.470817
 30
0.0
 10
76.179886
 20
78.427752
 30
0.0
 10
76.726599
 20
78.457550
 30
0.0
  0
SPLINE
  5
1ee
100
AcDbEntity
  8
Sota
 62
7
100
AcDbSpline
 70
8
 71
3
 72
8
 73
4
 74
0
 40
0
 40
0
 40
0
 40
0
 40
1
 40
1
 40
1
 40
1
 10
76.726599
 20
78.457550
 30
0.0
 10
77.202440
 20
78.482915
 30
0.0
 10
77.715604
 20
78.565902
 30
0.0
 10
78.220480
 20
78.744699
 30
0.0
  0
SPLINE
  5
1ef
100
AcDbEntity
  8
Sota
 62
7
100
AcDbSpline
 70
8
 71
3
 72
8
 73
4
 74
0
 40
0
 40
0
 40
0
 40
0
 40
1
 40
1
 40
1
 40
1
 10
78.220480
 20
78.744699
 30
0.0
 10
78.387977
 20
78.824796
 30
0.0
 10
79.725400
 20
79.576280
 30
0.0
 10
79.988628
 20
79.697345
 30
0.0
  0
SPLINE
  5
1f0
100
AcDbEntity
  8
Sota
 62
7
100
AcDbSpline
 70
8
 71
3
 72
8
 73
4
 74
0
 40
0
 40
0
 40
0
 40
0
 40
1
 40
1
 40
1
 40
1
 10
79.988628
 20
79.697345
 30
0.0
 10
80.286184
 20
79.834408
 30
0.0
 10
80.612423
 20
79.952974
 30
0.0
 10
80.960436
 20
80.009567
 30
0.0
  0
SPLINE
  5
1f1
100
AcDbEntity
  8
Sota
 62
7
100
AcDbSpline
 70
8
 71
3
 72
8
 73
4
 74
0
 40
0
 40
0
 40
0
 40
0
 40
1
 40
1
 40
1
 40
1
 10
80.960436
 20
80.009567
 30
0.0
 10
81.300672
 20
80.064994
 30
0.0
 10
81.661761
 20
80.052900
 30
0.0
 10
82.011020
 20
79.956194
 30
0.0
  0
SPLINE
  5
1f2
100
AcDbEntity
  8
Sota
 62
7
100
AcDbSpline
 70
8
 71
3
 72
8
 73
4
 74
0
 40
0
 40
0
 40
0
 40
0
 40
1
 40
1
 40
1
 40
1
 10
82.011020
 20
79.956194
 30
0.0
 10
82.599703
 20
79.836459
 30
0.0
 10
83.154463
 20
79.620283
 30
0.0
 10
83.728731
 20
79.378201
 30
0.0
  0
SPLINE
  5
1f3
100
AcDbEntity
  8
Sota
 62
7
100
AcDbSpline
 70
8
 71
3
 72
8
 73
4
 74
0
 40
0
 40
0
 40
0
 40
0
 40
1
 40
1
 40
1
 40
1
 10
83.728731
 20
79.378201
 30
0.0
 10
84.235659
 20
79.151277
 30
0.0
 10
84.772255
 20
78.896097
 30
0.0
 10
85.311695
 20
78.730297
 30
0.0
  0
SPLINE
  5
1f4
100
AcDbEntity
  8
Sota
 62
7
100
AcDbSpline
 70
8
 71
3
 72
8
 73
4
 74
0
 40
0
 40
0
 40
0
 40
0
 40
1
 40
1
 40
1
 40
1
 10
85.311695
 20
78.730297
 30
0.0
 10
85.824528
 20
79.203758
 30
0.0
 10
86.243728
 20
79.796518
 30
0.0
 10
86.595926
 20
80.457611
 30
0.0
  0
SPLINE
  5
1f5
100
AcDbEntity
  8
Sota
 62
7
100
AcDbSpline
 70
8
 71
3
 72
8
 73
4
 74
0
 40
0
 40
0
 40
0
 40
0
 40
1
 40
1
 40
1
 40
1
 10
86.595926
 20
80.457611
 30
0.0
 10
86.974499
 20
81.127339
 30
0.0
 10
87.282172
 20
81.866725
 30
0.0
 10
87.437028
 20
82.649405
 30
0.0
  0
SPLINE
  5
1f6
100
AcDbEntity
  8
Sota
 62
7
100
AcDbSpline
 70
8
 71
3
 72
8
 73
4
 74
0
 40
0
 40
0
 40
0
 40
0
 40
1
 40
1
 40
1
 40
1
 10
87.437028
 20
82.649405
 30
0.0
 10
87.506075
 20
82.998768
 30
0.0
 10
87.544533
 20
83.357047
 30
0.0
 10
87.530060
 20
83.713279
 30
0.0
  0
SPLINE
  5
1f7
100
AcDbEntity
  8
Sota
 62
7
100
AcDbSpline
 70
8
 71
3
 72
8
 73
4
 74
0
 40
0
 40
0
 40
0
 40
0
 40
1
 40
1
 40
1
 40
1
 10
87.530060
 20
83.713279
 30
0.0
 10
87.516710
 20
84.033710
 30
0.0
 10
87.462161
 20
84.354276
 30
0.0
 10
87.344050
 20
84.648457
 30
0.0
  0
SPLINE
  5
1f8
100
AcDbEntity
  8
Sota
 62
7
100
AcDbSpline
 70
8
 71
3
 72
8
 73
4
 74
0
 40
0
 40
0
 40
0
 40
0
 40
1
 40
1
 40
1
 40
1
 10
87.344050
 20
84.648457
 30
0.0
 10
87.232581
 20
84.927518
 30
0.0
 10
87.061833
 20
85.185896
 30
0.0
 10
86.840764
 20
85.390878
 30
0.0
  0
SPLINE
  5
1f9
100
AcDbEntity
  8
Sota
 62
7
100
AcDbSpline
 70
8
 71
3
 72
8
 73
4
 74
0
 40
0
 40
0
 40
0
 40
0
 40
1
 40
1
 40
1
 40
1
 10
86.840764
 20
85.390878
 30
0.0
 10
86.592977
 20
85.621196
 30
0.0
 10
86.280771
 20
85.788127
 30
0.0
 10
85.945954
 20
85.900459
 30
0.0
  0
SPLINE
  5
1fa
100
AcDbEntity
  8
Sota
 62
7
100
AcDbSpline
 70
8
 71
3
 72
8
 73
4
 74
0
 40
0
 40
0
 40
0
 40
0
 40
1
 40
1
 40
1
 40
1
 10
85.945954
 20
85.900459
 30
0.0
 10
85.499515
 20
86.114006
 30
0.0
 10
85.025529
 20
86.278642
 30
0.0
 10
84.535971
 20
86.430698
 30
0.0
  0
SPLINE
  5
1fb
100
AcDbEntity
  8
Sota
 62
7
100
AcDbSpline
 70
8
 71
3
 72
8
 73
4
 74
0
 40
0
 40
0
 40
0
 40
0
 40
1
 40
1
 40
1
 40
1
 10
84.535971
 20
86.430698
 30
0.0
 10
84.076622
 20
86.572780
 30
0.0
 10
83.539206
 20
86.720751
 30
0.0
 10
83.065061
 20
86.870663
 30
0.0
  0
SPLINE
  5
1fc
100
AcDbEntity
  8
Sota
 62
7
100
AcDbSpline
 70
8
 71
3
 72
8
 73
4
 74
0
 40
0
 40
0
 40
0
 40
0
 40
1
 40
1
 40
1
 40
1
 10
83.065061
 20
86.870663
 30
0.0
 10
82.943252
 20
86.909099
 30
0.0
 10
82.821220
 20
86.949013
 30
0.0
 10
82.699411
 20
86.990934
 30
0.0
  0
SPLINE
  5
1fd
100
AcDbEntity
  8
Sota
 62
7
100
AcDbSpline
 70
8
 71
3
 72
8
 73
4
 74
0
 40
0
 40
0
 40
0
 40
0
 40
1
 40
1
 40
1
 40
1
 10
82.699411
 20
86.990934
 30
0.0
 10
82.333486
 20
87.116867
 30
0.0
 10
81.973761
 20
87.259490
 30
0.0
 10
81.626969
 20
87.433545
 30
0.0
  0
SPLINE
  5
1fe
100
AcDbEntity
  8
Sota
 62
7
100
AcDbSpline
 70
8
 71
3
 72
8
 73
4
 74
0
 40
0
 40
0
 40
0
 40
0
 40
1
 40
1
 40
1
 40
1
 10
81.626969
 20
87.433545
 30
0.0
 10
81.156984
 20
87.668255
 30
0.0
 10
80.718907
 20
87.964642
 30
0.0
 10
80.343898
 20
88.329281
 30
0.0
  0
SPLINE
  5
1ff
100
AcDbEntity
  8
Sota
 62
7
100
AcDbSpline
 70
8
 71
3
 72
8
 73
4
 74
0
 40
0
 40
0
 40
0
 40
0
 40
1
 40
1
 40
1
 40
1
 10
80.343898
 20
88.329281
 30
0.0
 10
79.515646
 20
88.917006
 30
0.0
 10
78.535079
 20
89.255231
 30
0.0
 10
77.561707
 20
89.305291
 30
0.0
  0
SPLINE
  5
200
100
AcDbEntity
  8
Sota
 62
7
100
AcDbSpline
 70
8
 71
3
 72
8
 73
4
 74
0
 40
0
 40
0
 40
0
 40
0
 40
1
 40
1
 40
1
 40
1
 10
77.561707
 20
89.305291
 30
0.0
 10
77.063149
 20
89.332106
 30
0.0
 10
76.567544
 20
89.281912
 30
0.0
 10
76.103711
 20
89.144915
 30
0.0
  0
SPLINE
  5
201
100
AcDbEntity
  8
Sota
 62
7
100
AcDbSpline
 70
8
 71
3
 72
8
 73
4
 74
0
 40
0
 40
0
 40
0
 40
0
 40
1
 40
1
 40
1
 40
1
 10
76.103711
 20
89.144915
 30
0.0
 10
75.621578
 20
89.002306
 30
0.0
 10
75.174620
 20
88.765168
 30
0.0
 10
74.799478
 20
88.453333
 30
0.0
  0
SPLINE
  5
202
100
AcDbEntity
  8
Sota
 62
7
100
AcDbSpline
 70
8
 71
3
 72
8
 73
4
 74
0
 40
0
 40
0
 40
0
 40
0
 40
1
 40
1
 40
1
 40
1
 10
74.799478
 20
88.453333
 30
0.0
 10
74.349793
 20
88.113661
 30
0.0
 10
73.964598
 20
87.702439
 30
0.0
 10
73.649380
 20
87.255757
 30
0.0
  0
SPLINE
  5
203
100
AcDbEntity
  8
Sota
 62
7
100
AcDbSpline
 70
8
 71
3
 72
8
 73
4
 74
0
 40
0
 40
0
 40
0
 40
0
 40
1
 40
1
 40
1
 40
1
 10
73.649380
 20
87.255757
 30
0.0
 10
73.325653
 20
86.796614
 30
0.0
 10
73.072790
 20
86.296644
 30
0.0
 10
72.875152
 20
85.789987
 30
0.0
  0
SPLINE
  5
204
100
AcDbEntity
  8
Sota
 62
7
100
AcDbSpline
 70
8
 71
3
 72
8
 73
4
 74
0
 40
0
 40
0
 40
0
 40
0
 40
1
 40
1
 40
1
 40
1
 10
72.875152
 20
85.789987
 30
0.0
 10
72.449295
 20
84.698771
 30
0.0
 10
72.264256
 20
83.546894
 30
0.0
 10
72.181052
 20
82.487557
 30
0.0
  0
SPLINE
  5
205
100
AcDbEntity
  8
Sota
 62
7
100
AcDbSpline
 70
8
 71
3
 72
8
 73
4
 74
0
 40
0
 40
0
 40
0
 40
0
 40
1
 40
1
 40
1
 40
1
 10
72.181052
 20
82.487557
 30
0.0
 10
72.081033
 20
81.533625
 30
0.0
 10
72.070840
 20
80.448704
 30
0.0
 10
72.039975
 20
79.602886
 30
0.0
  0
SPLINE
  5
206
100
AcDbEntity
  8
Sota
 62
7
100
AcDbSpline
 70
8
 71
3
 72
8
 73
4
 74
0
 40
0
 40
0
 40
0
 40
0
 40
1
 40
1
 40
1
 40
1
 10
72.039975
 20
79.602886
 30
0.0
 10
71.999782
 20
78.504802
 30
0.0
 10
71.922887
 20
77.590055
 30
0.0
 10
71.721069
 20
76.705422
 30
0.0
  0
SPLINE
  5
207
100
AcDbEntity
  8
Sota
 62
7
100
AcDbSpline
 70
8
 71
3
 72
8
 73
4
 74
0
 40
0
 40
0
 40
0
 40
0
 40
1
 40
1
 40
1
 40
1
 10
71.721069
 20
76.705422
 30
0.0
 10
71.571314
 20
76.304859
 30
0.0
 10
71.362877
 20
75.950815
 30
0.0
 10
71.145687
 20
75.649952
 30
0.0
  0
SPLINE
  5
208
100
AcDbEntity
  8
Sota
 62
7
100
AcDbSpline
 70
8
 71
3
 72
8
 73
4
 74
0
 40
0
 40
0
 40
0
 40
0
 40
1
 40
1
 40
1
 40
1
 10
71.145687
 20
75.649952
 30
0.0
 10
70.897597
 20
75.307444
 30
0.0
 10
70.618749
 20
75.003460
 30
0.0
 10
70.377417
 20
74.754845
 30
0.0
  0
SPLINE
  5
209
100
AcDbEntity
  8
Sota
 62
7
100
AcDbSpline
 70
8
 71
3
 72
8
 73
4
 74
0
 40
0
 40
0
 40
0
 40
0
 40
1
 40
1
 40
1
 40
1
 10
70.377417
 20
74.754845
 30
0.0
 10
69.202634
 20
73.543407
 30
0.0
 10
70.058913
 20
74.488215
 30
0.0
 10
69.148117
 20
73.523853
 30
0.0
  0
SPLINE
  5
20a
100
AcDbEntity
  8
Sota
 62
7
100
AcDbSpline
 70
8
 71
3
 72
8
 73
4
 74
0
 40
0
 40
0
 40
0
 40
0
 40
1
 40
1
 40
1
 40
1
 10
69.148117
 20
73.523853
 30
0.0
 10
68.875855
 20
73.235580
 30
0.0
 10
68.744808
 20
73.071305
 30
0.0
 10
68.732818
 20
73.080383
 30
0.0
  0
SPLINE
  5
20b
100
AcDbEntity
  8
Sota
 62
7
100
AcDbSpline
 70
8
 71
3
 72
8
 73
4
 74
0
 40
0
 40
0
 40
0
 40
0
 40
1
 40
1
 40
1
 40
1
 10
68.732818
 20
73.080383
 30
0.0
 10
68.723889
 20
73.087142
 30
0.0
 10
68.834796
 20
73.267177
 30
0.0
 10
69.091006
 20
73.574527
 30
0.0
  0
SPLINE
  5
20c
100
AcDbEntity
  8
Sota
 62
7
100
AcDbSpline
 70
8
 71
3
 72
8
 73
4
 74
0
 40
0
 40
0
 40
0
 40
0
 40
1
 40
1
 40
1
 40
1
 10
69.091006
 20
73.574527
 30
0.0
 10
69.517821
 20
74.086534
 30
0.0
 10
69.583289
 20
74.104507
 30
0.0
 10
70.270279
 20
74.855753
 30
0.0
  0
SPLINE
  5
20d
100
AcDbEntity
  8
Sota
 62
7
100
AcDbSpline
 70
8
 71
3
 72
8
 73
4
 74
0
 40
0
 40
0
 40
0
 40
0
 40
1
 40
1
 40
1
 40
1
 10
70.270279
 20
74.855753
 30
0.0
 10
70.501512
 20
75.108864
 30
0.0
 10
70.768471
 20
75.415516
 30
0.0
 10
71.000397
 20
75.752576
 30
0.0
  0
SPLINE
  5
20e
100
AcDbEntity
  8
Sota
 62
7
100
AcDbSpline
 70
8
 71
3
 72
8
 73
4
 74
0
 40
0
 40
0
 40
0
 40
0
 40
1
 40
1
 40
1
 40
1
 10
71.000397
 20
75.752576
 30
0.0
 10
71.202383
 20
76.045158
 30
0.0
 10
71.394233
 20
76.384846
 30
0.0
 10
71.526620
 20
76.761674
 30
0.0
  0
SPLINE
  5
20f
100
AcDbEntity
  8
Sota
 62
7
100
AcDbSpline
 70
8
 71
3
 72
8
 73
4
 74
0
 40
0
 40
0
 40
0
 40
0
 40
1
 40
1
 40
1
 40
1
 10
71.526620
 20
76.761674
 30
0.0
 10
71.707541
 20
77.629384
 30
0.0
 10
71.765836
 20
78.522226
 30
0.0
 10
71.790134
 20
79.610258
 30
0.0
  0
SPLINE
  5
210
100
AcDbEntity
  8
Sota
 62
7
100
AcDbSpline
 70
8
 71
3
 72
8
 73
4
 74
0
 40
0
 40
0
 40
0
 40
0
 40
1
 40
1
 40
1
 40
1
 10
71.790134
 20
79.610258
 30
0.0
 10
71.809087
 20
80.453516
 30
0.0
 10
71.806190
 20
81.536012
 30
0.0
 10
71.897902
 20
82.511924
 30
0.0
  0
SPLINE
  5
211
100
AcDbEntity
  8
Sota
 62
7
100
AcDbSpline
 70
8
 71
3
 72
8
 73
4
 74
0
 40
0
 40
0
 40
0
 40
0
 40
1
 40
1
 40
1
 40
1
 10
71.897902
 20
82.511924
 30
0.0
 10
71.970165
 20
83.588761
 30
0.0
 10
72.150417
 20
84.768256
 30
0.0
 10
72.582324
 20
85.902836
 30
0.0
  0
SPLINE
  5
212
100
AcDbEntity
  8
Sota
 62
7
100
AcDbSpline
 70
8
 71
3
 72
8
 73
4
 74
0
 40
0
 40
0
 40
0
 40
0
 40
1
 40
1
 40
1
 40
1
 10
72.582324
 20
85.902836
 30
0.0
 10
72.783390
 20
86.430767
 30
0.0
 10
73.044731
 20
86.955101
 30
0.0
 10
73.383064
 20
87.442109
 30
0.0
  0
SPLINE
  5
213
100
AcDbEntity
  8
Sota
 62
7
100
AcDbSpline
 70
8
 71
3
 72
8
 73
4
 74
0
 40
0
 40
0
 40
0
 40
0
 40
1
 40
1
 40
1
 40
1
 10
73.383064
 20
87.442109
 30
0.0
 10
73.711192
 20
87.914830
 30
0.0
 10
74.115403
 20
88.351230
 30
0.0
 10
74.591198
 20
88.714777
 30
0.0
  0
SPLINE
  5
214
100
AcDbEntity
  8
Sota
 62
7
100
AcDbSpline
 70
8
 71
3
 72
8
 73
4
 74
0
 40
0
 40
0
 40
0
 40
0
 40
1
 40
1
 40
1
 40
1
 10
74.591198
 20
88.714777
 30
0.0
 10
74.999222
 20
89.056751
 30
0.0
 10
75.483155
 20
89.316216
 30
0.0
 10
76.006654
 20
89.472006
 30
0.0
  0
SPLINE
  5
215
100
AcDbEntity
  8
Sota
 62
7
100
AcDbSpline
 70
8
 71
3
 72
8
 73
4
 74
0
 40
0
 40
0
 40
0
 40
0
 40
1
 40
1
 40
1
 40
1
 10
76.006654
 20
89.472006
 30
0.0
 10
76.511213
 20
89.622358
 30
0.0
 10
77.045441
 20
89.679156
 30
0.0
 10
77.580005
 20
89.651346
 30
0.0
  0
SPLINE
  5
216
100
AcDbEntity
  8
Sota
 62
7
100
AcDbSpline
 70
8
 71
3
 72
8
 73
4
 74
0
 40
0
 40
0
 40
0
 40
0
 40
1
 40
1
 40
1
 40
1
 10
77.580005
 20
89.651346
 30
0.0
 10
78.627662
 20
89.594547
 30
0.0
 10
79.678008
 20
89.232133
 30
0.0
 10
80.569258
 20
88.600106
 30
0.0
  0
SPLINE
  5
217
100
AcDbEntity
  8
Sota
 62
7
100
AcDbSpline
 70
8
 71
3
 72
8
 73
4
 74
0
 40
0
 40
0
 40
0
 40
0
 40
1
 40
1
 40
1
 40
1
 10
80.569258
 20
88.600106
 30
0.0
 10
80.920662
 20
88.258855
 30
0.0
 10
81.336669
 20
87.978070
 30
0.0
 10
81.786316
 20
87.750627
 30
0.0
  0
SPLINE
  5
218
100
AcDbEntity
  8
Sota
 62
7
100
AcDbSpline
 70
8
 71
3
 72
8
 73
4
 74
0
 40
0
 40
0
 40
0
 40
0
 40
1
 40
1
 40
1
 40
1
 10
81.786316
 20
87.750627
 30
0.0
 10
82.114088
 20
87.585685
 30
0.0
 10
82.459187
 20
87.449425
 30
0.0
 10
82.815047
 20
87.327003
 30
0.0
  0
SPLINE
  5
219
100
AcDbEntity
  8
Sota
 62
7
100
AcDbSpline
 70
8
 71
3
 72
8
 73
4
 74
0
 40
0
 40
0
 40
0
 40
0
 40
1
 40
1
 40
1
 40
1
 10
82.815047
 20
87.327003
 30
0.0
 10
82.933502
 20
87.286253
 30
0.0
 10
83.052705
 20
87.247187
 30
0.0
 10
83.172193
 20
87.209282
 30
0.0
  0
SPLINE
  5
21a
100
AcDbEntity
  8
Sota
 62
7
100
AcDbSpline
 70
8
 71
3
 72
8
 73
4
 74
0
 40
0
 40
0
 40
0
 40
0
 40
1
 40
1
 40
1
 40
1
 10
83.172193
 20
87.209282
 30
0.0
 10
83.635083
 20
87.062737
 30
0.0
 10
84.175852
 20
86.913369
 30
0.0
 10
84.640810
 20
86.769091
 30
0.0
  0
SPLINE
  5
21b
100
AcDbEntity
  8
Sota
 62
7
100
AcDbSpline
 70
8
 71
3
 72
8
 73
4
 74
0
 40
0
 40
0
 40
0
 40
0
 40
1
 40
1
 40
1
 40
1
 10
84.640810
 20
86.769091
 30
0.0
 10
85.131181
 20
86.617553
 30
0.0
 10
85.614342
 20
86.448621
 30
0.0
 10
86.077629
 20
86.226327
 30
0.0
  0
SPLINE
  5
21c
100
AcDbEntity
  8
Sota
 62
7
100
AcDbSpline
 70
8
 71
3
 72
8
 73
4
 74
0
 40
0
 40
0
 40
0
 40
0
 40
1
 40
1
 40
1
 40
1
 10
86.077629
 20
86.226327
 30
0.0
 10
86.445267
 20
86.104900
 30
0.0
 10
86.793206
 20
85.914337
 30
0.0
 10
87.079368
 20
85.646761
 30
0.0
  0
SPLINE
  5
21d
100
AcDbEntity
  8
Sota
 62
7
100
AcDbSpline
 70
8
 71
3
 72
8
 73
4
 74
0
 40
0
 40
0
 40
0
 40
0
 40
1
 40
1
 40
1
 40
1
 10
87.079368
 20
85.646761
 30
0.0
 10
87.340046
 20
85.402526
 30
0.0
 10
87.538636
 20
85.101455
 30
0.0
 10
87.666836
 20
84.776547
 30
0.0
  0
SPLINE
  5
21e
100
AcDbEntity
  8
Sota
 62
7
100
AcDbSpline
 70
8
 71
3
 72
8
 73
4
 74
0
 40
0
 40
0
 40
0
 40
0
 40
1
 40
1
 40
1
 40
1
 10
87.666836
 20
84.776547
 30
0.0
 10
87.800465
 20
84.436339
 30
0.0
 10
87.861805
 20
84.077561
 30
0.0
 10
87.873828
 20
83.726264
 30
0.0
  0
SPLINE
  5
21f
100
AcDbEntity
  8
Sota
 62
7
100
AcDbSpline
 70
8
 71
3
 72
8
 73
4
 74
0
 40
0
 40
0
 40
0
 40
0
 40
1
 40
1
 40
1
 40
1
 10
87.873828
 20
83.726264
 30
0.0
 10
87.887529
 20
83.336597
 30
0.0
 10
87.845436
 20
82.951867
 30
0.0
 10
87.770152
 20
82.582509
 30
0.0
  0
SPLINE
  5
220
100
AcDbEntity
  8
Sota
 62
7
100
AcDbSpline
 70
8
 71
3
 72
8
 73
4
 74
0
 40
0
 40
0
 40
0
 40
0
 40
1
 40
1
 40
1
 40
1
 10
87.770152
 20
82.582509
 30
0.0
 10
87.602053
 20
81.756979
 30
0.0
 10
87.278036
 20
80.986400
 30
0.0
 10
86.880875
 20
80.295190
 30
0.0
  0
SPLINE
  5
221
100
AcDbEntity
  8
Sota
 62
7
100
AcDbSpline
 70
8
 71
3
 72
8
 73
4
 74
0
 40
0
 40
0
 40
0
 40
0
 40
1
 40
1
 40
1
 40
1
 10
86.880875
 20
80.295190
 30
0.0
 10
86.460218
 20
79.600389
 30
0.0
 10
85.965473
 20
78.972224
 30
0.0
 10
85.372397
 20
78.462652
 30
0.0
  0
SPLINE
  5
222
100
AcDbEntity
  8
Sota
 62
7
100
AcDbSpline
 70
8
 71
3
 72
8
 73
4
 74
0
 40
0
 40
0
 40
0
 40
0
 40
1
 40
1
 40
1
 40
1
 10
85.372397
 20
78.462652
 30
0.0
 10
84.753650
 20
78.630612
 30
0.0
 10
84.158353
 20
78.882326
 30
0.0
 10
83.611798
 20
79.102966
 30
0.0
  0
SPLINE
  5
223
100
AcDbEntity
  8
Sota
 62
7
100
AcDbSpline
 70
8
 71
3
 72
8
 73
4
 74
0
 40
0
 40
0
 40
0
 40
0
 40
1
 40
1
 40
1
 40
1
 10
83.611798
 20
79.102966
 30
0.0
 10
83.039321
 20
79.348076
 30
0.0
 10
82.503160
 20
79.564266
 30
0.0
 10
81.943993
 20
79.682520
 30
0.0
  0
SPLINE
  5
224
100
AcDbEntity
  8
Sota
 62
7
100
AcDbSpline
 70
8
 71
3
 72
8
 73
4
 74
0
 40
0
 40
0
 40
0
 40
0
 40
1
 40
1
 40
1
 40
1
 10
81.943993
 20
79.682520
 30
0.0
 10
81.635144
 20
79.772165
 30
0.0
 10
81.310079
 20
79.786934
 30
0.0
 10
81.001943
 20
79.741841
 30
0.0
  0
SPLINE
  5
225
100
AcDbEntity
  8
Sota
 62
7
100
AcDbSpline
 70
8
 71
3
 72
8
 73
4
 74
0
 40
0
 40
0
 40
0
 40
0
 40
1
 40
1
 40
1
 40
1
 10
81.001943
 20
79.741841
 30
0.0
 10
80.687012
 20
79.695653
 30
0.0
 10
80.381573
 20
79.587734
 30
0.0
 10
80.095127
 20
79.461304
 30
0.0
  0
SPLINE
  5
226
100
AcDbEntity
  8
Sota
 62
7
100
AcDbSpline
 70
8
 71
3
 72
8
 73
4
 74
0
 40
0
 40
0
 40
0
 40
0
 40
1
 40
1
 40
1
 40
1
 10
80.095127
 20
79.461304
 30
0.0
 10
79.866851
 20
79.360368
 30
0.0
 10
78.487585
 20
78.614629
 30
0.0
 10
78.306878
 20
78.531566
 30
0.0
  0
SPLINE
  5
227
100
AcDbEntity
  8
Sota
 62
7
100
AcDbSpline
 70
8
 71
3
 72
8
 73
4
 74
0
 40
0
 40
0
 40
0
 40
0
 40
1
 40
1
 40
1
 40
1
 10
78.306878
 20
78.531566
 30
0.0
 10
77.769423
 20
78.351054
 30
0.0
 10
77.230967
 20
78.272512
 30
0.0
 10
76.735559
 20
78.254929
 30
0.0
  0
SPLINE
  5
228
100
AcDbEntity
  8
Sota
 62
7
100
AcDbSpline
 70
8
 71
3
 72
8
 73
4
 74
0
 40
0
 40
0
 40
0
 40
0
 40
1
 40
1
 40
1
 40
1
 10
76.735559
 20
78.254929
 30
0.0
 10
76.170344
 20
78.235562
 30
0.0
 10
75.631177
 20
78.291187
 30
0.0
 10
75.169660
 20
78.362991
 30
0.0
  0
SPLINE
  5
229
100
AcDbEntity
  8
Sota
 62
7
100
AcDbSpline
 70
8
 71
3
 72
8
 73
4
 74
0
 40
0
 40
0
 40
0
 40
0
 40
1
 40
1
 40
1
 40
1
 10
75.169660
 20
78.362991
 30
0.0
 10
74.317141
 20
78.495629
 30
0.0
 10
73.281135
 20
78.768843
 30
0.0
 10
72.902976
 20
78.865367
 30
0.0
  0
SPLINE
  5
22a
100
AcDbEntity
  8
Sota
 62
7
100
AcDbSpline
 70
8
 71
3
 72
8
 73
4
 74
0
 40
0
 40
0
 40
0
 40
0
 40
1
 40
1
 40
1
 40
1
 10
72.902976
 20
78.865367
 30
0.0
 10
72.386054
 20
78.997310
 30
0.0
 10
72.110926
 20
79.067289
 30
0.0
 10
72.113895
 20
79.081957
 30
0.0
  0
LWPOLYLINE
  5
22b
100
AcDbEntity
  8
Sota
 62
7
100
AcDbPolyline
 90
2
 70
1
 10
68.820465
 20
73.052241
 30
0.0
 10
68.820465
 20
73.052241
 30
0.0
  0
LWPOLYLINE
  5
22c
100
AcDbEntity
  8
Sota
 62
7
100
AcDbPolyline
 90
2
 70
1
 10
72.113895
 20
79.081957
 30
0.0
 10
72.113895
 20
79.081957
 30
0.0
  0
ENDSEC
  0
SECTION
  2
OBJECTS
  0
DICTIONARY
  5
C
330
0
100
AcDbDictionary
  3
ACAD_GROUP
350
D
  3
ACAD_MLINESTYLE
350
17
  0
DICTIONARY
  5
D
330
C
100
AcDbDictionary
  0
DICTIONARY
  5
1A
330
C
100
AcDbDictionary
  0
DICTIONARY
  5
17
330
C
100
AcDbDictionary
  3
STANDARD
350
18
  0
DICTIONARY
  5
19
330
C
100
AcDbDictionary
  0
ENDSEC
  0
EOF
