  0
SECTION
  2
HEADER
  9
$ACADVER
  1
AC1014
  9
$HANDSEED
  5
FFFF
  9
$MEASUREMENT
 70
     1
  0
ENDSEC
  0
SECTION
  2
TABLES
  0
TABLE
  2
VPORT
  5
8
330
0
100
AcDbSymbolTable
 70
     4
  0
VPORT
  5
2E
330
8
100
AcDbSymbolTableRecord
100
AcDbViewportTableRecord
  2
*ACTIVE
 70
     0
 10
0.0
 20
0.0
 11
1.0
 21
1.0
 12
210.0
 22
148.5
 13
0.0
 23
0.0
 14
10.0
 24
10.0
 15
10.0
 25
10.0
 16
0.0
 26
0.0
 36
1.0
 17
0.0
 27
0.0
 37
0.0
 40
341.0
 41
1.24
 42
50.0
 43
0.0
 44
0.0
 50
0.0
 51
0.0
 71
     0
 72
   100
 73
     1
 74
     3
 75
     0
 76
     0
 77
     0
 78
     0
  0
ENDTAB
  0
TABLE
  2
LTYPE
  5
5
330
0
100
AcDbSymbolTable
 70
     1
  0
LTYPE
  5
14
330
5
100
AcDbSymbolTableRecord
100
AcDbLinetypeTableRecord
  2
BYBLOCK
 70
     0
  3

 72
    65
 73
     0
 40
0.0
  0
LTYPE
  5
15
330
5
100
AcDbSymbolTableRecord
100
AcDbLinetypeTableRecord
  2
BYLAYER
 70
     0
  3

 72
    65
 73
     0
 40
0.0
  0
LTYPE
  5
16
330
5
100
AcDbSymbolTableRecord
100
AcDbLinetypeTableRecord
  2
CONTINUOUS
 70
     0
  3
Solid line
 72
    65
 73
     0
 40
0.0
  0
ENDTAB
  0
TABLE
  2
LAYER
  5
2
100
AcDbSymbolTable
 70
4
  0
LAYER
  5
50
100
AcDbSymbolTableRecord
100
AcDbLayerTableRecord
  2
0
 70
0
  6
CONTINUOUS
  0
LAYER
  5
51
100
AcDbSymbolTableRecord
100
AcDbLayerTableRecord
  2
Patró
 70
0
  6
CONTINUOUS
  0
LAYER
  5
52
100
AcDbSymbolTableRecord
100
AcDbLayerTableRecord
  2
Sobre
 70
0
  6
CONTINUOUS
  0
LAYER
  5
53
100
AcDbSymbolTableRecord
100
AcDbLayerTableRecord
  2
Sota
 70
0
  6
CONTINUOUS
  0
ENDTAB
  0
TABLE
  2
STYLE
  5
3
330
0
100
AcDbSymbolTable
 70
     1
  0
STYLE
  5
11
330
3
100
AcDbSymbolTableRecord
100
AcDbTextStyleTableRecord
  2
STANDARD
 70
     0
 40
0.0
 41
1.0
 50
0.0
 71
     0
 42
2.5
  3
txt
  4

  0
ENDTAB
  0
TABLE
  2
VIEW
  5
6
330
0
100
AcDbSymbolTable
 70
     0
  0
ENDTAB
  0
TABLE
  2
UCS
  5
7
330
0
100
AcDbSymbolTable
 70
     0
  0
ENDTAB
  0
TABLE
  2
APPID
  5
9
330
0
100
AcDbSymbolTable
 70
     2
  0
APPID
  5
12
330
9
100
AcDbSymbolTableRecord
100
AcDbRegAppTableRecord
  2
ACAD
 70
     0
  0
ENDTAB
  0
TABLE
  2
DIMSTYLE
  5
A
330
0
100
AcDbSymbolTable
 70
     1
  0
DIMSTYLE
105
27
330
A
100
AcDbSymbolTableRecord
100
AcDbDimStyleTableRecord
  2
ISO-25
 70
     0
  3

  4

  5

  6

  7

 40
1.0
 41
2.5
 42
0.625
 43
3.75
 44
1.25
 45
0.0
 46
0.0
 47
0.0
 48
0.0
140
2.5
141
2.5
142
0.0
143
0.03937007874016
144
1.0
145
0.0
146
1.0
147
0.625
 71
     0
 72
     0
 73
     0
 74
     0
 75
     0
 76
     0
 77
     1
 78
     8
170
     0
171
     3
172
     1
173
     0
174
     0
175
     0
176
     0
177
     0
178
     0
270
     2
271
     2
272
     2
273
     2
274
     3
340
11
275
     0
280
     0
281
     0
282
     0
283
     0
284
     8
285
     0
286
     0
287
     3
288
     0
  0
ENDTAB
  0
TABLE
  2
BLOCK_RECORD
  5
1
330
0
100
AcDbSymbolTable
 70
     1
  0
BLOCK_RECORD
  5
1F
330
1
100
AcDbSymbolTableRecord
100
AcDbBlockTableRecord
  2
*MODEL_SPACE
  0
BLOCK_RECORD
  5
1B
330
1
100
AcDbSymbolTableRecord
100
AcDbBlockTableRecord
  2
*PAPER_SPACE
  0
ENDTAB
  0
ENDSEC
  0
SECTION
  2
BLOCKS
  0
BLOCK
  5
20
330
1F
100
AcDbEntity
  8
0
100
AcDbBlockBegin
  2
*MODEL_SPACE
 70
     0
 10
0.0
 20
0.0
 30
0.0
  3
*MODEL_SPACE
  1

  0
ENDBLK
  5
21
330
1F
100
AcDbEntity
  8
0
100
AcDbBlockEnd
  0
BLOCK
  5
1C
330
1B
100
AcDbEntity
 67
     1
  8
0
100
AcDbBlockBegin
  2
*PAPER_SPACE
  1

  0
ENDBLK
  5
1D
330
1B
100
AcDbEntity
 67
     1
  8
0
100
AcDbBlockEnd
  0
ENDSEC
  0
SECTION
  2
ENTITIES
  0
SPLINE
  5
100
100
AcDbEntity
  8
Sota
 62
7
100
AcDbSpline
 70
8
 71
3
 72
8
 73
4
 74
0
 40
0
 40
0
 40
0
 40
0
 40
1
 40
1
 40
1
 40
1
 10
3.282945
 20
164.312346
 30
0.0
 10
-1.208467
 20
163.658984
 30
0.0
 10
0.604988
 20
158.384621
 30
0.0
 10
0.230935
 20
155.227031
 30
0.0
  0
SPLINE
  5
101
100
AcDbEntity
  8
Sota
 62
7
100
AcDbSpline
 70
8
 71
3
 72
8
 73
4
 74
0
 40
0
 40
0
 40
0
 40
0
 40
1
 40
1
 40
1
 40
1
 10
140.627341
 20
41.530953
 30
0.0
 10
140.967098
 20
81.382310
 30
0.0
 10
140.530334
 20
121.363915
 30
0.0
 10
140.530334
 20
161.260854
 30
0.0
  0
SPLINE
  5
102
100
AcDbEntity
  8
Sota
 62
7
100
AcDbSpline
 70
8
 71
3
 72
8
 73
4
 74
0
 40
0
 40
0
 40
0
 40
0
 40
1
 40
1
 40
1
 40
1
 10
140.530334
 20
161.260854
 30
0.0
 10
139.876276
 20
165.751759
 30
0.0
 10
134.602127
 20
163.938226
 30
0.0
 10
131.444505
 20
164.312346
 30
0.0
  0
LWPOLYLINE
  5
103
100
AcDbEntity
  8
Sota
 62
7
100
AcDbPolyline
 90
15
 70
0
 10
0.230935
 20
155.227031
 30
0.0
 10
0.198511
 20
41.486000
 30
0.0
 10
11.891205
 20
41.488646
 30
0.0
 10
11.891205
 20
20.711420
 30
0.0
 10
37.117573
 20
20.711420
 30
0.0
 10
37.117573
 20
41.546828
 30
0.0
 10
68.142554
 20
41.546828
 30
0.0
 10
68.142554
 20
50.621216
 30
0.0
 10
73.676584
 20
50.583566
 30
0.0
 10
73.692724
 20
41.546828
 30
0.0
 10
104.698461
 20
41.546828
 30
0.0
 10
104.698461
 20
20.711420
 30
0.0
 10
129.924829
 20
20.711420
 30
0.0
 10
129.924829
 20
41.546828
 30
0.0
 10
140.627341
 20
41.530953
 30
0.0
  0
LWPOLYLINE
  5
104
100
AcDbEntity
  8
Sota
 62
7
100
AcDbPolyline
 90
2
 70
0
 10
131.444505
 20
164.312346
 30
0.0
 10
3.282945
 20
164.312346
 30
0.0
  0
SPLINE
  5
105
100
AcDbEntity
  8
Sota
 62
5
100
AcDbSpline
 70
8
 71
3
 72
8
 73
4
 74
0
 40
0
 40
0
 40
0
 40
0
 40
1
 40
1
 40
1
 40
1
 10
64.209498
 20
89.033718
 30
0.0
 10
65.673771
 20
87.750736
 30
0.0
 10
66.249929
 20
87.440585
 30
0.0
 10
67.472737
 20
87.165026
 30
0.0
  0
SPLINE
  5
106
100
AcDbEntity
  8
Sota
 62
5
100
AcDbSpline
 70
8
 71
3
 72
8
 73
4
 74
0
 40
0
 40
0
 40
0
 40
0
 40
1
 40
1
 40
1
 40
1
 10
67.472737
 20
87.165026
 30
0.0
 10
68.477882
 20
86.938516
 30
0.0
 10
69.612867
 20
86.984244
 30
0.0
 10
70.554686
 20
87.402098
 30
0.0
  0
SPLINE
  5
107
100
AcDbEntity
  8
Sota
 62
5
100
AcDbSpline
 70
8
 71
3
 72
8
 73
4
 74
0
 40
0
 40
0
 40
0
 40
0
 40
1
 40
1
 40
1
 40
1
 10
70.554686
 20
87.402098
 30
0.0
 10
71.444356
 20
87.796815
 30
0.0
 10
72.259417
 20
88.529845
 30
0.0
 10
72.674397
 20
89.410246
 30
0.0
  0
SPLINE
  5
108
100
AcDbEntity
  8
Sota
 62
5
100
AcDbSpline
 70
8
 71
3
 72
8
 73
4
 74
0
 40
0
 40
0
 40
0
 40
0
 40
1
 40
1
 40
1
 40
1
 10
72.674397
 20
89.410246
 30
0.0
 10
73.282300
 20
90.699941
 30
0.0
 10
72.967252
 20
93.677559
 30
0.0
 10
72.967252
 20
93.677559
 30
0.0
  0
SPLINE
  5
109
100
AcDbEntity
  8
Sota
 62
5
100
AcDbSpline
 70
8
 71
3
 72
8
 73
4
 74
0
 40
0
 40
0
 40
0
 40
0
 40
1
 40
1
 40
1
 40
1
 10
64.279225
 20
88.977937
 30
0.0
 10
64.279225
 20
88.977937
 30
0.0
 10
67.737958
 20
87.621129
 30
0.0
 10
69.257757
 20
88.322499
 30
0.0
  0
SPLINE
  5
10a
100
AcDbEntity
  8
Sota
 62
5
100
AcDbSpline
 70
8
 71
3
 72
8
 73
4
 74
0
 40
0
 40
0
 40
0
 40
0
 40
1
 40
1
 40
1
 40
1
 10
69.257757
 20
88.322499
 30
0.0
 10
69.987112
 20
88.659088
 30
0.0
 10
70.432727
 20
89.552897
 30
0.0
 10
70.568632
 20
90.344592
 30
0.0
  0
SPLINE
  5
10b
100
AcDbEntity
  8
Sota
 62
5
100
AcDbSpline
 70
8
 71
3
 72
8
 73
4
 74
0
 40
0
 40
0
 40
0
 40
0
 40
1
 40
1
 40
1
 40
1
 10
70.568632
 20
90.344592
 30
0.0
 10
70.723907
 20
91.249129
 30
0.0
 10
70.669026
 20
92.481843
 30
0.0
 10
69.927139
 20
93.022123
 30
0.0
  0
SPLINE
  5
10c
100
AcDbEntity
  8
Sota
 62
5
100
AcDbSpline
 70
8
 71
3
 72
8
 73
4
 74
0
 40
0
 40
0
 40
0
 40
0
 40
1
 40
1
 40
1
 40
1
 10
69.927139
 20
93.022123
 30
0.0
 10
69.290221
 20
93.485960
 30
0.0
 10
67.570355
 20
92.840832
 30
0.0
 10
67.570355
 20
92.840832
 30
0.0
  0
LWPOLYLINE
  5
10d
100
AcDbEntity
  8
Sota
 62
7
100
AcDbPolyline
 90
4
 70
1
 10
48.057475
 20
153.024137
 30
0.0
 10
93.582344
 20
153.024137
 30
0.0
 10
93.582344
 20
145.290763
 30
0.0
 10
48.057475
 20
145.290763
 30
0.0
  0
SPLINE
  5
10e
100
AcDbEntity
  8
Sota
 62
5
100
AcDbSpline
 70
8
 71
3
 72
8
 73
4
 74
0
 40
0
 40
0
 40
0
 40
0
 40
1
 40
1
 40
1
 40
1
 10
64.181607
 20
88.977937
 30
0.0
 10
64.181607
 20
88.977937
 30
0.0
 10
61.349379
 20
86.685764
 30
0.0
 10
60.458166
 20
85.142933
 30
0.0
  0
SPLINE
  5
10f
100
AcDbEntity
  8
Sota
 62
5
100
AcDbSpline
 70
8
 71
3
 72
8
 73
4
 74
0
 40
0
 40
0
 40
0
 40
0
 40
1
 40
1
 40
1
 40
1
 10
60.458166
 20
85.142933
 30
0.0
 10
60.211603
 20
84.716092
 30
0.0
 10
59.984020
 20
83.706549
 30
0.0
 10
59.984020
 20
83.706549
 30
0.0
  0
SPLINE
  5
110
100
AcDbEntity
  8
Sota
 62
5
100
AcDbSpline
 70
8
 71
3
 72
8
 73
4
 74
0
 40
0
 40
0
 40
0
 40
0
 40
1
 40
1
 40
1
 40
1
 10
59.984020
 20
83.748385
 30
0.0
 10
59.984020
 20
83.748385
 30
0.0
 10
59.311039
 20
84.928566
 30
0.0
 10
59.133347
 20
85.589187
 30
0.0
  0
SPLINE
  5
111
100
AcDbEntity
  8
Sota
 62
5
100
AcDbSpline
 70
8
 71
3
 72
8
 73
4
 74
0
 40
0
 40
0
 40
0
 40
0
 40
1
 40
1
 40
1
 40
1
 10
59.133347
 20
85.589187
 30
0.0
 10
58.987955
 20
86.129727
 30
0.0
 10
58.801361
 20
86.737045
 30
0.0
 10
58.993892
 20
87.262644
 30
0.0
  0
SPLINE
  5
112
100
AcDbEntity
  8
Sota
 62
5
100
AcDbSpline
 70
8
 71
3
 72
8
 73
4
 74
0
 40
0
 40
0
 40
0
 40
0
 40
1
 40
1
 40
1
 40
1
 10
58.993892
 20
87.262644
 30
0.0
 10
59.276537
 20
88.034250
 30
0.0
 10
59.979147
 20
88.688326
 30
0.0
 10
60.737076
 20
89.005828
 30
0.0
  0
SPLINE
  5
113
100
AcDbEntity
  8
Sota
 62
5
100
AcDbSpline
 70
8
 71
3
 72
8
 73
4
 74
0
 40
0
 40
0
 40
0
 40
0
 40
1
 40
1
 40
1
 40
1
 10
60.737076
 20
89.005828
 30
0.0
 10
61.808984
 20
89.454858
 30
0.0
 10
64.223443
 20
89.033718
 30
0.0
 10
64.223443
 20
89.033718
 30
0.0
  0
SPLINE
  5
114
100
AcDbEntity
  8
Sota
 62
5
100
AcDbSpline
 70
8
 71
3
 72
8
 73
4
 74
0
 40
0
 40
0
 40
0
 40
0
 40
1
 40
1
 40
1
 40
1
 10
64.223443
 20
89.033718
 30
0.0
 10
64.223443
 20
89.033718
 30
0.0
 10
66.270138
 20
90.852282
 30
0.0
 10
66.831246
 20
92.059885
 30
0.0
  0
SPLINE
  5
115
100
AcDbEntity
  8
Sota
 62
5
100
AcDbSpline
 70
8
 71
3
 72
8
 73
4
 74
0
 40
0
 40
0
 40
0
 40
0
 40
1
 40
1
 40
1
 40
1
 10
66.831246
 20
92.059885
 30
0.0
 10
67.227984
 20
92.913738
 30
0.0
 10
67.163588
 20
93.914373
 30
0.0
 10
67.277501
 20
94.848979
 30
0.0
  0
SPLINE
  5
116
100
AcDbEntity
  8
Sota
 62
5
100
AcDbSpline
 70
8
 71
3
 72
8
 73
4
 74
0
 40
0
 40
0
 40
0
 40
0
 40
1
 40
1
 40
1
 40
1
 10
67.277501
 20
94.848979
 30
0.0
 10
67.519063
 20
96.830891
 30
0.0
 10
67.060559
 20
98.955007
 30
0.0
 10
67.779538
 20
100.817639
 30
0.0
  0
SPLINE
  5
117
100
AcDbEntity
  8
Sota
 62
5
100
AcDbSpline
 70
8
 71
3
 72
8
 73
4
 74
0
 40
0
 40
0
 40
0
 40
0
 40
1
 40
1
 40
1
 40
1
 10
67.779538
 20
100.817639
 30
0.0
 10
68.281074
 20
102.116951
 30
0.0
 10
69.112610
 20
103.438295
 30
0.0
 10
70.317613
 20
104.136661
 30
0.0
  0
SPLINE
  5
118
100
AcDbEntity
  8
Sota
 62
5
100
AcDbSpline
 70
8
 71
3
 72
8
 73
4
 74
0
 40
0
 40
0
 40
0
 40
0
 40
1
 40
1
 40
1
 40
1
 10
70.317613
 20
104.136661
 30
0.0
 10
71.169679
 20
104.630481
 30
0.0
 10
72.283392
 20
104.734379
 30
0.0
 10
73.246161
 20
104.527134
 30
0.0
  0
SPLINE
  5
119
100
AcDbEntity
  8
Sota
 62
5
100
AcDbSpline
 70
8
 71
3
 72
8
 73
4
 74
0
 40
0
 40
0
 40
0
 40
0
 40
1
 40
1
 40
1
 40
1
 10
73.246161
 20
104.527134
 30
0.0
 10
74.209574
 20
104.319751
 30
0.0
 10
74.876143
 20
103.408427
 30
0.0
 10
75.756346
 20
102.965242
 30
0.0
  0
SPLINE
  5
11a
100
AcDbEntity
  8
Sota
 62
5
100
AcDbSpline
 70
8
 71
3
 72
8
 73
4
 74
0
 40
0
 40
0
 40
0
 40
0
 40
1
 40
1
 40
1
 40
1
 10
75.756346
 20
102.965242
 30
0.0
 10
77.586689
 20
102.043658
 30
0.0
 10
80.004371
 20
102.134256
 30
0.0
 10
81.473989
 20
100.706076
 30
0.0
  0
SPLINE
  5
11b
100
AcDbEntity
  8
Sota
 62
5
100
AcDbSpline
 70
8
 71
3
 72
8
 73
4
 74
0
 40
0
 40
0
 40
0
 40
0
 40
1
 40
1
 40
1
 40
1
 10
81.473989
 20
100.706076
 30
0.0
 10
81.829424
 20
100.360663
 30
0.0
 10
82.000018
 20
99.831439
 30
0.0
 10
82.059698
 20
99.339420
 30
0.0
  0
SPLINE
  5
11c
100
AcDbEntity
  8
Sota
 62
5
100
AcDbSpline
 70
8
 71
3
 72
8
 73
4
 74
0
 40
0
 40
0
 40
0
 40
0
 40
1
 40
1
 40
1
 40
1
 10
82.059698
 20
99.339420
 30
0.0
 10
82.169756
 20
98.432077
 30
0.0
 10
81.963850
 20
97.478154
 30
0.0
 10
81.613443
 20
96.633999
 30
0.0
  0
SPLINE
  5
11d
100
AcDbEntity
  8
Sota
 62
5
100
AcDbSpline
 70
8
 71
3
 72
8
 73
4
 74
0
 40
0
 40
0
 40
0
 40
0
 40
1
 40
1
 40
1
 40
1
 10
81.613443
 20
96.633999
 30
0.0
 10
81.222719
 20
95.692718
 30
0.0
 10
79.828423
 20
94.151706
 30
0.0
 10
79.828423
 20
94.151706
 30
0.0
  0
SPLINE
  5
11e
100
AcDbEntity
  8
Sota
 62
5
100
AcDbSpline
 70
8
 71
3
 72
8
 73
4
 74
0
 40
0
 40
0
 40
0
 40
0
 40
1
 40
1
 40
1
 40
1
 10
79.828423
 20
94.151706
 30
0.0
 10
79.828423
 20
94.151706
 30
0.0
 10
77.400846
 20
95.589859
 30
0.0
 10
76.063146
 20
95.546252
 30
0.0
  0
SPLINE
  5
11f
100
AcDbEntity
  8
Sota
 62
5
100
AcDbSpline
 70
8
 71
3
 72
8
 73
4
 74
0
 40
0
 40
0
 40
0
 40
0
 40
1
 40
1
 40
1
 40
1
 10
76.063146
 20
95.546252
 30
0.0
 10
74.923441
 20
95.509099
 30
0.0
 10
74.040807
 20
94.446881
 30
0.0
 10
72.939361
 20
94.151706
 30
0.0
  0
SPLINE
  5
120
100
AcDbEntity
  8
Sota
 62
5
100
AcDbSpline
 70
8
 71
3
 72
8
 73
4
 74
0
 40
0
 40
0
 40
0
 40
0
 40
1
 40
1
 40
1
 40
1
 10
72.939361
 20
94.151706
 30
0.0
 10
72.505984
 20
94.035566
 30
0.0
 10
72.049170
 20
94.003016
 30
0.0
 10
71.600596
 20
94.012250
 30
0.0
  0
SPLINE
  5
121
100
AcDbEntity
  8
Sota
 62
5
100
AcDbSpline
 70
8
 71
3
 72
8
 73
4
 74
0
 40
0
 40
0
 40
0
 40
0
 40
1
 40
1
 40
1
 40
1
 10
71.600596
 20
94.012250
 30
0.0
 10
70.313682
 20
94.038744
 30
0.0
 10
67.779538
 20
94.570069
 30
0.0
 10
67.779538
 20
94.570069
 30
0.0
  0
SPLINE
  5
122
100
AcDbEntity
  8
Sota
 62
7
100
AcDbSpline
 70
8
 71
3
 72
8
 73
4
 74
0
 40
0
 40
0
 40
0
 40
0
 40
1
 40
1
 40
1
 40
1
 10
4.133338
 20
329.155582
 30
0.0
 10
1.929945
 20
329.155582
 30
0.0
 10
0.156320
 20
327.381955
 30
0.0
 10
0.156320
 20
325.178563
 30
0.0
  0
LWPOLYLINE
  5
123
100
AcDbEntity
  8
Sota
 62
5
100
AcDbPolyline
 90
3
 70
0
 10
67.570355
 20
92.840832
 30
0.0
 10
67.570355
 20
92.840832
 30
0.0
 10
67.584301
 20
92.840832
 30
0.0
  0
SPLINE
  5
124
100
AcDbEntity
  8
Sota
 62
7
100
AcDbSpline
 70
8
 71
3
 72
8
 73
4
 74
0
 40
0
 40
0
 40
0
 40
0
 40
1
 40
1
 40
1
 40
1
 10
0.156320
 20
173.142363
 30
0.0
 10
0.156320
 20
170.938966
 30
0.0
 10
1.929945
 20
169.165358
 30
0.0
 10
4.133338
 20
169.165358
 30
0.0
  0
SPLINE
  5
125
100
AcDbEntity
  8
Sota
 62
7
100
AcDbSpline
 70
8
 71
3
 72
8
 73
4
 74
0
 40
0
 40
0
 40
0
 40
0
 40
1
 40
1
 40
1
 40
1
 10
4.133338
 20
169.165358
 30
0.0
 10
32.852897
 20
169.051269
 30
0.0
 10
50.665682
 20
169.047486
 30
0.0
 10
68.007992
 20
169.073362
 30
0.0
  0
LWPOLYLINE
  5
126
100
AcDbEntity
  8
Sota
 62
7
100
AcDbPolyline
 90
2
 70
0
 10
0.156320
 20
325.178563
 30
0.0
 10
0.156320
 20
173.142363
 30
0.0
  0
SPLINE
  5
127
100
AcDbEntity
  8
Sota
 62
7
100
AcDbSpline
 70
8
 71
3
 72
8
 73
4
 74
0
 40
0
 40
0
 40
0
 40
0
 40
1
 40
1
 40
1
 40
1
 10
72.565337
 20
169.080083
 30
0.0
 10
89.994695
 20
169.110801
 30
0.0
 10
107.697074
 20
169.165358
 30
0.0
 10
136.439992
 20
169.165358
 30
0.0
  0
SPLINE
  5
128
100
AcDbEntity
  8
Sota
 62
7
100
AcDbSpline
 70
8
 71
3
 72
8
 73
4
 74
0
 40
0
 40
0
 40
0
 40
0
 40
1
 40
1
 40
1
 40
1
 10
136.439992
 20
169.165358
 30
0.0
 10
138.643386
 20
169.165358
 30
0.0
 10
140.417010
 20
170.938966
 30
0.0
 10
140.417010
 20
173.142363
 30
0.0
  0
LWPOLYLINE
  5
129
100
AcDbEntity
  8
Sota
 62
7
100
AcDbPolyline
 90
4
 70
0
 10
68.007992
 20
169.073362
 30
0.0
 10
68.007992
 20
178.166853
 30
0.0
 10
72.565337
 20
178.166853
 30
0.0
 10
72.565337
 20
169.080083
 30
0.0
  0
SPLINE
  5
12a
100
AcDbEntity
  8
Sota
 62
7
100
AcDbSpline
 70
8
 71
3
 72
8
 73
4
 74
0
 40
0
 40
0
 40
0
 40
0
 40
1
 40
1
 40
1
 40
1
 10
140.417010
 20
325.178563
 30
0.0
 10
140.417010
 20
327.381955
 30
0.0
 10
138.643386
 20
329.155582
 30
0.0
 10
136.439992
 20
329.155582
 30
0.0
  0
LWPOLYLINE
  5
12b
100
AcDbEntity
  8
Sota
 62
7
100
AcDbPolyline
 90
2
 70
0
 10
140.417010
 20
173.142363
 30
0.0
 10
140.417010
 20
325.178563
 30
0.0
  0
LWPOLYLINE
  5
12c
100
AcDbEntity
  8
Sota
 62
7
100
AcDbPolyline
 90
3
 70
0
 10
136.439992
 20
329.155582
 30
0.0
 10
4.133338
 20
329.155582
 30
0.0
 10
4.133338
 20
329.155582
 30
0.0
  0
LWPOLYLINE
  5
12d
100
AcDbEntity
  8
Sota
 62
7
100
AcDbPolyline
 90
5
 70
1
 10
47.464543
 20
317.666878
 30
0.0
 10
92.989413
 20
317.666878
 30
0.0
 10
92.989413
 20
309.933499
 30
0.0
 10
47.464543
 20
309.933499
 30
0.0
 10
47.464543
 20
317.666878
 30
0.0
  0
SPLINE
  5
12e
100
AcDbEntity
  8
Sota
 62
7
100
AcDbSpline
 70
8
 71
3
 72
8
 73
4
 74
0
 40
0
 40
0
 40
0
 40
0
 40
1
 40
1
 40
1
 40
1
 10
70.051279
 20
278.810853
 30
0.0
 10
59.130464
 20
278.810718
 30
0.0
 10
50.277427
 20
269.957680
 30
0.0
 10
50.277292
 20
259.036865
 30
0.0
  0
SPLINE
  5
12f
100
AcDbEntity
  8
Sota
 62
7
100
AcDbSpline
 70
8
 71
3
 72
8
 73
4
 74
0
 40
0
 40
0
 40
0
 40
0
 40
1
 40
1
 40
1
 40
1
 10
50.277292
 20
259.036865
 30
0.0
 10
50.277427
 20
248.116051
 30
0.0
 10
59.130464
 20
239.263013
 30
0.0
 10
70.051279
 20
239.262878
 30
0.0
  0
SPLINE
  5
130
100
AcDbEntity
  8
Sota
 62
7
100
AcDbSpline
 70
8
 71
3
 72
8
 73
4
 74
0
 40
0
 40
0
 40
0
 40
0
 40
1
 40
1
 40
1
 40
1
 10
70.051279
 20
239.262878
 30
0.0
 10
80.972094
 20
239.263013
 30
0.0
 10
89.825131
 20
248.116051
 30
0.0
 10
89.825266
 20
259.036865
 30
0.0
  0
SPLINE
  5
131
100
AcDbEntity
  8
Sota
 62
7
100
AcDbSpline
 70
8
 71
3
 72
8
 73
4
 74
0
 40
0
 40
0
 40
0
 40
0
 40
1
 40
1
 40
1
 40
1
 10
89.825266
 20
259.036865
 30
0.0
 10
89.825131
 20
269.957680
 30
0.0
 10
80.972094
 20
278.810718
 30
0.0
 10
70.051279
 20
278.810853
 30
0.0
  0
LWPOLYLINE
  5
132
100
AcDbEntity
  8
Sota
 62
7
100
AcDbPolyline
 90
21
 70
1
 10
48.917169
 20
296.372053
 30
0.0
 10
91.583298
 20
296.372053
 30
0.0
 10
92.888128
 20
295.067223
 30
0.0
 10
92.888128
 20
290.949645
 30
0.0
 10
104.765957
 20
290.949645
 30
0.0
 10
105.404677
 20
289.925419
 30
0.0
 10
105.404677
 20
228.023770
 30
0.0
 10
103.942750
 20
226.561844
 30
0.0
 10
93.165112
 20
226.561844
 30
0.0
 10
93.165112
 20
223.102623
 30
0.0
 10
91.846847
 20
221.784358
 30
0.0
 10
49.222059
 20
221.784358
 30
0.0
 10
47.508470
 20
223.497431
 30
0.0
 10
47.508470
 20
226.793354
 30
0.0
 10
36.918418
 20
226.793354
 30
0.0
 10
35.275623
 20
227.742134
 30
0.0
 10
35.275623
 20
289.895447
 30
0.0
 10
36.918418
 20
291.125344
 30
0.0
 10
47.816460
 20
291.125344
 30
0.0
 10
47.816460
 20
294.465193
 30
0.0
 10
48.917169
 20
296.372053
 30
0.0
  0
LWPOLYLINE
  5
133
100
AcDbEntity
  8
Sota
 62
7
100
AcDbPolyline
 90
1
 70
1
 10
70.051279
 20
278.810853
 30
0.0
  0
LWPOLYLINE
  5
134
100
AcDbEntity
  8
Sota
 62
7
100
AcDbPolyline
 90
5
 70
1
 10
11.255900
 20
195.330162
 30
0.0
 10
36.567017
 20
195.330162
 30
0.0
 10
36.567017
 20
185.311661
 30
0.0
 10
11.255900
 20
185.311661
 30
0.0
 10
11.255900
 20
195.330162
 30
0.0
  0
SPLINE
  5
135
100
AcDbEntity
  8
Sota
 62
5
100
AcDbSpline
 70
8
 71
3
 72
8
 73
4
 74
0
 40
0
 40
0
 40
0
 40
0
 40
1
 40
1
 40
1
 40
1
 10
52.328002
 20
193.182963
 30
0.0
 10
52.309632
 20
192.428556
 30
0.0
 10
52.293725
 20
191.670006
 30
0.0
 10
52.378803
 20
190.919010
 30
0.0
  0
SPLINE
  5
136
100
AcDbEntity
  8
Sota
 62
5
100
AcDbSpline
 70
8
 71
3
 72
8
 73
4
 74
0
 40
0
 40
0
 40
0
 40
0
 40
1
 40
1
 40
1
 40
1
 10
52.378803
 20
190.919010
 30
0.0
 10
52.449219
 20
190.374128
 30
0.0
 10
52.775308
 20
189.869856
 30
0.0
 10
53.201340
 20
189.551175
 30
0.0
  0
SPLINE
  5
137
100
AcDbEntity
  8
Sota
 62
5
100
AcDbSpline
 70
8
 71
3
 72
8
 73
4
 74
0
 40
0
 40
0
 40
0
 40
0
 40
1
 40
1
 40
1
 40
1
 10
53.201340
 20
189.551175
 30
0.0
 10
53.552125
 20
189.288783
 30
0.0
 10
54.030815
 20
189.189786
 30
0.0
 10
54.473013
 20
189.219584
 30
0.0
  0
SPLINE
  5
138
100
AcDbEntity
  8
Sota
 62
5
100
AcDbSpline
 70
8
 71
3
 72
8
 73
4
 74
0
 40
0
 40
0
 40
0
 40
0
 40
1
 40
1
 40
1
 40
1
 10
54.473013
 20
189.219584
 30
0.0
 10
54.871176
 20
189.259832
 30
0.0
 10
55.214295
 20
189.501685
 30
0.0
 10
55.493266
 20
189.768795
 30
0.0
  0
SPLINE
  5
139
100
AcDbEntity
  8
Sota
 62
5
100
AcDbSpline
 70
8
 71
3
 72
8
 73
4
 74
0
 40
0
 40
0
 40
0
 40
0
 40
1
 40
1
 40
1
 40
1
 10
55.493266
 20
189.768795
 30
0.0
 10
55.741390
 20
190.006370
 30
0.0
 10
55.913682
 20
190.327741
 30
0.0
 10
56.020691
 20
190.654170
 30
0.0
  0
SPLINE
  5
13a
100
AcDbEntity
  8
Sota
 62
5
100
AcDbSpline
 70
8
 71
3
 72
8
 73
4
 74
0
 40
0
 40
0
 40
0
 40
0
 40
1
 40
1
 40
1
 40
1
 10
56.020691
 20
190.654170
 30
0.0
 10
56.129746
 20
190.986839
 30
0.0
 10
56.102674
 20
191.351064
 30
0.0
 10
56.121674
 20
191.699571
 30
0.0
  0
SPLINE
  5
13b
100
AcDbEntity
  8
Sota
 62
5
100
AcDbSpline
 70
8
 71
3
 72
8
 73
4
 74
0
 40
0
 40
0
 40
0
 40
0
 40
1
 40
1
 40
1
 40
1
 10
56.121674
 20
191.699571
 30
0.0
 10
56.125381
 20
192.206753
 30
0.0
 10
56.124915
 20
192.713962
 30
0.0
 10
56.121965
 20
193.221147
 30
0.0
  0
LWPOLYLINE
  5
13c
100
AcDbEntity
  8
Sota
 62
7
100
AcDbPolyline
 90
5
 70
1
 10
104.062638
 20
195.330162
 30
0.0
 10
129.374273
 20
195.330162
 30
0.0
 10
129.374273
 20
185.311661
 30
0.0
 10
104.062638
 20
185.311661
 30
0.0
 10
104.062638
 20
195.330162
 30
0.0
  0
LWPOLYLINE
  5
13d
100
AcDbEntity
  8
Sota
 62
5
100
AcDbPolyline
 90
5
 70
0
 10
47.954182
 20
189.144379
 30
0.0
 10
48.002034
 20
192.685374
 30
0.0
 10
49.772532
 20
189.527188
 30
0.0
 10
51.662659
 20
192.852855
 30
0.0
 10
51.662659
 20
189.192231
 30
0.0
  0
LWPOLYLINE
  5
13e
100
AcDbEntity
  8
Sota
 62
5
100
AcDbPolyline
 90
5
 70
0
 10
56.806673
 20
189.072602
 30
0.0
 10
56.854525
 20
192.613598
 30
0.0
 10
58.625023
 20
189.455412
 30
0.0
 10
60.515151
 20
192.781079
 30
0.0
 10
60.515151
 20
189.120455
 30
0.0
  0
LWPOLYLINE
  5
13f
100
AcDbEntity
  8
Sota
 62
5
100
AcDbPolyline
 90
3
 70
0
 10
61.089365
 20
189.120452
 30
0.0
 10
63.242674
 20
193.139963
 30
0.0
 10
65.419907
 20
189.048676
 30
0.0
  0
LWPOLYLINE
  5
140
100
AcDbEntity
  8
Sota
 62
5
100
AcDbPolyline
 90
4
 70
0
 10
66.018048
 20
193.522772
 30
0.0
 10
66.018048
 20
189.048676
 30
0.0
 10
66.089824
 20
189.048676
 30
0.0
 10
66.018048
 20
189.048676
 30
0.0
  0
LWPOLYLINE
  5
141
100
AcDbEntity
  8
Sota
 62
5
100
AcDbPolyline
 90
3
 70
0
 10
69.846153
 20
193.498849
 30
0.0
 10
66.975075
 20
190.675620
 30
0.0
 10
69.894003
 20
187.732766
 30
0.0
  0
LWPOLYLINE
  5
142
100
AcDbEntity
  8
Sota
 62
5
100
AcDbPolyline
 90
4
 70
0
 10
73.698182
 20
193.355294
 30
0.0
 10
70.492144
 20
193.379212
 30
0.0
 10
70.492144
 20
189.168297
 30
0.0
 10
73.698182
 20
189.168297
 30
0.0
  0
LWPOLYLINE
  5
143
100
AcDbEntity
  8
Sota
 62
5
100
AcDbPolyline
 90
2
 70
0
 10
71.185990
 20
190.484215
 30
0.0
 10
73.722108
 20
190.508134
 30
0.0
  0
SPLINE
  5
144
100
AcDbEntity
  8
Sota
 62
5
100
AcDbSpline
 70
8
 71
3
 72
8
 73
4
 74
0
 40
0
 40
0
 40
0
 40
0
 40
1
 40
1
 40
1
 40
1
 10
74.272397
 20
193.355294
 30
0.0
 10
74.272397
 20
193.355294
 30
0.0
 10
75.252247
 20
193.413245
 30
0.0
 10
75.731862
 20
193.331375
 30
0.0
  0
SPLINE
  5
145
100
AcDbEntity
  8
Sota
 62
5
100
AcDbSpline
 70
8
 71
3
 72
8
 73
4
 74
0
 40
0
 40
0
 40
0
 40
0
 40
1
 40
1
 40
1
 40
1
 10
75.731862
 20
193.331375
 30
0.0
 10
75.930744
 20
193.297427
 30
0.0
 10
76.100488
 20
193.263645
 30
0.0
 10
76.306077
 20
193.139971
 30
0.0
  0
SPLINE
  5
146
100
AcDbEntity
  8
Sota
 62
5
100
AcDbSpline
 70
8
 71
3
 72
8
 73
4
 74
0
 40
0
 40
0
 40
0
 40
0
 40
1
 40
1
 40
1
 40
1
 10
76.306077
 20
193.139971
 30
0.0
 10
76.475278
 20
193.038185
 30
0.0
 10
76.706267
 20
192.897649
 30
0.0
 10
76.832441
 20
192.709308
 30
0.0
  0
SPLINE
  5
147
100
AcDbEntity
  8
Sota
 62
5
100
AcDbSpline
 70
8
 71
3
 72
8
 73
4
 74
0
 40
0
 40
0
 40
0
 40
0
 40
1
 40
1
 40
1
 40
1
 10
76.832441
 20
192.709308
 30
0.0
 10
76.939156
 20
192.550013
 30
0.0
 10
76.971702
 20
192.348668
 30
0.0
 10
76.999923
 20
192.159020
 30
0.0
  0
SPLINE
  5
148
100
AcDbEntity
  8
Sota
 62
5
100
AcDbSpline
 70
8
 71
3
 72
8
 73
4
 74
0
 40
0
 40
0
 40
0
 40
0
 40
1
 40
1
 40
1
 40
1
 10
76.999923
 20
192.159020
 30
0.0
 10
77.031617
 20
191.946033
 30
0.0
 10
77.037409
 20
191.725069
 30
0.0
 10
76.999923
 20
191.513027
 30
0.0
  0
SPLINE
  5
149
100
AcDbEntity
  8
Sota
 62
5
100
AcDbSpline
 70
8
 71
3
 72
8
 73
4
 74
0
 40
0
 40
0
 40
0
 40
0
 40
1
 40
1
 40
1
 40
1
 10
76.999923
 20
191.513027
 30
0.0
 10
76.965273
 20
191.317034
 30
0.0
 10
76.912470
 20
191.112939
 30
0.0
 10
76.795204
 20
190.952123
 30
0.0
  0
SPLINE
  5
14a
100
AcDbEntity
  8
Sota
 62
5
100
AcDbSpline
 70
8
 71
3
 72
8
 73
4
 74
0
 40
0
 40
0
 40
0
 40
0
 40
1
 40
1
 40
1
 40
1
 10
76.795204
 20
190.952123
 30
0.0
 10
76.691397
 20
190.809764
 30
0.0
 10
76.536288
 20
190.704859
 30
0.0
 10
76.377856
 20
190.627778
 30
0.0
  0
SPLINE
  5
14b
100
AcDbEntity
  8
Sota
 62
5
100
AcDbSpline
 70
8
 71
3
 72
8
 73
4
 74
0
 40
0
 40
0
 40
0
 40
0
 40
1
 40
1
 40
1
 40
1
 10
76.377856
 20
190.627778
 30
0.0
 10
76.170875
 20
190.527075
 30
0.0
 10
75.707936
 20
190.460297
 30
0.0
 10
75.707936
 20
190.460297
 30
0.0
  0
LWPOLYLINE
  5
14c
100
AcDbEntity
  8
Sota
 62
5
100
AcDbPolyline
 90
2
 70
0
 10
74.272397
 20
189.120452
 30
0.0
 10
74.272397
 20
193.355294
 30
0.0
  0
LWPOLYLINE
  5
14d
100
AcDbEntity
  8
Sota
 62
5
100
AcDbPolyline
 90
3
 70
0
 10
75.707936
 20
190.460297
 30
0.0
 10
75.301200
 20
190.436352
 30
0.0
 10
76.664963
 20
189.096518
 30
0.0
  0
LWPOLYLINE
  5
14e
100
AcDbEntity
  8
Sota
 62
5
100
AcDbPolyline
 90
4
 70
0
 10
86.402704
 20
193.379220
 30
0.0
 10
83.196665
 20
193.403138
 30
0.0
 10
83.196665
 20
189.192223
 30
0.0
 10
86.402704
 20
189.192223
 30
0.0
  0
LWPOLYLINE
  5
14f
100
AcDbEntity
  8
Sota
 62
5
100
AcDbPolyline
 90
2
 70
0
 10
83.890511
 20
190.508142
 30
0.0
 10
86.426630
 20
190.532060
 30
0.0
  0
SPLINE
  5
150
100
AcDbEntity
  8
Sota
 62
5
100
AcDbSpline
 70
8
 71
3
 72
8
 73
4
 74
0
 40
0
 40
0
 40
0
 40
0
 40
1
 40
1
 40
1
 40
1
 10
88.271567
 20
193.450996
 30
0.0
 10
88.271567
 20
189.048676
 30
0.0
 10
88.271567
 20
189.048676
 30
0.0
 10
88.271567
 20
189.048676
 30
0.0
  0
LWPOLYLINE
  5
151
100
AcDbEntity
  8
Sota
 62
5
100
AcDbPolyline
 90
3
 70
0
 10
86.668086
 20
193.355294
 30
0.0
 10
89.826611
 20
193.355294
 30
0.0
 10
89.826611
 20
193.306610
 30
0.0
  0
LWPOLYLINE
  5
152
100
AcDbEntity
  8
Sota
 62
5
100
AcDbPolyline
 90
4
 70
0
 10
78.602941
 20
189.096529
 30
0.0
 10
78.650793
 20
193.068186
 30
0.0
 10
82.359267
 20
189.431486
 30
0.0
 10
82.335349
 20
193.474923
 30
0.0
  0
SPLINE
  5
153
100
AcDbEntity
  8
Sota
 62
5
100
AcDbSpline
 70
8
 71
3
 72
8
 73
4
 74
0
 40
0
 40
0
 40
0
 40
0
 40
1
 40
1
 40
1
 40
1
 10
77.933758
 20
189.242777
 30
0.0
 10
77.933758
 20
189.195303
 30
0.0
 10
77.905617
 20
189.151435
 30
0.0
 10
77.859935
 20
189.127697
 30
0.0
  0
SPLINE
  5
154
100
AcDbEntity
  8
Sota
 62
5
100
AcDbSpline
 70
8
 71
3
 72
8
 73
4
 74
0
 40
0
 40
0
 40
0
 40
0
 40
1
 40
1
 40
1
 40
1
 10
77.859935
 20
189.127697
 30
0.0
 10
77.814252
 20
189.103960
 30
0.0
 10
77.757970
 20
189.103960
 30
0.0
 10
77.712287
 20
189.127697
 30
0.0
  0
SPLINE
  5
155
100
AcDbEntity
  8
Sota
 62
5
100
AcDbSpline
 70
8
 71
3
 72
8
 73
4
 74
0
 40
0
 40
0
 40
0
 40
0
 40
1
 40
1
 40
1
 40
1
 10
77.712287
 20
189.127697
 30
0.0
 10
77.666605
 20
189.151435
 30
0.0
 10
77.638464
 20
189.195303
 30
0.0
 10
77.638464
 20
189.242777
 30
0.0
  0
SPLINE
  5
156
100
AcDbEntity
  8
Sota
 62
5
100
AcDbSpline
 70
8
 71
3
 72
8
 73
4
 74
0
 40
0
 40
0
 40
0
 40
0
 40
1
 40
1
 40
1
 40
1
 10
77.638464
 20
189.242777
 30
0.0
 10
77.638464
 20
189.290252
 30
0.0
 10
77.666605
 20
189.334120
 30
0.0
 10
77.712287
 20
189.357857
 30
0.0
  0
SPLINE
  5
157
100
AcDbEntity
  8
Sota
 62
5
100
AcDbSpline
 70
8
 71
3
 72
8
 73
4
 74
0
 40
0
 40
0
 40
0
 40
0
 40
1
 40
1
 40
1
 40
1
 10
77.712287
 20
189.357857
 30
0.0
 10
77.757970
 20
189.381594
 30
0.0
 10
77.814252
 20
189.381594
 30
0.0
 10
77.859935
 20
189.357857
 30
0.0
  0
SPLINE
  5
158
100
AcDbEntity
  8
Sota
 62
5
100
AcDbSpline
 70
8
 71
3
 72
8
 73
4
 74
0
 40
0
 40
0
 40
0
 40
0
 40
1
 40
1
 40
1
 40
1
 10
77.859935
 20
189.357857
 30
0.0
 10
77.905617
 20
189.334120
 30
0.0
 10
77.933758
 20
189.290252
 30
0.0
 10
77.933758
 20
189.242777
 30
0.0
  0
LWPOLYLINE
  5
159
100
AcDbEntity
  8
Sota
 62
7
100
AcDbPolyline
 90
1
 70
1
 10
77.837318
 20
189.311860
 30
0.0
  0
LWPOLYLINE
  5
15a
100
AcDbEntity
  8
Sota
 62
5
100
AcDbPolyline
 90
1
 70
1
 10
77.933758
 20
189.242777
 30
0.0
  0
ENDSEC
  0
SECTION
  2
OBJECTS
  0
DICTIONARY
  5
C
330
0
100
AcDbDictionary
  3
ACAD_GROUP
350
D
  3
ACAD_MLINESTYLE
350
17
  0
DICTIONARY
  5
D
330
C
100
AcDbDictionary
  0
DICTIONARY
  5
1A
330
C
100
AcDbDictionary
  0
DICTIONARY
  5
17
330
C
100
AcDbDictionary
  3
STANDARD
350
18
  0
DICTIONARY
  5
19
330
C
100
AcDbDictionary
  0
ENDSEC
  0
EOF
